<?xml version="1.0" encoding="UTF-8" standalone="no"?>
<svg width="1440px" height="1024px" viewBox="0 0 1440 1024" version="1.1" xmlns="http://www.w3.org/2000/svg" xmlns:xlink="http://www.w3.org/1999/xlink">
    <!-- Generator: Sketch 49.2 (51160) - http://www.bohemiancoding.com/sketch -->
    <title>crayon-icons</title>
    <desc>Created with Sketch.</desc>
    <defs>
        <filter x="-21.0%" y="-14.2%" width="154.8%" height="128.3%" filterUnits="objectBoundingBox" id="filter-1">
            <feOffset dx="4" dy="0" in="SourceAlpha" result="shadowOffsetOuter1"></feOffset>
            <feGaussianBlur stdDeviation="5" in="shadowOffsetOuter1" result="shadowBlurOuter1"></feGaussianBlur>
            <feColorMatrix values="0 0 0 0 0   0 0 0 0 0   0 0 0 0 0  0 0 0 0.5 0" type="matrix" in="shadowBlurOuter1" result="shadowMatrixOuter1"></feColorMatrix>
            <feMerge>
                <feMergeNode in="shadowMatrixOuter1"></feMergeNode>
                <feMergeNode in="SourceGraphic"></feMergeNode>
            </feMerge>
        </filter>
        <rect id="path-2" x="0" y="52" width="62" height="67.3131313"></rect>
        <filter x="-21.0%" y="-14.2%" width="154.8%" height="128.3%" filterUnits="objectBoundingBox" id="filter-3">
            <feOffset dx="4" dy="0" in="SourceAlpha" result="shadowOffsetOuter1"></feOffset>
            <feGaussianBlur stdDeviation="5" in="shadowOffsetOuter1" result="shadowBlurOuter1"></feGaussianBlur>
            <feColorMatrix values="0 0 0 0 0   0 0 0 0 0   0 0 0 0 0  0 0 0 0.5 0" type="matrix" in="shadowBlurOuter1" result="shadowMatrixOuter1"></feColorMatrix>
            <feMerge>
                <feMergeNode in="shadowMatrixOuter1"></feMergeNode>
                <feMergeNode in="SourceGraphic"></feMergeNode>
            </feMerge>
        </filter>
        <rect id="path-4" x="0" y="52" width="62" height="67.3131313"></rect>
        <filter x="-21.0%" y="-14.2%" width="154.8%" height="128.3%" filterUnits="objectBoundingBox" id="filter-5">
            <feOffset dx="4" dy="0" in="SourceAlpha" result="shadowOffsetOuter1"></feOffset>
            <feGaussianBlur stdDeviation="5" in="shadowOffsetOuter1" result="shadowBlurOuter1"></feGaussianBlur>
            <feColorMatrix values="0 0 0 0 0   0 0 0 0 0   0 0 0 0 0  0 0 0 0.5 0" type="matrix" in="shadowBlurOuter1" result="shadowMatrixOuter1"></feColorMatrix>
            <feMerge>
                <feMergeNode in="shadowMatrixOuter1"></feMergeNode>
                <feMergeNode in="SourceGraphic"></feMergeNode>
            </feMerge>
        </filter>
        <rect id="path-6" x="0" y="52" width="62" height="67.3131313"></rect>
        <filter x="-21.0%" y="-14.2%" width="154.8%" height="128.3%" filterUnits="objectBoundingBox" id="filter-7">
            <feOffset dx="4" dy="0" in="SourceAlpha" result="shadowOffsetOuter1"></feOffset>
            <feGaussianBlur stdDeviation="5" in="shadowOffsetOuter1" result="shadowBlurOuter1"></feGaussianBlur>
            <feColorMatrix values="0 0 0 0 0   0 0 0 0 0   0 0 0 0 0  0 0 0 0.5 0" type="matrix" in="shadowBlurOuter1" result="shadowMatrixOuter1"></feColorMatrix>
            <feMerge>
                <feMergeNode in="shadowMatrixOuter1"></feMergeNode>
                <feMergeNode in="SourceGraphic"></feMergeNode>
            </feMerge>
        </filter>
        <rect id="path-8" x="0" y="52" width="62" height="67.3131313"></rect>
        <filter x="-21.0%" y="-14.2%" width="154.8%" height="128.3%" filterUnits="objectBoundingBox" id="filter-9">
            <feOffset dx="4" dy="0" in="SourceAlpha" result="shadowOffsetOuter1"></feOffset>
            <feGaussianBlur stdDeviation="5" in="shadowOffsetOuter1" result="shadowBlurOuter1"></feGaussianBlur>
            <feColorMatrix values="0 0 0 0 0   0 0 0 0 0   0 0 0 0 0  0 0 0 0.5 0" type="matrix" in="shadowBlurOuter1" result="shadowMatrixOuter1"></feColorMatrix>
            <feMerge>
                <feMergeNode in="shadowMatrixOuter1"></feMergeNode>
                <feMergeNode in="SourceGraphic"></feMergeNode>
            </feMerge>
        </filter>
        <rect id="path-10" x="0" y="52" width="62" height="67.3131313"></rect>
        <filter x="-21.0%" y="-14.2%" width="154.8%" height="128.3%" filterUnits="objectBoundingBox" id="filter-11">
            <feOffset dx="4" dy="0" in="SourceAlpha" result="shadowOffsetOuter1"></feOffset>
            <feGaussianBlur stdDeviation="5" in="shadowOffsetOuter1" result="shadowBlurOuter1"></feGaussianBlur>
            <feColorMatrix values="0 0 0 0 0   0 0 0 0 0   0 0 0 0 0  0 0 0 0.5 0" type="matrix" in="shadowBlurOuter1" result="shadowMatrixOuter1"></feColorMatrix>
            <feMerge>
                <feMergeNode in="shadowMatrixOuter1"></feMergeNode>
                <feMergeNode in="SourceGraphic"></feMergeNode>
            </feMerge>
        </filter>
        <rect id="path-12" x="0" y="52" width="62" height="67.3131313"></rect>
        <filter x="-21.0%" y="-14.2%" width="154.8%" height="128.3%" filterUnits="objectBoundingBox" id="filter-13">
            <feOffset dx="4" dy="0" in="SourceAlpha" result="shadowOffsetOuter1"></feOffset>
            <feGaussianBlur stdDeviation="5" in="shadowOffsetOuter1" result="shadowBlurOuter1"></feGaussianBlur>
            <feColorMatrix values="0 0 0 0 0   0 0 0 0 0   0 0 0 0 0  0 0 0 0.5 0" type="matrix" in="shadowBlurOuter1" result="shadowMatrixOuter1"></feColorMatrix>
            <feMerge>
                <feMergeNode in="shadowMatrixOuter1"></feMergeNode>
                <feMergeNode in="SourceGraphic"></feMergeNode>
            </feMerge>
        </filter>
        <rect id="path-14" x="0" y="52" width="62" height="67.3131313"></rect>
        <filter x="-21.0%" y="-14.4%" width="154.8%" height="128.8%" filterUnits="objectBoundingBox" id="filter-15">
            <feOffset dx="4" dy="0" in="SourceAlpha" result="shadowOffsetOuter1"></feOffset>
            <feGaussianBlur stdDeviation="5" in="shadowOffsetOuter1" result="shadowBlurOuter1"></feGaussianBlur>
            <feColorMatrix values="0 0 0 0 0   0 0 0 0 0   0 0 0 0 0  0 0 0 0.5 0" type="matrix" in="shadowBlurOuter1" result="shadowMatrixOuter1"></feColorMatrix>
            <feMerge>
                <feMergeNode in="shadowMatrixOuter1"></feMergeNode>
                <feMergeNode in="SourceGraphic"></feMergeNode>
            </feMerge>
        </filter>
        <rect id="path-16" x="0" y="51" width="62" height="66.7983979"></rect>
        <filter x="-21.0%" y="-14.2%" width="154.8%" height="128.3%" filterUnits="objectBoundingBox" id="filter-17">
            <feOffset dx="4" dy="0" in="SourceAlpha" result="shadowOffsetOuter1"></feOffset>
            <feGaussianBlur stdDeviation="5" in="shadowOffsetOuter1" result="shadowBlurOuter1"></feGaussianBlur>
            <feColorMatrix values="0 0 0 0 0   0 0 0 0 0   0 0 0 0 0  0 0 0 0.5 0" type="matrix" in="shadowBlurOuter1" result="shadowMatrixOuter1"></feColorMatrix>
            <feMerge>
                <feMergeNode in="shadowMatrixOuter1"></feMergeNode>
                <feMergeNode in="SourceGraphic"></feMergeNode>
            </feMerge>
        </filter>
        <rect id="path-18" x="0" y="52" width="62" height="67.0232255"></rect>
        <filter x="-21.0%" y="-14.2%" width="154.8%" height="128.3%" filterUnits="objectBoundingBox" id="filter-19">
            <feOffset dx="4" dy="0" in="SourceAlpha" result="shadowOffsetOuter1"></feOffset>
            <feGaussianBlur stdDeviation="5" in="shadowOffsetOuter1" result="shadowBlurOuter1"></feGaussianBlur>
            <feColorMatrix values="0 0 0 0 0   0 0 0 0 0   0 0 0 0 0  0 0 0 0.5 0" type="matrix" in="shadowBlurOuter1" result="shadowMatrixOuter1"></feColorMatrix>
            <feMerge>
                <feMergeNode in="shadowMatrixOuter1"></feMergeNode>
                <feMergeNode in="SourceGraphic"></feMergeNode>
            </feMerge>
        </filter>
        <rect id="path-20" x="0" y="52" width="62" height="67.3131313"></rect>
        <filter x="-21.0%" y="-14.2%" width="154.8%" height="128.3%" filterUnits="objectBoundingBox" id="filter-21">
            <feOffset dx="4" dy="0" in="SourceAlpha" result="shadowOffsetOuter1"></feOffset>
            <feGaussianBlur stdDeviation="5" in="shadowOffsetOuter1" result="shadowBlurOuter1"></feGaussianBlur>
            <feColorMatrix values="0 0 0 0 0   0 0 0 0 0   0 0 0 0 0  0 0 0 0.5 0" type="matrix" in="shadowBlurOuter1" result="shadowMatrixOuter1"></feColorMatrix>
            <feMerge>
                <feMergeNode in="shadowMatrixOuter1"></feMergeNode>
                <feMergeNode in="SourceGraphic"></feMergeNode>
            </feMerge>
        </filter>
        <rect id="path-22" x="0" y="52" width="62" height="67.0232255"></rect>
        <filter x="-21.0%" y="-14.2%" width="154.8%" height="128.3%" filterUnits="objectBoundingBox" id="filter-23">
            <feOffset dx="4" dy="0" in="SourceAlpha" result="shadowOffsetOuter1"></feOffset>
            <feGaussianBlur stdDeviation="5" in="shadowOffsetOuter1" result="shadowBlurOuter1"></feGaussianBlur>
            <feColorMatrix values="0 0 0 0 0   0 0 0 0 0   0 0 0 0 0  0 0 0 0.5 0" type="matrix" in="shadowBlurOuter1" result="shadowMatrixOuter1"></feColorMatrix>
            <feMerge>
                <feMergeNode in="shadowMatrixOuter1"></feMergeNode>
                <feMergeNode in="SourceGraphic"></feMergeNode>
            </feMerge>
        </filter>
        <rect id="path-24" x="0" y="52" width="62" height="67.0232255"></rect>
    </defs>
    <g id="crayon-icons" stroke="none" stroke-width="1" fill="none" fill-rule="evenodd">
        <g id="pink" filter="url(#filter-1)" transform="translate(1379.500000, 66.500000) rotate(-90.000000) translate(-1379.500000, -66.500000) translate(1348.500000, 6.500000)">
            <g id="Rectangle-2">
                <use fill="#FA98D3" fill-rule="evenodd" xlink:href="#path-2"></use>
                <rect stroke="#F96DC1" stroke-width="3.6" x="1.8" y="53.8" width="58.4" height="63.7131313"></rect>
            </g>
            <path d="M9.31560304,50.8505542 L23.4896448,5.45323523 C24.7690968,1.35534345 29.1174423,-0.92605382 33.2019463,0.357591808 C35.6113558,1.11480198 37.5020721,3.00208785 38.2690586,5.41551045 L52.7083302,50.8505542 L62,50.8505542 L62,67.3131313 L0,67.3131313 L0,50.8505542 L9.31560304,50.8505542 Z" id="Combined-Shape-Copy-3" fill="#F96DC1"></path>
            <rect id="Rectangle" fill="#F96DC1" x="0" y="72" width="62" height="9.61616162"></rect>
            <rect id="Rectangle-2" fill-opacity="0.4" fill="#FFFFFF" x="21" y="52" width="20.2692308" height="67.3131313"></rect>
            <g id="highlight" opacity="0.299615205" transform="translate(15.000000, 0.000000)" fill="#FFFFFF">
                <path d="M4.83694773,50.8505542 L12.1965463,5.45323523 C12.8608772,1.35534345 15.1186719,-0.92605382 17.2394721,0.357591808 C18.4905117,1.11480198 19.4722298,3.00208785 19.8704727,5.41551045 L27.3677869,50.8505542 L32.1923077,50.8505542 L32.1923077,67.3131313 L0,67.3131313 L0,50.8505542 L4.83694773,50.8505542 Z" id="Combined-Shape-Copy-3"></path>
            </g>
        </g>
        <g id="redorange" filter="url(#filter-3)" transform="translate(1379.500000, 149.500000) rotate(-90.000000) translate(-1379.500000, -149.500000) translate(1348.500000, 89.500000)">
            <g id="Rectangle-2-Copy">
                <use fill="#FF9393" fill-rule="evenodd" xlink:href="#path-4"></use>
                <rect stroke="#FF6666" stroke-width="3.6" x="1.8" y="53.8" width="58.4" height="63.7131313"></rect>
            </g>
            <path d="M9.31560304,50.8505542 L23.4896448,5.45323523 C24.7690968,1.35534345 29.1174423,-0.92605382 33.2019463,0.357591808 C35.6113558,1.11480198 37.5020721,3.00208785 38.2690586,5.41551045 L52.7083302,50.8505542 L62,50.8505542 L62,67.3131313 L0,67.3131313 L0,50.8505542 L9.31560304,50.8505542 Z" id="Combined-Shape-Copy-3" fill="#FF6666"></path>
            <rect id="Rectangle" fill="#FF6666" x="0" y="72" width="62" height="9.61616162"></rect>
            <g id="highlight" opacity="0.299615205" transform="translate(15.000000, 0.000000)" fill="#FFFFFF">
                <path d="M4.83694773,50.8505542 L12.1965463,5.45323523 C12.8608772,1.35534345 15.1186719,-0.92605382 17.2394721,0.357591808 C18.4905117,1.11480198 19.4722298,3.00208785 19.8704727,5.41551045 L27.3677869,50.8505542 L32.1923077,50.8505542 L32.1923077,67.3131313 L0,67.3131313 L0,50.8505542 L4.83694773,50.8505542 Z" id="Combined-Shape-Copy-3"></path>
            </g>
            <rect id="Rectangle-2-Copy-4" fill-opacity="0.4" fill="#FFFFFF" x="21" y="52" width="20.2692308" height="67.3131313"></rect>
        </g>
        <g id="orange" filter="url(#filter-5)" transform="translate(1379.500000, 227.500000) rotate(-90.000000) translate(-1379.500000, -227.500000) translate(1348.500000, 167.500000)">
            <g id="Rectangle-2-Copy-2">
                <use fill="#F8B98C" fill-rule="evenodd" xlink:href="#path-6"></use>
                <rect stroke="#F59B5B" stroke-width="3.6" x="1.8" y="53.8" width="58.4" height="63.7131313"></rect>
            </g>
            <path d="M9.31560304,50.8505542 L23.4896448,5.45323523 C24.7690968,1.35534345 29.1174423,-0.92605382 33.2019463,0.357591808 C35.6113558,1.11480198 37.5020721,3.00208785 38.2690586,5.41551045 L52.7083302,50.8505542 L62,50.8505542 L62,67.3131313 L0,67.3131313 L0,50.8505542 L9.31560304,50.8505542 Z" id="Combined-Shape-Copy-3" fill="#F59B5B"></path>
            <rect id="Rectangle" fill="#F59B5B" x="5.68434189e-14" y="72" width="62" height="9.61616162"></rect>
            <g id="Group" opacity="0.3" transform="translate(15.000000, 0.000000)" fill="#FFFFFF">
                <path d="M4.83694773,50.8505542 L12.1965463,5.45323523 C12.8608772,1.35534345 15.1186719,-0.92605382 17.2394721,0.357591808 C18.4905117,1.11480198 19.4722298,3.00208785 19.8704727,5.41551045 L27.3677869,50.8505542 L32.1923077,50.8505542 L32.1923077,67.3131313 L0,67.3131313 L0,50.8505542 L4.83694773,50.8505542 Z" id="Combined-Shape-Copy-3"></path>
                <path d="" id="Rectangle"></path>
            </g>
            <rect id="Rectangle-2-Copy-5" fill-opacity="0.4" fill="#FFFFFF" x="21" y="52" width="20.2692308" height="67.3131313"></rect>
        </g>
        <g id="yellow" filter="url(#filter-7)" transform="translate(1379.500000, 305.500000) rotate(-90.000000) translate(-1379.500000, -305.500000) translate(1348.500000, 245.500000)">
            <g id="Rectangle-2-Copy-3">
                <use fill="#FADC6D" fill-rule="evenodd" xlink:href="#path-8"></use>
                <rect stroke="#F9CE30" stroke-width="3.6" x="1.8" y="53.8" width="58.4" height="63.7131313"></rect>
            </g>
            <path d="M9.31560304,50.8505542 L23.4896448,5.45323523 C24.7690968,1.35534345 29.1174423,-0.92605382 33.2019463,0.357591808 C35.6113558,1.11480198 37.5020721,3.00208785 38.2690586,5.41551045 L52.7083302,50.8505542 L62,50.8505542 L62,67.3131313 L0,67.3131313 L0,50.8505542 L9.31560304,50.8505542 Z M0,72.1212121 L62,72.1212121 L62,81.7373737 L0,81.7373737 L0,72.1212121 Z" id="Combined-Shape" fill="#F9CE30"></path>
            <g id="highlight" opacity="0.299615205" transform="translate(15.000000, 0.000000)" fill="#FFFFFF">
                <path d="M4.83694773,50.8505542 L12.1965463,5.45323523 C12.8608772,1.35534345 15.1186719,-0.92605382 17.2394721,0.357591808 C18.4905117,1.11480198 19.4722298,3.00208785 19.8704727,5.41551045 L27.3677869,50.8505542 L32.1923077,50.8505542 L32.1923077,67.3131313 L0,67.3131313 L0,50.8505542 L4.83694773,50.8505542 Z" id="Combined-Shape-Copy-3"></path>
            </g>
            <rect id="Rectangle-2-Copy-6" fill-opacity="0.4" fill="#FFFFFF" x="21" y="52" width="20.2692308" height="67.3131313"></rect>
        </g>
        <g id="lime" filter="url(#filter-9)" transform="translate(1379.500000, 388.500000) rotate(-90.000000) translate(-1379.500000, -388.500000) translate(1348.500000, 328.500000)">
            <g id="Rectangle-2">
                <use fill="#B8E574" fill-rule="evenodd" xlink:href="#path-10"></use>
                <rect stroke="#9BDA39" stroke-width="3.6" x="1.8" y="53.8" width="58.4" height="63.7131313"></rect>
            </g>
            <path d="M9.31560304,50.8505542 L23.4896448,5.45323523 C24.7690968,1.35534345 29.1174423,-0.92605382 33.2019463,0.357591808 C35.6113558,1.11480198 37.5020721,3.00208785 38.2690586,5.41551045 L52.7083302,50.8505542 L62,50.8505542 L62,67.3131313 L0,67.3131313 L0,50.8505542 L9.31560304,50.8505542 Z" id="Combined-Shape-Copy-3" fill="#9BDA39"></path>
            <rect id="Rectangle" fill="#9BDA39" x="5.68434189e-14" y="72" width="62" height="9.61616162"></rect>
            <g id="highlight" opacity="0.299615205" transform="translate(15.000000, 0.000000)" fill="#FFFFFF">
                <path d="M4.83694773,50.8505542 L12.1965463,5.45323523 C12.8608772,1.35534345 15.1186719,-0.92605382 17.2394721,0.357591808 C18.4905117,1.11480198 19.4722298,3.00208785 19.8704727,5.41551045 L27.3677869,50.8505542 L32.1923077,50.8505542 L32.1923077,67.3131313 L0,67.3131313 L0,50.8505542 L4.83694773,50.8505542 Z" id="Combined-Shape-Copy-3"></path>
            </g>
            <rect id="Rectangle-2" fill-opacity="0.4" fill="#FFFFFF" x="21" y="52" width="20.2692308" height="67.3131313"></rect>
        </g>
        <g id="seagreen" filter="url(#filter-11)" transform="translate(1379.500000, 471.500000) rotate(-90.000000) translate(-1379.500000, -471.500000) translate(1348.500000, 411.500000)">
            <g id="Rectangle-2-Copy">
                <use fill="#93C4B7" fill-rule="evenodd" xlink:href="#path-12"></use>
                <rect stroke="#66AB99" stroke-width="3.6" x="1.8" y="53.8" width="58.4" height="63.7131313"></rect>
            </g>
            <path d="M9.31560304,50.8505542 L23.4896448,5.45323523 C24.7690968,1.35534345 29.1174423,-0.92605382 33.2019463,0.357591808 C35.6113558,1.11480198 37.5020721,3.00208785 38.2690586,5.41551045 L52.7083302,50.8505542 L62,50.8505542 L62,67.3131313 L0,67.3131313 L0,50.8505542 L9.31560304,50.8505542 Z" id="Combined-Shape-Copy-3" fill="#66AB99"></path>
            <rect id="Rectangle" fill="#66AB99" x="5.68434189e-14" y="72" width="62" height="9.61616162"></rect>
            <g id="highlight" opacity="0.299615205" transform="translate(15.000000, 0.000000)" fill="#FFFFFF">
                <path d="M4.83694773,50.8505542 L12.1965463,5.45323523 C12.8608772,1.35534345 15.1186719,-0.92605382 17.2394721,0.357591808 C18.4905117,1.11480198 19.4722298,3.00208785 19.8704727,5.41551045 L27.3677869,50.8505542 L32.1923077,50.8505542 L32.1923077,67.3131313 L0,67.3131313 L0,50.8505542 L4.83694773,50.8505542 Z" id="Combined-Shape-Copy-3"></path>
            </g>
            <rect id="Rectangle-2-Copy-4" fill-opacity="0.4" fill="#FFFFFF" x="21" y="52" width="20.2692308" height="66.6720539"></rect>
        </g>
        <g id="cyan" filter="url(#filter-13)" transform="translate(1379.500000, 549.500000) rotate(-90.000000) translate(-1379.500000, -549.500000) translate(1348.500000, 489.500000)">
            <g id="Rectangle-2-Copy-2">
                <use fill="#74E1F3" fill-rule="evenodd" xlink:href="#path-14"></use>
                <rect stroke="#39D5EF" stroke-width="3.6" x="1.8" y="53.8" width="58.4" height="63.7131313"></rect>
            </g>
            <path d="M9.31560304,50.8505542 L23.4896448,5.45323523 C24.7690968,1.35534345 29.1174423,-0.92605382 33.2019463,0.357591808 C35.6113558,1.11480198 37.5020721,3.00208785 38.2690586,5.41551045 L52.7083302,50.8505542 L62,50.8505542 L62,67.3131313 L0,67.3131313 L0,50.8505542 L9.31560304,50.8505542 Z" id="Combined-Shape-Copy-3" fill="#39D5EF"></path>
            <rect id="Rectangle" fill="#39D5EF" x="0" y="72" width="62" height="9.61616162"></rect>
            <g id="highlight" opacity="0.299615205" transform="translate(15.000000, 0.000000)" fill="#FFFFFF">
                <path d="M4.83694773,50.8505542 L12.1965463,5.45323523 C12.8608772,1.35534345 15.1186719,-0.92605382 17.2394721,0.357591808 C18.4905117,1.11480198 19.4722298,3.00208785 19.8704727,5.41551045 L27.3677869,50.8505542 L32.1923077,50.8505542 L32.1923077,67.3131313 L0,67.3131313 L0,50.8505542 L4.83694773,50.8505542 Z" id="Combined-Shape-Copy-3"></path>
            </g>
            <rect id="Rectangle-2-Copy-5" fill-opacity="0.4" fill="#FFFFFF" x="21" y="52" width="20.2692308" height="67.3131313"></rect>
        </g>
        <g id="bluegray" filter="url(#filter-15)" transform="translate(1380.000000, 632.000000) rotate(-90.000000) translate(-1380.000000, -632.000000) translate(1349.000000, 573.000000)">
            <g id="Rectangle-2-Copy-3">
                <use fill="#8BB3CD" fill-rule="evenodd" xlink:href="#path-16"></use>
                <rect stroke="#5B94B8" stroke-width="3.6" x="1.8" y="52.8" width="58.4" height="63.1983979"></rect>
            </g>
            <path d="M9.31560304,50.9377615 L23.4896448,5.46258737 C24.7690968,1.35766782 29.1174423,-0.927641976 33.2019463,0.358205068 C35.6113558,1.11671384 37.5020721,3.00723635 38.2690586,5.4247979 L52.7083302,50.9377615 L62,50.9377615 L62,67.4285714 L0,67.4285714 L0,50.9377615 L9.31560304,50.9377615 Z" id="Combined-Shape-Copy-3" fill="#5B94B8"></path>
            <rect id="Rectangle" fill="#5B94B8" x="0" y="73" width="62" height="9.63265306"></rect>
            <g id="highlight" opacity="0.299615205" transform="translate(15.000000, 0.000000)" fill="#FFFFFF">
                <path d="M4.83694773,50.9377615 L12.1965463,5.46258737 C12.8608772,1.35766782 15.1186719,-0.927641976 17.2394721,0.358205068 C18.4905117,1.11671384 19.4722298,3.00723635 19.8704727,5.4247979 L27.3677869,50.9377615 L32.1923077,50.9377615 L32.1923077,67.4285714 L0,67.4285714 L0,50.9377615 L4.83694773,50.9377615 Z" id="Combined-Shape-Copy-3"></path>
            </g>
            <rect id="Rectangle-2-Copy-6" fill-opacity="0.4" fill="#FFFFFF" x="21" y="51" width="20.2692308" height="66.7983979"></rect>
        </g>
        <g id="cornflower" filter="url(#filter-17)" transform="translate(1380.500000, 710.500000) rotate(-90.000000) translate(-1380.500000, -710.500000) translate(1349.500000, 650.500000)">
            <g id="Rectangle-2">
                <use fill="#8AB3FF" fill-rule="evenodd" xlink:href="#path-18"></use>
                <rect stroke="#5993FF" stroke-width="3.6" x="1.8" y="53.8" width="58.4" height="63.4232255"></rect>
            </g>
            <path d="M9.31560304,50.8505542 L23.4896448,5.45323523 C24.7690968,1.35534345 29.1174423,-0.92605382 33.2019463,0.357591808 C35.6113558,1.11480198 37.5020721,3.00208785 38.2690586,5.41551045 L52.7083302,50.8505542 L62,50.8505542 L62,67.3131313 L0,67.3131313 L0,50.8505542 L9.31560304,50.8505542 Z" id="Combined-Shape-Copy-3" fill="#5993FF"></path>
            <rect id="Rectangle" fill="#5993FF" x="0" y="72" width="62" height="9.61616162"></rect>
            <g id="highlight" opacity="0.299615205" transform="translate(15.000000, 0.000000)" fill="#FFFFFF">
                <path d="M4.83694773,50.8505542 L12.1965463,5.45323523 C12.8608772,1.35534345 15.1186719,-0.92605382 17.2394721,0.357591808 C18.4905117,1.11480198 19.4722298,3.00208785 19.8704727,5.41551045 L27.3677869,50.8505542 L32.1923077,50.8505542 L32.1923077,67.3131313 L0,67.3131313 L0,50.8505542 L4.83694773,50.8505542 Z" id="Combined-Shape-Copy-3"></path>
            </g>
            <rect id="Rectangle-2" fill-opacity="0.4" fill="#FFFFFF" x="21" y="52" width="20.2692308" height="67.0232255"></rect>
        </g>
        <g id="white" filter="url(#filter-19)" transform="translate(1380.500000, 788.500000) rotate(-90.000000) translate(-1380.500000, -788.500000) translate(1349.500000, 728.500000)">
            <g id="Rectangle-2-Copy">
                <use fill="#D6D4D4" fill-rule="evenodd" xlink:href="#path-20"></use>
                <rect stroke="#B6B6B6" stroke-width="3.6" x="1.8" y="53.8" width="58.4" height="63.7131313"></rect>
            </g>
            <path d="M9.31560304,50.8505542 L23.4896448,5.45323523 C24.7690968,1.35534345 29.1174423,-0.92605382 33.2019463,0.357591808 C35.6113558,1.11480198 37.5020721,3.00208785 38.2690586,5.41551045 L52.7083302,50.8505542 L62,50.8505542 L62,67.3131313 L0,67.3131313 L0,50.8505542 L9.31560304,50.8505542 Z" id="Combined-Shape-Copy-3" fill="#F9F9F9"></path>
            <rect id="Rectangle" fill="#F9F9F9" x="0" y="72" width="62" height="9.61616162"></rect>
            <rect id="Rectangle-2-Copy-4" fill-opacity="0.4" fill="#FFFFFF" x="21" y="52" width="20.2692308" height="67.3131313"></rect>
        </g>
        <g id="gray" filter="url(#filter-21)" transform="translate(1380.500000, 867.500000) rotate(-90.000000) translate(-1380.500000, -867.500000) translate(1349.500000, 807.500000)">
            <g id="Rectangle-2-Copy-2">
                <use fill="#D6D4D4" fill-rule="evenodd" xlink:href="#path-22"></use>
                <rect stroke="#868686" stroke-width="3.6" x="1.8" y="53.8" width="58.4" height="63.4232255"></rect>
            </g>
            <path d="M9.31560304,50.8505542 L23.4896448,5.45323523 C24.7690968,1.35534345 29.1174423,-0.92605382 33.2019463,0.357591808 C35.6113558,1.11480198 37.5020721,3.00208785 38.2690586,5.41551045 L52.7083302,50.8505542 L62,50.8505542 L62,67.3131313 L0,67.3131313 L0,50.8505542 L9.31560304,50.8505542 Z" id="Combined-Shape-Copy-3" fill="#868686"></path>
            <rect id="Rectangle" fill="#868686" x="0" y="72" width="62" height="9.61616162"></rect>
            <g id="highlight" opacity="0.299615205" transform="translate(15.000000, 0.000000)" fill="#FFFFFF">
                <path d="M4.83694773,50.8505542 L12.1965463,5.45323523 C12.8608772,1.35534345 15.1186719,-0.92605382 17.2394721,0.357591808 C18.4905117,1.11480198 19.4722298,3.00208785 19.8704727,5.41551045 L27.3677869,50.8505542 L32.1923077,50.8505542 L32.1923077,67.3131313 L0,67.3131313 L0,50.8505542 L4.83694773,50.8505542 Z" id="Combined-Shape-Copy-3"></path>
            </g>
            <rect id="Rectangle-2-Copy-5" fill-opacity="0.4" fill="#FFFFFF" x="21" y="52" width="20.2692308" height="67.0232255"></rect>
        </g>
        <g id="black" filter="url(#filter-23)" transform="translate(1380.500000, 945.500000) rotate(-90.000000) translate(-1380.500000, -945.500000) translate(1349.500000, 885.500000)">
            <g id="Rectangle-2-Copy-3">
                <use fill="#6F6F6F" fill-rule="evenodd" xlink:href="#path-24"></use>
                <rect stroke="#333333" stroke-width="3.6" x="1.8" y="53.8" width="58.4" height="63.4232255"></rect>
            </g>
            <path d="M9.31560304,50.8505542 L23.4896448,5.45323523 C24.7690968,1.35534345 29.1174423,-0.92605382 33.2019463,0.357591808 C35.6113558,1.11480198 37.5020721,3.00208785 38.2690586,5.41551045 L52.7083302,50.8505542 L62,50.8505542 L62,67.3131313 L0,67.3131313 L0,50.8505542 L9.31560304,50.8505542 Z" id="Combined-Shape-Copy-3" fill="#333333"></path>
            <rect id="Rectangle" fill="#333333" x="0" y="72" width="62" height="9.61616162"></rect>
            <g id="highlight" opacity="0.299615205" transform="translate(15.000000, 0.000000)" fill="#FFFFFF">
                <path d="M4.83694773,50.8505542 L12.1965463,5.45323523 C12.8608772,1.35534345 15.1186719,-0.92605382 17.2394721,0.357591808 C18.4905117,1.11480198 19.4722298,3.00208785 19.8704727,5.41551045 L27.3677869,50.8505542 L32.1923077,50.8505542 L32.1923077,67.3131313 L0,67.3131313 L0,50.8505542 L4.83694773,50.8505542 Z" id="Combined-Shape-Copy-3"></path>
            </g>
            <rect id="Rectangle-2-Copy-6" fill-opacity="0.4" fill="#FFFFFF" x="21" y="52" width="20.2692308" height="67.3131313"></rect>
        </g>
    </g>
</svg>