<?xml version="1.0" encoding="utf-8"?>
<!-- Generator: Adobe Illustrator 22.1.0, SVG Export Plug-In . SVG Version: 6.00 Build 0)  -->
<svg version="1.1" id="Final" xmlns="http://www.w3.org/2000/svg" xmlns:xlink="http://www.w3.org/1999/xlink" x="0px" y="0px"
	 viewBox="0 0 322.9 188.5" style="enable-background:new 0 0 322.9 188.5;" xml:space="preserve">
<style type="text/css">
	.st0{fill:#006CA3;}
	.st1{fill:#82C341;}
	.st2{fill:#00AAE7;}
	.st3{fill:#FFFFFF;}
</style>
<g>
	<path class="st0" d="M46.8,58.3c0,0.6-0.3,1.1-0.7,1.5c-2.2,1.9-4.7,3.1-8.4,3.1c-6.8,0-11.8-5.3-11.8-12v-0.1c0-6.6,5-12,12-12
		c3.6,0,5.9,1.1,8,2.6c0.4,0.3,0.8,0.9,0.8,1.6c0,1.1-0.9,2-2,2c-0.6,0-1-0.2-1.2-0.4c-1.6-1.3-3.3-2.1-5.5-2.1
		c-4.4,0-7.7,3.7-7.7,8.2v0.1c0,4.6,3.2,8.2,7.7,8.2c2.5,0,4.1-0.8,5.8-2.2c0.3-0.3,0.7-0.5,1.2-0.5C45.9,56.4,46.8,57.2,46.8,58.3z
		 M65.1,60.6c0,1.1,0.9,2,2,2c1.2,0,2.1-0.9,2.1-2V41.1c0-1.1-0.9-2-2.1-2c-1.1,0-2,0.9-2,2v7.8H54v-7.8c0-1.1-0.9-2-2-2
		c-1.2,0-2.1,0.9-2.1,2v19.5c0,1.1,0.9,2,2.1,2c1.1,0,2-0.9,2-2v-7.9h11.1V60.6z M75.9,39c-1.2,0-2.1,0.9-2.1,2v19.5
		c0,1.1,0.9,2,2.1,2c1.1,0,2-0.9,2-2V41.1C77.9,39.9,77,39,75.9,39z M84.7,62.5h12.6c1,0,1.9-0.8,1.9-1.9c0-1-0.8-1.9-1.9-1.9H86.7
		V41.1c0-1.1-0.9-2-2-2c-1.2,0-2.1,0.9-2.1,2v19.3C82.6,61.6,83.5,62.5,84.7,62.5z M101.3,60.4V41.3c0-1.2,0.9-2.1,2.1-2.1h6.6
		c7.3,0,12.4,5,12.4,11.6v0.1c0,6.5-5,11.6-12.4,11.6h-6.6C102.2,62.5,101.3,61.6,101.3,60.4z M105.4,58.7h4.6
		c4.9,0,8.1-3.3,8.1-7.8v-0.1c0-4.6-3.2-7.9-8.1-7.9h-4.6V58.7z M125.6,60.6V41.3c0-1.2,0.9-2.1,2.1-2.1h8.3c2.9,0,5.2,0.9,6.7,2.3
		c1.2,1.3,1.9,3,1.9,5v0.1c0,3.7-2.2,6-5.3,6.9l4.5,5.6c0.4,0.5,0.7,0.9,0.7,1.6c0,1.1-1,1.9-2,1.9c-0.9,0-1.5-0.4-2-1.1l-5.7-7.2
		h-5.1v6.2c0,1.1-0.9,2-2,2C126.5,62.6,125.6,61.7,125.6,60.6z M129.7,50.7h6c2.9,0,4.8-1.5,4.8-3.9v-0.1c0-2.5-1.8-3.9-4.8-3.9
		h-5.9V50.7z M150.3,62.5H164c1,0,1.8-0.8,1.8-1.8c0-1-0.8-1.8-1.8-1.8h-11.7v-6.2h10c1,0,1.8-0.8,1.8-1.8c0-1-0.8-1.9-1.8-1.9h-10
		v-6h11.5c1,0,1.8-0.8,1.8-1.8c0-1-0.8-1.8-1.8-1.8h-13.5c-1.2,0-2.1,0.9-2.1,2.1v19.1C148.2,61.6,149.1,62.5,150.3,62.5z
		 M170.8,62.6c1.1,0,2-0.9,2-2V45.9l12,15.5c0.6,0.7,1.2,1.2,2.1,1.2h0.2c1.1,0,2-0.9,2-2V41c0-1.1-0.9-2-2-2c-1.1,0-2,0.9-2,2v14.3
		l-11.6-15.1c-0.6-0.7-1.1-1.2-2.1-1.2h-0.4c-1.2,0-2.1,0.9-2.1,2.1v19.5C168.8,61.7,169.7,62.6,170.8,62.6z M209.6,49
		c-4.5-1.1-5.6-1.9-5.6-3.7v-0.1c0-1.5,1.4-2.8,3.8-2.8c1.8,0,3.6,0.6,5.3,1.8c0.3,0.2,0.7,0.3,1.1,0.3c1.1,0,1.9-0.8,1.9-1.9
		c0-0.8-0.4-1.4-0.9-1.6c-2.1-1.4-4.5-2.2-7.4-2.2c-4.6,0-7.9,2.8-7.9,6.7v0.1c0,4.3,2.8,5.7,7.7,6.9c4.3,1,5.2,1.9,5.2,3.6v0.1
		c0,1.7-1.6,2.9-4.1,2.9c-2.5,0-4.6-0.9-6.5-2.4c-0.3-0.2-0.6-0.4-1.2-0.4c-1.1,0-1.9,0.8-1.9,1.9c0,0.7,0.3,1.2,0.8,1.6
		c2.6,1.9,5.6,2.9,8.7,2.9c4.9,0,8.3-2.6,8.3-6.9v-0.1C217.1,51.9,214.5,50.2,209.6,49z M98.5,68.7c0,1,0.8,1.9,1.9,1.9h5.6v17.6
		c0,1.1,0.9,2,2.1,2c1.1,0,2.1-0.9,2.1-2V70.6h5.7c1,0,1.9-0.9,1.9-1.9c0-1-0.8-1.9-1.9-1.9h-15.5C99.4,66.8,98.5,67.7,98.5,68.7z
		 M120.2,68.7v11.5c0,6.7,3.9,10.2,9.9,10.2c6.1,0,10-3.5,10-10.4V68.7c0-1.1-0.9-2-2-2c-1.2,0-2.1,0.9-2.1,2v11.5
		c0,4.3-2.2,6.4-5.8,6.4c-3.7,0-5.9-2.3-5.9-6.6V68.7c0-1.1-0.9-2-2-2C121.1,66.7,120.2,67.6,120.2,68.7z M157.8,82.8l5.7-8.5v14
		c0,1.1,0.9,2,2,2c1.2,0,2.1-0.9,2.1-2V68.8c0-1.1-0.9-2.1-2.1-2.1h-0.4c-0.8,0-1.4,0.4-1.9,1.1l-7.1,11.1l-7-11
		c-0.4-0.6-1-1.1-1.9-1.1h-0.4c-1.2,0-2.1,0.9-2.1,2.1v19.5c0,1.1,0.9,2,2,2s2-0.9,2-2V74.4l5.6,8.5c0.4,0.7,1,1.1,1.7,1.1
		C156.9,83.9,157.4,83.5,157.8,82.8z M182.9,66.4c7.1,0,12.1,5.4,12.1,12v0.1c0,6.5-5,12-12.2,12c-7.1,0-12.1-5.4-12.1-12v-0.1
		C170.7,71.9,175.7,66.4,182.9,66.4z M182.8,70.2c-4.6,0-7.8,3.7-7.8,8.2v0.1c0,4.5,3.3,8.2,7.9,8.2c4.6,0,7.8-3.7,7.8-8.2v-0.1
		C190.7,74,187.4,70.2,182.8,70.2z M215.1,69.2c1.2,1.3,1.9,3,1.9,5v0.1c0,3.7-2.2,6-5.3,6.9l4.5,5.6c0.4,0.5,0.7,0.9,0.7,1.6
		c0,1.1-1,1.9-2,1.9c-0.9,0-1.5-0.4-2-1.1l-5.6-7.2h-5.2v6.2c0,1.1-0.9,2-2,2c-1.2,0-2.1-0.9-2.1-2V68.9c0-1.2,0.9-2.1,2.1-2.1h8.3
		C211.4,66.8,213.7,67.7,215.1,69.2z M212.9,74.4c0-2.5-1.8-3.9-4.8-3.9h-5.9v7.8h6C211.1,78.4,212.9,76.8,212.9,74.4L212.9,74.4z
		 M75.4,94.5H61.9c-1.2,0-2.1,0.9-2.1,2.1v19.3c0,1.1,0.9,2,2.1,2c1.1,0,2-0.9,2-2v-7.6h10c1,0,1.9-0.8,1.9-1.9c0-1-0.8-1.9-1.9-1.9
		h-10v-6.3h11.5c1,0,1.9-0.8,1.9-1.9C77.3,95.3,76.5,94.5,75.4,94.5z M102.7,106.1L102.7,106.1c0,6.6-5.1,12.1-12.2,12.1
		c-7.1,0-12.1-5.4-12.1-12v-0.1c0-6.5,5.1-12,12.2-12C97.7,94.1,102.7,99.5,102.7,106.1z M98.4,106.1c0-4.5-3.3-8.3-7.9-8.3
		c-4.6,0-7.8,3.7-7.8,8.2v0.1c0,4.5,3.3,8.2,7.9,8.2C95.2,114.4,98.4,110.7,98.4,106.1L98.4,106.1z M123.6,94.3
		c-1.2,0-2.1,0.9-2.1,2v11.5c0,4.3-2.2,6.4-5.8,6.4c-3.7,0-5.9-2.3-5.9-6.6V96.4c0-1.1-0.9-2-2-2c-1.2,0-2.1,0.9-2.1,2v11.5
		c0,6.7,3.9,10.2,9.9,10.2c6.1,0,10-3.5,10-10.4V96.4C125.6,95.2,124.7,94.3,123.6,94.3z M148.2,94.3c-1.1,0-2,0.9-2,2v14.3
		l-11.6-15.1c-0.6-0.7-1.1-1.2-2.1-1.2H132c-1.2,0-2.1,0.9-2.1,2.1v19.5c0,1.1,0.9,2,2,2c1.1,0,2-0.9,2-2v-14.8l12,15.5
		c0.6,0.7,1.2,1.2,2.1,1.2h0.2c1.1,0,2-0.9,2-2V96.3C150.2,95.2,149.3,94.3,148.2,94.3z M175.9,106.1L175.9,106.1
		c0,6.6-5.1,11.7-12.4,11.7h-6.6c-1.2,0-2.1-0.9-2.1-2.1V96.6c0-1.2,0.9-2.1,2.1-2.1h6.6C170.8,94.5,175.9,99.5,175.9,106.1z
		 M171.6,106.1c0-4.6-3.2-7.9-8.1-7.9h-4.6V114h4.6C168.4,114,171.6,110.7,171.6,106.1L171.6,106.1z M199.4,115.1
		c0.2,0.3,0.2,0.6,0.2,0.9c0,1.1-0.8,2-1.9,2c-1,0-1.6-0.6-2-1.4l-1.9-4.4h-11.3l-2,4.5c-0.3,0.8-1,1.3-1.9,1.3
		c-1.1,0-1.9-0.8-1.9-1.9c0-0.3,0.1-0.6,0.3-0.9l8.6-19.3c0.5-1,1.3-1.7,2.5-1.7h0.2c1.2,0,2,0.6,2.4,1.7L199.4,115.1z M192.2,108.5
		l-4.1-9.4l-4.1,9.4H192.2z M214.5,94.5h-15.5c-1.1,0-1.9,0.9-1.9,1.9c0,1,0.8,1.9,1.9,1.9h5.7v17.6c0,1.1,0.9,2,2.1,2
		c1.1,0,2.1-0.9,2.1-2V98.3h5.7c1,0,1.9-0.9,1.9-1.9C216.4,95.4,215.5,94.5,214.5,94.5z M221,94.3c-1.2,0-2.1,0.9-2.1,2v19.5
		c0,1.1,0.9,2,2.1,2c1.1,0,2-0.9,2-2V96.4C223.1,95.2,222.2,94.3,221,94.3z M250.4,106.1L250.4,106.1c0,6.6-5.1,12.1-12.2,12.1
		c-7.1,0-12.1-5.4-12.1-12v-0.1c0-6.5,5.1-12,12.2-12C245.5,94.1,250.4,99.5,250.4,106.1z M246.2,106.1c0-4.5-3.3-8.3-7.9-8.3
		c-4.6,0-7.8,3.7-7.8,8.2v0.1c0,4.5,3.3,8.2,7.9,8.2C242.9,114.4,246.2,110.7,246.2,106.1L246.2,106.1z M271.8,94.3
		c-1.1,0-2,0.9-2,2v14.3l-11.6-15.1c-0.6-0.7-1.1-1.2-2.1-1.2h-0.4c-1.2,0-2.1,0.9-2.1,2.1v19.5c0,1.1,0.9,2,2,2c1.1,0,2-0.9,2-2
		v-14.8l12,15.5c0.6,0.7,1.2,1.2,2.1,1.2h0.2c1.1,0,2-0.9,2-2V96.3C273.8,95.2,272.9,94.3,271.8,94.3z M194.2,43.6
		c0.6,0,0.9-0.4,1-0.4c0,1.3-0.9,2.5-1.9,3.3c-0.4,0.3-0.6,0.6-0.6,0.9c0,0.5,0.4,0.9,0.9,0.9c0.2,0,0.5-0.1,0.8-0.3
		c1.5-0.9,3.3-2.7,3.3-5.2c0-2-1.1-3.6-3.1-3.6c-1.4,0-2.5,1-2.5,2.4C192.2,42.7,192.9,43.6,194.2,43.6z"/>
	<path class="st1" d="M242.1,55.4L242.1,55.4l0-14.3c0-1.1,0.9-2.1,2.1-2.1c1.1,0,2.1,0.9,2.1,2.1v7.2L242.1,55.4z M257,68.8
		c-0.1-6.4-3.6-12.2-9-15.4l-2.1,3.6c4.2,2.5,6.9,7,7,11.9c0,0.1,0,0.2,0,0.3c0,1.3-0.2,2.6-0.5,3.8c-1.7,5.9-7.1,10.3-13.6,10.3
		c-7.8,0-14.1-6.3-14.1-14.1c0-5.3,2.9-10.1,7.6-12.5c0.9-0.5,1.9-0.9,2.9-1.1l0.4-0.1V41.1c0-1.1-0.9-2.1-2.1-2.1
		c-1.1,0-2.1,0.9-2.1,2.1v11.4c-6.6,2.9-10.8,9.4-10.8,16.7c0,10.1,8.2,18.3,18.3,18.3c8.8,0,16.1-6.2,17.8-14.4
		c0.3-1.2,0.4-2.5,0.4-3.8C257,69,257,68.9,257,68.8z"/>
	<path class="st2" d="M264.3,68.8h-4.1v-9.4c0-2,1.6-3.5,3.5-3.5h6V44.7c0-1.1,0.9-2.1,2.1-2.1c1.1,0,2.1,0.9,2.1,2.1V60h0h-9.5
		V68.8z M290.4,55.9h-6V44.7c0-1.1-0.9-2.1-2.1-2.1c-1.1,0-2.1,0.9-2.1,2.1V60h9.5v25.6h-25.6V73h-4.1v13.2c0,2,1.6,3.5,3.5,3.5
		h26.7c2,0,3.5-1.6,3.5-3.5V59.4C294,57.5,292.4,55.9,290.4,55.9z"/>
	<path class="st0" d="M266.6,55.9l-6.8-11.7V28c0-1.1,0.9-2.1,2.1-2.1c1.1,0,2.1,0.9,2.1,2.1v15.1l5.7,9.8v3H266.6z M278.2,67.6
		l-4.4-7.6H269l5.1,8.8H257c0,0.1,0,0.2,0,0.3c0,1.3-0.1,2.6-0.4,3.8h18.5c1.3,0,2.4-0.7,3.1-1.8C278.8,70.1,278.8,68.7,278.2,67.6z
		 M251.2,25.9c-1.1,0-2.1,0.9-2.1,2.1v15.1L235,67.6c-0.6,1.1-0.6,2.5,0,3.5c0.6,1.1,1.8,1.8,3.1,1.8h14.3c0.3-1.2,0.5-2.5,0.5-3.8
		c0-0.1,0-0.2,0-0.3h-13.8l14.2-24.7V28C253.3,26.8,252.4,25.9,251.2,25.9z"/>
	<polygon class="st2" points="97.7,145.4 273.8,145.4 273.8,122.2 80.3,122.2 	"/>
	<path class="st2" d="M112.8,152.2v8.5h-2.4v-8.5h-3.3V150h8.9v2.2H112.8z M124.1,160.7v-4.3h-4.3v4.3h-2.4V150h2.4v4.2h4.3V150h2.4
		v10.7H124.1z M135.4,160.7l-2.3-3.4h-1.8v3.4h-2.4V150h4.9c2.5,0,4,1.3,4,3.5v0c0,1.7-0.9,2.8-2.3,3.3l2.6,3.8H135.4z M135.4,153.6
		c0-1-0.7-1.5-1.8-1.5h-2.3v3.1h2.4C134.7,155.2,135.4,154.6,135.4,153.6L135.4,153.6z M144.7,160.9c-3.3,0-5.7-2.5-5.7-5.5v0
		c0-3,2.4-5.5,5.7-5.5c3.3,0,5.7,2.5,5.7,5.5v0C150.4,158.4,148,160.9,144.7,160.9z M148,155.3c0-1.8-1.3-3.4-3.2-3.4
		c-1.9,0-3.2,1.5-3.2,3.3v0c0,1.8,1.3,3.4,3.2,3.4C146.6,158.7,148,157.2,148,155.3L148,155.3z M156.7,160.8c-2.9,0-4.6-1.6-4.6-4.8
		V150h2.4v6c0,1.7,0.9,2.6,2.3,2.6c1.4,0,2.3-0.9,2.3-2.6V150h2.4v6C161.4,159.3,159.6,160.8,156.7,160.8z M168.7,160.9
		c-3.3,0-5.6-2.3-5.6-5.5v0c0-3,2.4-5.5,5.6-5.5c1.9,0,3.1,0.5,4.2,1.5l-1.5,1.8c-0.8-0.7-1.6-1.1-2.8-1.1c-1.7,0-3.1,1.5-3.1,3.3v0
		c0,2,1.3,3.4,3.2,3.4c0.9,0,1.6-0.2,2.2-0.6v-1.5h-2.4v-2h4.6v4.6C172.2,160.1,170.6,160.9,168.7,160.9z M182.1,160.7v-4.3h-4.3
		v4.3h-2.4V150h2.4v4.2h4.3V150h2.4v10.7H182.1z M197.5,160.7l-2.3-3.4h-1.8v3.4H191V150h4.9c2.5,0,4,1.3,4,3.5v0
		c0,1.7-0.9,2.8-2.3,3.3l2.6,3.8H197.5z M197.5,153.6c0-1-0.7-1.5-1.8-1.5h-2.3v3.1h2.4C196.8,155.2,197.5,154.6,197.5,153.6
		L197.5,153.6z M201.8,160.7V150h8.1v2.1h-5.7v2.2h5v2.1h-5v2.2h5.8v2.1H201.8z M215.6,160.8c-1.6,0-3.3-0.6-4.5-1.7l1.4-1.7
		c1,0.8,2,1.3,3.2,1.3c1,0,1.5-0.4,1.5-1v0c0-0.6-0.4-0.9-2.2-1.4c-2.2-0.6-3.5-1.1-3.5-3.3v0c0-1.9,1.6-3.2,3.7-3.2
		c1.6,0,2.9,0.5,4,1.4L218,153c-0.9-0.7-1.9-1.1-2.8-1.1c-0.9,0-1.4,0.4-1.4,0.9v0c0,0.7,0.5,0.9,2.3,1.4c2.2,0.6,3.4,1.3,3.4,3.2v0
		C219.6,159.6,217.9,160.8,215.6,160.8z M221.4,160.7V150h8.1v2.1h-5.7v2.2h5v2.1h-5v2.2h5.8v2.1H221.4z M239.4,160.7l-1-2.4H234
		l-1,2.4h-2.4l4.6-10.8h2.2l4.6,10.8H239.4z M236.2,152.7l-1.4,3.5h2.8L236.2,152.7z M249.7,160.7l-2.3-3.4h-1.8v3.4h-2.3V150h4.9
		c2.5,0,4,1.3,4,3.5v0c0,1.7-0.9,2.8-2.3,3.3l2.6,3.8H249.7z M249.7,153.6c0-1-0.7-1.5-1.8-1.5h-2.3v3.1h2.4
		C249.1,155.2,249.7,154.6,249.7,153.6L249.7,153.6z M258.9,160.9c-3.1,0-5.5-2.4-5.5-5.5v0c0-3,2.3-5.5,5.6-5.5
		c2,0,3.2,0.7,4.2,1.6l-1.5,1.7c-0.8-0.8-1.7-1.2-2.7-1.2c-1.8,0-3.1,1.5-3.1,3.3v0c0,1.8,1.3,3.4,3.1,3.4c1.2,0,2-0.5,2.8-1.2
		l1.5,1.5C262.2,160.1,260.9,160.9,258.9,160.9z M271.4,160.7v-4.3h-4.3v4.3h-2.4V150h2.4v4.2h4.3V150h2.3v10.7H271.4z"/>
	<path class="st3" d="M154.8,140.7v-13.9h10.4v2.7h-7.4v2.8h6.5v2.7h-6.5v2.9h7.5v2.7H154.8z M177.8,140.7l-6.7-8.8v8.8h-3v-13.9
		h2.8l6.5,8.5v-8.5h3v13.9H177.8z M189.1,140.7h-5.4v-13.9h5.4c4.4,0,7.4,3,7.4,6.9v0C196.4,137.7,193.4,140.7,189.1,140.7z
		 M193.3,133.8c0-2.5-1.7-4.2-4.2-4.2h-2.4v8.4h2.4C191.6,138,193.3,136.3,193.3,133.8L193.3,133.8z M199.1,140.7v-13.9h3v13.9
		H199.1z M215.1,140.7l-6.7-8.8v8.8h-3v-13.9h2.8l6.5,8.5v-8.5h3v13.9H215.1z M227.6,140.9c-4.3,0-7.3-3-7.3-7.1v0
		c0-3.9,3.1-7.2,7.3-7.2c2.5,0,4,0.7,5.4,1.9l-1.9,2.3c-1.1-0.9-2-1.4-3.6-1.4c-2.2,0-4,2-4,4.3v0c0,2.5,1.7,4.4,4.2,4.4
		c1.1,0,2.1-0.3,2.9-0.8v-2h-3.1v-2.6h6v6C232.1,140,230.1,140.9,227.6,140.9z M251.7,140.7l-6.7-8.8v8.8h-3v-13.9h2.8l6.5,8.5v-8.5
		h3v13.9H251.7z M260.6,129.6v2.9h6.6v2.8h-6.6v5.4h-3v-13.9h10.5v2.8H260.6z"/>
</g>
</svg>
