<?xml version="1.0" encoding="utf-8"?>
<!-- Generator: Adobe Illustrator 22.1.0, SVG Export Plug-In . SVG Version: 6.00 Build 0)  -->
<svg version="1.1" id="Layer_3" xmlns="http://www.w3.org/2000/svg" xmlns:xlink="http://www.w3.org/1999/xlink" x="0px" y="0px"
	 viewBox="0 0 800 800" style="enable-background:new 0 0 800 800;" xml:space="preserve">
<style type="text/css">
	.st0{fill:#FFFFFF;}
	.st1{fill:#FFFFFF;stroke:#000000;stroke-width:3.6943;stroke-linecap:round;stroke-linejoin:round;}
	.st2{fill:#FFFFFF;stroke:#000000;stroke-width:3.6943;stroke-miterlimit:10;}
	.st3{fill:#FFFFFF;stroke:#000000;stroke-width:1.2314;stroke-miterlimit:10;}
	.st4{opacity:0.6;}
	.st5{fill:#202020;}
	.st6{fill:none;}
</style>
<g>
	<path class="st0" d="M688.5,605c-2.8,0-6.6-0.6-8.7-3.3c-5.4-7.3,5.2-24.7,23.2-38.2c12.1-9,25.3-14.6,34.5-14.6
		c2.8,0,6.6,0.6,8.7,3.3c2.5,3.3,1.6,9.2-2.5,16.2c-4.3,7.4-11.7,15.2-20.7,22C711,599.4,697.7,605,688.5,605z"/>
	<path d="M737.6,550.4L737.6,550.4c2.5,0,5.8,0.5,7.5,2.7c4.3,5.8-4,22-22.9,36.1c-11.8,8.8-24.7,14.3-33.6,14.3
		c-2.5,0-5.8-0.5-7.5-2.7c-4.3-5.8,4-22,22.9-36.1C715.8,555.9,728.7,550.4,737.6,550.4 M737.6,547.4c-9.2,0-22.6,5.4-35.4,14.9
		c-19,14.2-29.5,32.2-23.5,40.3c2,2.6,5.4,3.9,9.9,3.9c9.2,0,22.6-5.4,35.4-14.9c19-14.2,29.5-32.2,23.5-40.3
		C745.5,548.7,742,547.4,737.6,547.4L737.6,547.4z"/>
</g>
<g>
	<path class="st0" d="M275.9,337.4c-13.6,0-26.6-4-37.8-11.6l-0.2-0.1l-0.2,0.1c-13.8,4.1-28.5,6.2-43.7,6.2
		c-60.1,0-109-33.4-109-74.5c0-16.7,7.9-32.6,23-45.7l0.8-0.7l-1.1-0.1c-52.3-6.2-90.2-37.1-90.2-73.4c0-41.1,48.9-74.5,109-74.5
		s109,33.4,109,74.5c0,16.7-7.9,32.6-23,45.7l-0.8,0.7l1.1,0.1c52.3,6.2,90.2,37.1,90.2,73.4c0,23.8-16.9,46.4-45.2,60.4l-0.9,0.4
		l0.9,0.4c9.4,4.7,19.9,7.1,30.4,7.1c13.9,0,27.6-4.3,38.9-12.2c-1.1,1.3-2.2,2.5-3.3,3.6C311,330.3,294,337.4,275.9,337.4z"/>
	<path d="M126.5,63.5c59.8,0,108.5,33.2,108.5,74c0,16.6-7.9,32.3-22.8,45.4l-1.7,1.5l2.2,0.3c24.9,3,47.7,11.9,64.1,25.1
		c16.5,13.3,25.6,30.3,25.6,47.7c0,11.9-4.2,23.7-12.2,34.1c-7.8,10.2-19.1,19.1-32.7,25.9l-1.8,0.9l1.8,0.9
		c9.4,4.7,20,7.2,30.6,7.2c12.7,0,25.3-3.6,36-10.2c-0.2,0.3-0.5,0.5-0.7,0.8c-12.6,12.9-29.5,19.9-47.5,19.9
		c-13.5,0-26.4-4-37.5-11.6l-0.4-0.3l-0.5,0.1c-13.8,4.1-28.4,6.2-43.6,6.2c-59.8,0-108.5-33.2-108.5-74c0-16.6,7.9-32.3,22.8-45.4
		l1.7-1.5l-2.2-0.3c-24.9-3-47.7-11.9-64.1-25.1C27.1,171.9,18,154.9,18,137.5C18,96.7,66.6,63.5,126.5,63.5 M126.5,62.5
		C66,62.5,17,96.1,17,137.5c0,37,39.2,67.8,90.6,73.9c-14.5,12.7-23.1,28.7-23.1,46.1c0,41.4,49,75,109.5,75
		c15.6,0,30.4-2.2,43.9-6.3c11.4,7.8,24.7,11.7,38,11.7c17.5,0,35-6.8,48.2-20.2c2.1-2.1,4-4.3,5.7-6.7
		c-12.2,9.6-26.9,14.4-41.7,14.4c-10.3,0-20.7-2.4-30.1-7.1c27.6-13.6,45.5-35.8,45.5-60.9c0-37-39.2-67.8-90.6-73.9
		c14.5-12.7,23.1-28.7,23.1-46.1C236,96.1,186.9,62.5,126.5,62.5L126.5,62.5z"/>
</g>
<g>
	<ellipse cx="485.7" cy="760.2" rx="261.3" ry="11.8"/>
</g>
<path class="st1" d="M756.7,576.3c-3.6-1.7-7.9-3.5-12.3-5.2l-1.5-0.3c0,0,0-0.1,0.1-0.2c-7.3-2.8-14.8-5.2-20-6.5
	c-1.3,1.1-2.6,2.2-3.9,3.4c-5.2,4.8-11.8,12.6-17.5,20.5c6.9,1.8,13.2,4.6,14.7,6.6c1.6,2.2-6.3,13.9-12.9,20.6
	c5.6,2,13.5,3.8,23.9,4c11.1,0.3,19.5,0.1,26.5,0.4c4.2-5.8,11.3-16.1,12.8-22.2C768.8,588.5,769.4,582.4,756.7,576.3z"/>
<g>
	<path class="st1" d="M443.5,83.9c6.3,7.1,11.9,9,16.3,9.2c0.1,0,0.2-0.1,0.3-0.1c0,0,0.6-0.4,1.4-0.8c0.7-0.5,1.3-1.2,1.7-2.1
		c4.5-10.7,12.4-11.7,14.5-11.4c2.3-12.4,3.9-39.6-20.7-55.5c-32.5-21.2-84.3-4.9-105.3,23.4c-16.7,22.5-23,51.8-37.5,64.2
		c-11.9,10.2-29.7,16.6-39.8,14.6c0,0-5.6-7.2-4.8-16.3c0,0-3.5,6.9-2.6,12.3c0,0-4.6-7.2-3.2-13.6c0,0-9.4,20.1,14.1,25.8
		c0,0-9.1-0.4-12.3-2.6c0,0,3.5,7.1,13,10.7c9.5,3.6,19.3,2.4,19.3,2.4c2.6,2.8,27.4,16.1,54.8-10.8c0,0,3.1,4.4,11.4-2.8
		c8.3-7.2,14.2-19.4,18.9-29.4c1.5-3.2,5-6.8,9.4-10.3c3.7-5.7,8.9-10,14.7-13.8C420.5,68.2,437.1,76.7,443.5,83.9z"/>
</g>
<path class="st1" d="M358.1,302.8l-0.9,7c0,0.7-0.1,1.5-0.1,2.3c0.4,3.4,2.9,15.3,20.6,18.7c20,3.8,26.1-7.8,26.5-8.7
	c0.2-1.1,0.4-2.2,0.6-3.3l0.2-0.9c0,0,0,0,0,0c3.1-12.7,11-22.8,11-22.8c3.1,0.1,6,0.5,9.4-0.8c3.6,0.6,8.5-0.8,8.5-0.8
	c0.1,2,3.3,3.4,4.5,2.9c1.2-0.5,7.3-0.5,10-0.2c2.8,0.2,7.7-2.6,11.8-7.8c4.1-5.2,6.7-10.1,6.7-12.5c0-2.4-0.7-5.4-0.7-5.4
	s2.3-3.3,4.7-7.5c2.3-4.2,2.4-8.1,0-11.9c-2.4-3.8-17.9-23.8-20.7-26.6c-2.8-2.7-6.3-0.6-8.9,0.6c-2.6,1.2-6.5,1.1-9.4-0.6
	c-1.6-0.9-7.2-0.1-11.8,2.7c-3.5-1.5-7.7-2.7-8.9-1.8c-2.7,2-7.3,4.3-9.8,5c-1.8-1.5-9.8,0.5-16.5,3.2c-6.7,2.7-12.7,14.4-16,21.4
	c-1,2.2-8.5,34.2-10.7,47.9C358.1,302.8,358.1,302.8,358.1,302.8z"/>
<path id="boot_back_1_" class="st1" d="M426.9,588.9c-1.2-0.8-2.2,0.6,0,3.3c3.4,4.2,8.6,9.2,22.4,17.4
	c10.6,6.3,22.8,10.8,27.8,15.8c5,5,12.5,15.4,14.5,32c0,0-14.5,6.6-34.9,10.8c-20.3,4.2-57.3,14.9-70.1,20.8
	c-12.9,5.8-39.8,22-48.6,29.5c-8.7,7.5-27,30.7-31.1,37.8c-4.2,7.1-5.8,10-10,10.4c-4.2,0.4-24.1-2.1-31.1-9.1s-8.7-14.9-8.3-17.4
	c0.4-2.5,10.4-20.8,19.5-32.4c9.1-11.6,22.5-26.5,27.1-30.3c4.6-3.7,2.2-2.5,2.2-2.5s2.4-4.5,2-7.8c-0.4-3.3,0.3-6,4.6-13.7
	c3.2-5.9,3.2-5,6.1-7.5c2.9-2.5,5.4-2.9,7.1-0.8c1.7,2.1,12,8.3,19.5,8.3c0,0,0.8-7.1,4.2-7.5c3.3-0.4,3.7,0.8,4.2,2.9
	c0.4,2.1,2.1,4.6,3.7,0c1.7-4.6,3.7-7.5,7.9-9.1c4.2-1.7,12.9-10.8,19.9-18.3s25.3-25.3,31.1-29.9c4.8-3.8,7.6-6.1,12.5-2.8
	C430,589.3,426.9,588.9,426.9,588.9z"/>
<g>
	<path class="st0" d="M637.2,565c-1.8,0-7.2,0-8.4-1.6c-0.3-0.3-0.6-0.7-0.9-1.1c-1.6-2-3.4-4.2-2.5-6.3c1.1-2.9,4.5-19.2,4.9-25.4
		c0.2-2.6,0.4-5,0.5-7.2c0.4-5.1,0.7-8.8,0.3-11.2c-0.2-1.5,0.5-3.6,2-5.3c1.5-1.7,3.2-2.7,4.8-2.7c0,0,0.5,0,0.7,0
		c5.6,0,14.1-2.2,19.6-4.2c2.4-0.9,4.3-1.6,5.9-2.2c3.2-1.2,5.1-2,6.2-2c0.2,0,0.4,0,0.6,0.1l0.3,0.1c1.2,0.4,4.8,1.6,5.2,2.2
		c4.3,7.3,7.4,39.2,6.8,46.7c-0.5,7-2,8.8-6.9,11.2c-5.3,2.6-18.3,7.8-29.8,8.5C643.4,564.8,640.1,565,637.2,565
		C637.2,565,637.2,565,637.2,565z M645.6,522.3c0.8,5.5,0.7,18.6-0.4,24.5l-0.1,0.5l0.5,0.1c0.1,0,1.6,0.1,3.9,0.1
		c3.7,0,9.2-0.4,14-2c3.7-1.3,6-2.5,5.3-9.5c-0.6-6.7-1.9-17.5-1.9-17.6l-0.1-0.6l-0.6,0.2c0,0-4.2,1.4-8.7,2.3l-0.8,0.1
		c-3.1,0.6-7.4,1.3-9.7,1.3c-0.3,0-0.6,0-0.8,0l-0.7-0.1L645.6,522.3z"/>
	<path d="M670.4,496.4c0.2,0,0.3,0,0.4,0.1l0.3,0.1c1.1,0.4,4.4,1.4,4.9,2c4.2,7.2,7.3,39.1,6.8,46.4c-0.5,6.8-2,8.5-6.6,10.8
		c-5.2,2.6-18.2,7.7-29.6,8.4c-3.2,0.2-6.6,0.4-9.4,0.4c-5.8,0-7.5-0.8-8-1.4c-0.3-0.4-0.6-0.7-0.9-1.1c-1.5-1.9-3.2-4-2.5-5.8
		c1.2-2.9,4.6-19.4,5-25.5c0.2-2.6,0.4-5.1,0.5-7.2c0.4-5.1,0.7-8.9,0.3-11.3c-0.2-1.3,0.5-3.3,1.9-4.9c1.3-1.6,3-2.5,4.5-2.5l0.1,0
		c0.2,0,0.4,0,0.6,0c5.7,0,14.2-2.2,19.7-4.2c2.4-0.9,4.3-1.6,5.9-2.2C667.5,497.1,669.3,496.4,670.4,496.4 M646.9,521.3
		c-0.3,0-0.5,0-0.7,0l-1.3-0.2l0.2,1.3c0.8,5.4,0.7,18.5-0.4,24.4l-0.2,1.1l1.1,0.1c0.1,0,1.6,0.1,3.9,0.1c3.8,0,9.3-0.4,14.1-2.1
		c4-1.4,6.3-2.8,5.7-10c-0.6-6.7-1.9-17.5-1.9-17.6l-0.1-1.2l-1.2,0.4c0,0-4.2,1.4-8.7,2.2l-0.8,0.1
		C653.4,520.5,649.1,521.3,646.9,521.3 M670.4,495.4c-1.8,0-5.1,1.6-12.3,4.3c-5.9,2.2-14.2,4.2-19.4,4.2c-0.2,0-0.4,0-0.5,0
		c0,0-0.1,0-0.1,0c-4,0-7.9,5.3-7.3,8.6c0.6,3.3-0.3,9.4-0.8,18.3c-0.4,6.2-3.8,22.5-4.9,25.2c-1.1,2.8,1.8,5.6,3.4,7.8
		c1,1.4,4.3,1.8,8.8,1.8c2.7,0,6-0.2,9.4-0.4c10.8-0.6,23.6-5.3,30-8.5c5-2.5,6.6-4.4,7.2-11.6c0.6-7.2-2.5-39.6-6.9-47
		c-0.4-0.8-4.2-1.9-5.8-2.5C670.9,495.4,670.6,495.4,670.4,495.4L670.4,495.4z M646.9,522.3c2.5,0,7.3-0.9,10.6-1.5
		c4.6-0.8,8.8-2.3,8.8-2.3s1.3,10.8,1.9,17.6c0.6,6.8-1.5,7.8-5,9c-4.8,1.7-10.2,2-13.8,2c-2.3,0-3.8-0.1-3.8-0.1
		c1.2-6.2,1.2-19.5,0.4-24.7C646.3,522.2,646.6,522.3,646.9,522.3L646.9,522.3z"/>
</g>
<g>
	<path class="st1" d="M449.3,609.7c-0.9-0.5-1.7-1-2.6-1.6C447.5,608.6,448.4,609.1,449.3,609.7z"/>
	<path class="st1" d="M446.7,608.1c-0.8-0.5-1.6-1-2.3-1.5C445.1,607.1,445.9,607.6,446.7,608.1z"/>
	<path class="st1" d="M497.1,586.3c-10.7,0.9-24.3-0.1-33.2-11.1c-11.6-14.4-2.2-28.8-2.2-28.8c6.8,2.7,15.5,2.5,23.8,1
		c-8.8-9-3.3-17.6-3.3-17.6c8.3-7.7,23.8-6.4,28.8-6.1c4.9,0.3,8.8-1.7,11.4-4.6c-3.2-5.9-2.8-9.5-2.8-9.5s2.8-3.9,5.5-10
		c2.8-6.1,3-16,3.3-20.5c0.3-4.4,3.9-6.6,6.6-7.2c0,0,0.1,0.4,0.2,1.1c-1.3-18.4-4.7-44-13.3-62.6c-15.7-33.7-28.8-47.6-45.9-55.3
		c-0.1,0-0.2-0.1-0.2-0.1c-11.7-1.4-23.1,0.7-29.5,0.7c-11.3,0.1-24.9,2-38.2,3.3c-28.9,25.3-65.9,53.9-87.5,66.3
		c-59,34-117.3,59.8-237.7,63.9c-42.2,2.5-67.5,25.7-70.5,65.6c14.3-3.9,33-13.3,59.8-16.6c0,0,0.5,22.7,11,43.2
		c13.8,26.9,46.9,28.5,58,27.4c16.1-1.7,43.1-18.7,59.8-30.7c19.2-14.1,44.8-25.5,54.4-15.8c10.7,10.8,5.2,28.8,24.5,41.5
		c17.6,11.6,50.4,2.3,57.5-2.5c16.4-11.1,33.1-11.2,43-9.4c7.3,1.3,14,6.8,22.2,12.1c5.7-5.5,11.2-10.6,13.9-12.7
		c4.7-3.7,7.5-6,12-3.1c0.2,0.1,0.3,0.2,0.5,0.3c1,0.7-2.1,0.3-2.1,0.3c-1.2-0.8-2.2,0.6,0,3.3c2.9,3.7,7.3,7.9,17.5,14.4
		C465.3,603.5,484,594.3,497.1,586.3z"/>
</g>
<path class="st1" d="M535.3,591.3c-5.5-7.2-18.8-7.7-29.3-6.1c-2.5,0.4-5.5,0.9-8.9,1.1c-13.2,8-31.8,17.2-52.8,20.3
	c1.5,1,3.1,2,4.9,3c10.6,6.3,22.8,10.8,27.8,15.8c1.9,1.9,4.2,4.7,6.4,8.3c14.1-6.6,36-18.6,55.3-36.1
	C537.7,595.1,536.6,593,535.3,591.3z"/>
<g>
	<path class="st2" d="M625,555.8c1.1-2.8,4.5-19.1,4.9-25.2c0.5-7.2,1.1-12.6,1-16.1c-17.5,2.9-36.3,2.4-55.4-2.1
		c-31.8-7.5-39.6-22.4-39.6-22.4s0-5.5,0-10c0-4.4-0.8-8-0.8-8c-2.8,0.6-6.4,2.8-6.6,7.2c-0.3,4.4-0.6,14.4-3.3,20.5
		c-2.8,6.1-5.5,10-5.5,10s-1.1,11.1,18,26.6c17.9,14.5,51.5,24.9,88.5,24.3C625,559,624.3,557.4,625,555.8z"/>
	<path class="st2" d="M663.3,545c3.5-1.2,5.6-2.2,5-9c-0.6-6.8-1.9-17.6-1.9-17.6s-4.2,1.5-8.8,2.3c-3.7,0.7-9.4,1.7-11.5,1.5
		c0.8,5.2,0.8,18.5-0.4,24.7C645.6,546.9,655.4,547.8,663.3,545z"/>
	<path class="st2" d="M702.7,487c0.5-7.2,4.3-16.2,4.1-22.3c-0.2-5,0-8.9-1.7-10.2c0,0-1.4,6.1-3.6,10.2c0.1,5.1-1.8,6.9-6.3,15.8
		c-3.3,5.6-10.8,11.9-18.7,17c0.2,0.1,0.4,0.3,0.4,0.4c3.9,6.7,6.8,33,7,43.8c4.6-4,7.6-7.9,10.5-11.3c8-9.5,9.9-17.9,8.9-24.1
		C702.4,501.4,702.1,494.3,702.7,487z"/>
</g>
<path id="boot_front_2_" class="st1" d="M783.1,623.6c-1.7-1.8-14.6-6.6-8.9-4c3.6,2,7.5,4.7,7.5,5.7c-0.1,1.2-2.7-0.3-3.1-0.5
	c-6.8-2.8-11-3.7-12.7-4c-9.2-1.8-20.3-1.1-38.5-1.5s-29-5.5-32.5-8.4c-1.9-1.5-1.5-2.5-0.1-2.8c1.5-0.1,4,1.2,5.2,1.7
	c1.2,0.5-2.1-2-3.2-2.4c-0.7-0.3-1.7-0.4-2.4-0.4c0,0,0,0,0,0c-0.2,0-0.4,0-0.5,0c-0.1,0-0.1,0-0.2,0c0,0-0.1,0-0.1,0l0,0
	c-0.2,0-0.4,0.1-0.6,0.2c-2.1,0.8-5.8,6.2-10.8,12.9c-5,6.6-30.3,35.3-40.7,48.6c-10.4,13.3-18.7,29.1-23.7,38.2
	c-3.5,6.4-19.9,35.7-21.2,39.4s-2.5,6.2,1.7,7.9s13.7,2.9,19.9,0.8s14.9-4.2,23.7-2.9c8.7,1.2,18.7,5.8,21.6,7.1s12.9,2.5,24.5,3.3
	c11.6,0.8,37.4-2.5,44-5.8s17.8-18.3,18.7-25.7c0.8-7.5-6.2-10.4-9.5-11.6s-9.1,2.9-13.3,5.4c-4.2,2.5-8.3,1.7-14.1,1.2
	s-17.8-0.4-21.6-1.2c-3.7-0.8-5.8-1.7-5.8-1.7c3.3,0,4.2-1.7,2.5-3.7s-5-2.9-5-2.9c2.5,0,5.8-0.8,6.2-3.3
	c0.4-2.5,8.3-10.4,24.5-24.1c16.2-13.7,56.4-46.9,64.7-53.1C787.5,629.6,785.6,626.2,783.1,623.6z"/>
<path class="st1" d="M747.8,537.6c-2.5,0-5.1,4.6-13.2,5.8c-0.2-4.4-2.5-8.3-10.6-9.2c-9.4-1-18.1-8-22.5-15.4
	c-1.4,3.6-3.7,7.5-7.2,11.6c-2.9,3.5-5.9,7.3-10.5,11.3c0,1.3,0,2.4-0.1,3.2c-0.6,7.2-2.2,9.1-7.2,11.6c-6.3,3.2-19.2,7.9-30,8.5
	c-9.3,0.5-16.6,0.8-18.3-1.5c-0.7-0.9-1.6-2-2.4-3.1c-37,0.6-70.5-9.8-88.5-24.3c-8.3-6.7-12.7-12.6-15.2-17.1
	c-2.6,2.9-6.6,5-11.4,4.6c-5-0.4-20.5-1.7-28.8,6.1c0,0-5.4,8.6,3.3,17.6c-8.3,1.5-17,1.7-23.8-1c0,0-9.4,14.4,2.2,28.8
	c11.6,14.4,31.5,11.6,42.1,10c10.5-1.7,23.8-1.1,29.3,6.1c5.5,7.2,7.2,23.2,23.2,27.7c16,4.4,24.3-4.4,30.4-6.1
	c6.1-1.7,15.5,0,22.7,3.9c7.2,3.9,14.9,10.5,29.3,5c14.4-5.5,20.4-10.7,29.3-6.6c5.1,2.3,17.7-4.4,23.8-15.5
	c6.1-11.1,17.2-24.9,24.9-32.1c7.7-7.2,16-12.2,21-13.3c5-1.1,8.3,1.7,7.7,5c-0.6,3.3-5,11.6-5,11.6l2.8,0.6c0,0,6.6-11.6,7.7-20.5
	C754.5,542,750.6,537.6,747.8,537.6z"/>
<path class="st1" d="M768.5,208.5c-2.1-5.8-0.9-19.2-3.4-22.5c-2.5-3.3-3.5-2.4-3.5-2.4c0.4,2.4,0.6,5.7,0.6,5.7
	c0.4,6.6-5,13.7-14.5,16.6c-11.9,3.6-19.5-0.8-19.5-0.8l-2.9-3.7c-0.4,1.7-2.1,3.7,0,7.1c1.9,3,6.7,12.6,6.7,12.6
	c-3.7,2.5-0.8,5-0.8,5c-5,6.6-18.7,13.3-28.2,16.2s-15.8,7.5-18.7,16.2c-2.9,8.7-4.7,9-10.1,14.4c-4.2,4.2-10,5.2-16.6,7.4l0,0
	c-1.3,0.4-4.2,1.5-4.2,1.5c0,0,0,0,0,0c-0.5,0.2-0.9,0.4-1.4,0.6c-0.2,0.1-0.4,0.2-0.6,0.3c-1.4-0.5-2.9-0.7-3.6-0.7
	c-0.6,1-1.3,2-2,3.2c-0.3,0.5-0.7,1.1-1,1.6c-0.1,0.2-0.3,0.4-0.4,0.6c-0.5,0.7-1,1.5-1.5,2.2c-0.4,0.6-0.8,1.1-1.3,1.7
	c-0.1,0.1-0.2,0.2-0.3,0.4c-0.5,0.5-0.9,1.1-1.4,1.6c-4.7,5-11.1,9.2-17.2,13c-7.5,4.7-24.3,10-38.7,10.5
	c-9.9,0.4-31.4,0.1-47.8-0.4c0,0,0,0,0,0c-0.7-0.2-1.4-0.3-2-0.5c-0.6-0.1-1.2-0.3-1.8-0.4c-1-0.2-2-0.4-3.1-0.6
	c-0.6-0.1-1.3-0.2-1.9-0.3c-0.7-0.1-1.3-0.2-2-0.3c-1.1-0.1-2.1-0.2-3.2-0.3c-0.6-0.1-1.3-0.1-1.9-0.1c-1-0.1-1.9-0.1-2.9-0.1
	c-0.7,0-1.3,0-2,0c-0.5,0-1.1,0-1.6,0c-0.1,0-0.1,0-0.2,0c-2.4,0-4.7,0.1-7.1,0.3c-8.8,0.7-31.4,11.4-37.6,12.6
	c-6.2,1.2-12,0.3-19.4-1.4c-7.7-1.6-17.8-0.1-25.5,5.8c-7.5,5.7-14.7,5.7-16.8,5.6c0,0,2.8-3.6-0.8-3.9c0,0,0.5-5.7,0.9-8.6
	c0.4-2.9-0.1-5.9-2.2-5.9l-0.8,4.2c0,0-5.8,12.7-26.6,8.7c-20.7-4-20.6-19.6-20.6-19.6l1.1-8.5c0,0-2.5-1.3-4.3,3.7
	c-1.7,5-4.1,28.9-4.4,33.8c-0.3,6.1,9.3,16.1,24.9,18.9c20.7,3.6,50.3-3.3,71.9-3.4c6.4,0,17.8-2.1,29.5-0.7c0.1,0,0.2,0.1,0.2,0.1
	c17.2,7.7,30.3,21.7,45.9,55.3c8.6,18.5,12,44.2,13.3,62.6c0.2,1.4,0.6,4,0.6,6.9c0,1.5,0,3.1,0,4.5c0.1,2.2,0.1,4.1,0.2,5.7
	c1.2,2,10.1,15.3,39.4,22.1c19.1,4.5,37.9,4.9,55.4,2.1c0-0.8-0.1-1.5-0.2-2.1c-0.6-3.3,3.4-8.7,7.5-8.6c5.2,0.1,13.8-1.9,19.9-4.2
	c8.3-3,11.3-4.7,13-4.2c1.4,0.5,4.3,1.4,5.4,2.1c7.9-5.1,15.4-11.4,18.7-17c4.6-8.9,6.5-10.8,6.3-15.8c1.2-2.2,2.1-4.9,2.7-7
	c19.1-75.6-4.3-130.2-19.5-148.9c4.2-8.5,14.9-21,28.2-33.5c14.9-14.1,45.3-36.9,53.6-46.9C772.7,221,770.6,214.3,768.5,208.5z"/>
<path class="st1" d="M762.3,189.3c0,0-0.1-1.8-0.3-3.6c-5.9-31.7-10.7-41.5-15.9-47.4c-4.2-4.7-7.8-9.7-9.7-12.6
	c-1.6-2.5-6.2-9.2-7.2-10.9c-1-1.7-3.5-3.5-9.2-3.7c-5.7-0.2-10.9-1.7-11.4-3.5c-0.5-1.7-1.2-5.7-5-5.4c-3.7,0.2-9.2,1.7-12.1,1.5
	c-3-0.2-7.9-1.7-9.7-1.2c-0.8,0.2-9.4,3.7-12.3,4.8c-3.3,1.2-5.4,0.8-6.6,2.7c-1.3,2-2.7,6.7-3.9,11.5c5.5,2.9,13.3,6.8,15.7,7.3
	c0,0,10.8,12.3,11.4,24.1c0.2,4.1,0.2,9.6-0.6,16c0.4,0.1,0.6,0.2,0.6,0.2s0.5-0.8,1.4-1.7c-0.7,0.7-1.7,1.9-2.3,3.7
	c-0.2,1.5-0.4,3-0.7,4.5c0,0.1,0,0.2,0,0.3c0.2,4,3.5,8.2,5.2,8.7c1.7,0.5,5-0.2,6.7-1.5c1.7-1.2,4.7-0.2,7.2,1
	c2.5,1.2,7.2,2.9,11.9,0.9c0,0,4.5,3.8,9.8,16.5l2.8,3.6c0,0,7.6,4.5,19.5,0.8C757.3,203,762.7,196,762.3,189.3z"/>
<path class="st1" d="M686.3,152.7c-0.6-11.9-11.4-24.1-11.4-24.1c-2.6-0.5-11.4-5-16.8-7.9c-1.6-0.5-5.5-1.5-11.8-0.7
	c-8.3,1-14.5,3.2-20,6.6c-3-1.1-6.9-1.7-9.4-1.3c-7.3,0.9-23.3,5-33.8,8.7c-8.2,2.9-20.9,8.5-27.2,13.9c-2.7,2.4-5.2,5.3-6.9,8.3
	c-2.4,2-4.9,3.9-7.6,5.2c-8.8,4.2-34.2,7.3-50.2,11.5c-16,4.2-40.8,7.8-58.7,16c-29.6,13.6-40.2,26.3-42.8,29.9
	c1.3,4.6,1.6,8.9,1.3,12.6c4.8-1.5,9.1-2.2,10.4-1.1c2.5-0.7,7.1-3,9.8-5c1.2-0.9,5.4,0.3,8.9,1.8c4.6-2.8,10.2-3.6,11.8-2.7
	c2.9,1.6,6.8,1.7,9.4,0.6c2.6-1.2,6.1-3.3,8.9-0.6c2.8,2.7,18.3,22.7,20.7,26.6c2.4,3.8,2.4,7.7,0,11.9c-2.3,4.2-4.7,7.5-4.7,7.5
	s0.7,3,0.7,5.4c0,2.4-2.6,7.3-6.7,12.5c-2.2,2.8-4.6,4.9-6.8,6.2c4.5,1.7,9,3,13.1,3.6c16.1,2.2,44.9-6.2,58.8-12.3
	c12.3-5.4,31.9-10,43.3-12.3c11.4-2.3,18.8-0.3,25.3,1c6.4,1.3,13.4,0.5,16.8-2.1c3.3-2.6,6.7-6.7,6.7-6.7s15.3-5.9,21.4-9.9
	c6.1-4.1,15.7-17.7,31.2-42.4C685.4,188.8,686.9,164.6,686.3,152.7z"/>
<g>
	<path class="st1" d="M389.3,184.2c0,0.1,0.1,0.2,0.1,0.3C389.3,184.4,389.3,184.3,389.3,184.2z"/>
	<path class="st1" d="M389.4,184.6c0,0.1,0.1,0.1,0.1,0.2C389.5,184.8,389.5,184.7,389.4,184.6z"/>
	<path class="st1" d="M389.1,183.7c0,0.1,0.1,0.2,0.1,0.3C389.2,184,389.2,183.8,389.1,183.7z"/>
	<path class="st1" d="M388.8,182.2c0.1,0.5,0.2,1,0.3,1.5C389,183.2,388.9,182.7,388.8,182.2z"/>
	<path class="st1" d="M388.8,181.5c0-0.1,0-0.3,0-0.4C388.8,181.2,388.8,181.4,388.8,181.5z"/>
	<path class="st1" d="M389.6,185c0,0.1,0.1,0.1,0.1,0.2C389.6,185.1,389.6,185,389.6,185z"/>
	<path class="st1" d="M389.6,178.4L389.6,178.4c-0.1,0.2-0.2,0.3-0.2,0.5C389.5,178.7,389.5,178.5,389.6,178.4z"/>
	<path class="st1" d="M389.8,185.3c0,0,0-0.1-0.1-0.1C389.7,185.3,389.8,185.3,389.8,185.3z"/>
	<path class="st1" d="M388.8,181.7c0,0.2,0,0.3,0,0.5C388.8,182,388.8,181.8,388.8,181.7z"/>
	<path class="st1" d="M386,191.3c-1-2.8,1.7-4.2,3.9-5.8c-0.1,0.1-0.2,0.2-0.3,0.2c-4.1-1.1-10.6-3.2-15-9.4
		c-12.7,0.7-23.6,6.8-28.7,10.3c-6.6,4.6-12.5,17.8-13.8,22.1c-1.2,4.3-1.9,6.4-1.9,6.4c1.7-3.2,8.3-5.1,13.2-6.5
		c4.9-1.4,20.5-0.8,30.7-2c0.9-0.1,1.8-0.3,2.7-0.5c0.4-1.1,0.9-2,1.4-2.8c2.3-3.1,8.8-8.2,12.9-9.8
		C391.1,193.5,386.7,193.2,386,191.3z"/>
	<path class="st1" d="M389.8,185.5C389.8,185.5,389.8,185.4,389.8,185.5C389.8,185.4,389.8,185.5,389.8,185.5z"/>
	<path class="st1" d="M388.9,180.4c0,0.1,0,0.3-0.1,0.4C388.8,180.7,388.9,180.6,388.9,180.4z"/>
	<path class="st1" d="M389.3,179c-0.1,0.2-0.1,0.3-0.2,0.5C389.2,179.4,389.2,179.2,389.3,179z"/>
	<path class="st1" d="M389,179.7c0,0.2-0.1,0.3-0.1,0.4C389,180,389,179.9,389,179.7z"/>
</g>
<path class="st1" d="M654.9,111.2c-3.5-0.9-8.3-0.9-8.3-0.9s0.1-2.7-4.7-4.2c-0.7-0.2-1.4-0.6-2.3-1c-1.2-14.7-8.2-31-19.2-35.3
	l-23.7,1c-7.4,0.2-29.3,3.7-50.2,8.8c-2.3,9.7-7.6,22-14.4,30.4c-10.2,12.5-32.1,25.8-35.7,26.1c0,0,8.5-11.8,14.6-23.6
	c6.1-11.9,5.7-23.2,5.7-23.2s-8.8,17.8-23.9,35c-14.2,16-33.9,30.2-33.9,30.2c5.4-5,17.9-25.1,17.9-25.1c-5.4,5-24.1,18-24.1,18
	c2.9-3.1,7-13.9,7-13.9c-4.8,8.3-16.4,17.5-25.2,24.5c-8.7,6.9-15.3,20.4-15.3,20.4c1.1-8.4,8.1-20.7,18.1-29.6
	c10-8.9,22.1-29,25.6-36.9c0.3-0.6,0.6-1.2,0.8-1.8c-5.6,2.5-10.7,4.7-14.7,6.5c-18.9,8.4-45.4,25.7-50.7,31.1
	c-5.3,5.4-2.7,8.2-3.2,13.9c-0.5,5.6-2.3,10.5-4.5,15.6c-3.8,3.8-0.8,8.5-0.8,8.5c-2.2,1.6-4.9,3-3.9,5.8c0.7,1.9,5.1,2.2,5.1,2.2
	c-4.1,1.6-10.6,6.7-12.9,9.8c-2.3,3.1-3.5,9.8-1,12.8c2.6,3.1,8.5,3.6,11.7,3.7c0,0,8.4-14.7,43.4-30.9c17.9-8.2,42.7-11.8,58.7-16
	c16-4.2,41.4-7.3,50.2-11.5c2.7-1.3,5.2-3.2,7.6-5.2c1.8-3,4.2-5.9,6.9-8.3c6.3-5.4,19-11,27.2-13.9c10.5-3.7,26.5-7.8,33.8-8.7
	c2.5-0.3,6.3,0.2,9.4,1.3c5.5-3.5,11.7-5.6,20-6.6c8.4-1,12.6,1,12.6,1C659.3,115.9,658.3,112.1,654.9,111.2z"/>
<path class="st1" d="M389.6,185.7c0.1-0.1,0.2-0.2,0.3-0.2c0,0-2.9-4.8,0.8-8.5c1.6-3.8,3.1-7.4,3.9-11.4c-1.8-5.3-4.2-11-7.1-13.9
	c-6.2-6.2-19.6-7.2-25-6.3c-5.4,0.9-5.5,3.6-5.5,3.6c2.2-2.1,6.5-0.8,8,0.8c1.5,1.7,2.3,9.2,6.7,21.2
	C375.5,181.4,384.5,184.3,389.6,185.7z"/>
<path class="st3" d="M512.2,127.3c-7.4,5.1-14,8.6-15.8,8.7c0,0,4.1-5.6,8.6-13c-3.6-1-7.5-0.9-10.8-0.4c-0.5,0.5-0.9,1.1-1.4,1.6
	c-2.6,3-5.4,5.9-8.3,8.6c-4.3,8.4-8.9,19.6-10,25.2c0,0,6.8-3.1,18.2-1.9c6.1,0.7,13,0.7,18.6,0.6c7.4-6.6,8-19.3,1.9-28.1
	C512.9,128.1,512.6,127.7,512.2,127.3z"/>
<path id="r_7_" class="st3" d="M600.5,91.3c-7-0.9-17.6,2.5-22.5,12.6c1,3.7,3.3,6,7.1,10.2c4.6,5.2,7.7,7.1,10.8,8.8
	c0,0,3.3-0.6,6.3-2.2c3.6-2,7.3-5.3,10.9-6.4c0.8-0.2,1.7-0.4,2.5-0.6C616.9,102.4,609,92.4,600.5,91.3z"/>
<g>
	<path d="M466.1,356.9c0.6,0,1.1,0,1.6,0.1c-12.9,17.7-43.7,58.2-74.3,85.8c-39.9,36-124.8,94.2-156.9,111.6
		c-6.7,3.6-14.2,8.2-22.1,13.6c-4.8,2.7-9.5,5.8-14.1,9.1c-5.8,4.2-17.5,12.3-30,19.2c-12.3,6.8-22.2,10.6-29.2,11.3
		c-1.6,0.2-3.5,0.3-5.4,0.3c-8.8,0-38.5-1.9-51.4-27c-9.9-19.4-10.8-41.1-10.9-42.5c6.4-1.2,14.7-2.5,23.9-3.8
		c14.4-2.1,30.6-4.5,45.9-7.8c2.2-0.5,4.6-1,7.3-1.5c37.4-7.6,125.1-25.4,206.7-82.2c60.1-41.8,90.4-69.9,105.3-86.1
		c0.5,0,1.1,0,1.6,0C464.8,356.9,465.4,356.9,466.1,356.9 M466.1,355.7c-1.3,0-2.7,0.1-4.1,0.1c-11.3,12.4-39.9,40.6-105.4,86.3
		c-87.4,60.9-182.1,76.9-213.6,83.6c-31.5,6.6-68.1,10-79.1,13.8l-0.1,0.2c2.7-0.5,5.6-0.9,8.5-1.3c0,0,0.5,22.7,11,43.2
		c12,23.3,38.4,27.7,52.4,27.7c2.2,0,4.1-0.1,5.6-0.3c16.1-1.7,43.1-18.7,59.8-30.7c4.4-3.2,9.2-6.3,14-9.1c7.4-5,14.8-9.7,22-13.6
		c32.6-17.7,117.3-75.8,157.2-111.8c31.8-28.7,63.9-71.4,75.6-87.6C468.6,355.8,467.4,355.7,466.1,355.7L466.1,355.7z"/>
</g>
<g>
	<path d="M492.7,453.1c-1.3,3-2.7,6.1-4.3,9.5c-8.7,18.1-24.4,44.7-49.7,68.3c-20.9,19.5-34.7,27.5-44.8,33.3
		c-5.9,3.4-10.6,6.1-14.4,9.9c-4.7,4.7-6.5,11.1-6.7,16c-0.7,0-1.4,0-2.1,0c-6.8,0-16.6,1.2-27.1,6.5c0.7-1,1.3-2,2-3
		c1.1-1.6,2.1-3.2,3.1-4.6c4.7-6.9,18.6-24.6,44.5-41.7c1-0.7,2.1-1.4,3.3-2.2C420.4,529.2,466.6,498.9,492.7,453.1 M502.6,428.8
		c-22.1,61.4-84.1,100.2-110.1,117.3c-26,17.2-39.8,34.9-44.8,42.1c-2.5,3.6-5.2,8-8.1,11.9c11.1-6.9,22.2-8.9,31.1-8.9
		c1.1,0,2.3,0,3.3,0.1c-0.1-5.2,1.7-11.8,6.3-16.4c10-10,25.7-11.9,59.2-43.2C488.8,485.8,502.6,428.8,502.6,428.8L502.6,428.8z"/>
</g>
<g id="knee_o_6_">
	<g>
		<g>
			<path d="M495.6,613.2c0,0-0.2,0.1-0.5,0.4c-0.3,0.2-0.9,0.6-1.5,1c-1.3,0.7-3.4,1.6-5.8,1.7c-0.6,0-1.2,0-1.8-0.1
				c-0.6-0.1-1.2-0.4-1.7-0.8c-1-0.8-1.2-1.9-1.2-2.7c0-1.7,0.7-2.5,0.6-2.4c-0.2,1-0.1,1.7,0.1,2.3c0.2,0.6,0.4,0.9,0.6,1.3
				c0.5,0.6,1.1,1.1,3.3,1.1c2.1-0.2,3.2-0.5,4.2-0.7C492.9,614,493.8,613.8,495.6,613.2z"/>
		</g>
	</g>
</g>
<g id="leg_o_5_">
	<g>
		<g>
			<path d="M444.1,606.5c-0.1,0,0.7-0.2,2.1-0.5c0.7-0.2,1.6-0.3,2.6-0.6c1-0.3,2.1-0.6,3.4-0.9c5-1.3,11.8-3.5,19.1-6.4
				c7.3-2.9,13.8-5.9,18.4-8.2c2.3-1.2,4.2-2.1,5.5-2.7c1.3-0.6,2-1,1.9-0.9c-6,3.5-8.7,5.1-11.8,6.7c-3,1.6-6.3,3.2-13.6,6.2
				c-7.3,2.9-11.1,3.9-14.5,4.9c-1.7,0.4-3.4,0.9-5.4,1.2c-1,0.2-2.1,0.4-3.3,0.6C447,606.1,445.6,606.3,444.1,606.5z"/>
		</g>
	</g>
</g>
<g id="stripe_3_">
	<path d="M411.8,597.5c-0.2,2.4,0.3,5.8,3.2,10c5.8,8.4,12.7,14.8,20.5,19.3c1.5,0.9,3.3,1.8,5.4,2.9c9.7,5.2,24.3,13,30.5,20.5
		c-0.1,1.7-0.7,8.2-5.1,14.5c-2.9,0.8-5.8,1.4-8.6,2c1.6-2.9,3-6.8,2.8-11.9l0-0.5l-0.4-0.3c-0.1-0.1-12.3-11.2-28.1-19.5
		c-11.2-5.9-19.1-16.3-21.4-21.4c-3-6.5-3.4-10.4-1.6-13.4l0.4-0.4l0.3-0.2L411.8,597.5 M413.6,594.6l-4.7,3.6
		c-0.3,0.3-0.5,0.5-0.8,0.8c-2.5,3.8-1.3,8.7,1.4,14.7c2.8,6.1,11.2,16.3,22,22c15.8,8.3,27.8,19.3,27.8,19.3
		c0.3,6.5-2.2,11.1-4.2,13.6c0.6-0.1,1.2-0.2,1.7-0.4c3.7-0.7,7.1-1.6,10.3-2.4c5.7-7.8,5.6-16,5.6-16c-7.5-9.3-27.7-19.1-36.5-24.1
		c-8.9-5-15.4-12.1-20.1-18.9C411.9,600.7,413,596.8,413.6,594.6L413.6,594.6z"/>
</g>
<g id="knee_o_3_">
	<g>
		<g>
			<path d="M762.3,593.8c0-0.1,0.1,1.1-0.7,2.8c-0.7,1.7-2.5,3.9-5.1,5.1c-0.6,0.3-1.3,0.6-2,0.7c-0.4,0.1-0.7,0.1-1.2,0.1
				c-0.5-0.1-0.8-0.3-1.1-0.6c-1-0.9-1.5-1.9-1.9-2.8c-0.7-1.7-0.6-2.9-0.6-2.8c0.3,1.2,0.8,1.9,1.2,2.5c0.4,0.6,0.8,1,1.2,1.4
				c0.4,0.4,0.8,0.8,1.3,1c0.1,0,0.2,0,0.4,0c0.2,0,0.4-0.1,0.6-0.1c0.4-0.1,1-0.3,1.5-0.6c1.2-0.5,1.9-1.1,2.5-1.6
				c0.3-0.2,0.6-0.5,0.8-0.7c0.2-0.2,0.4-0.4,0.7-0.6C760.6,596.6,761.5,595.9,762.3,593.8z"/>
		</g>
	</g>
</g>
<g id="stripe_2_">
	<path d="M676.2,629.2c0.4,1,1.2,2,2.4,2.7c1.9,1.2,8,4,23.7,4c3.7,0,7.6-0.2,11.9-0.5c16.2-1.2,31.5-1.8,42-1.8
		c7.1,0,10,0.3,11.1,0.6c2.6,0.6,5.1,1.7,7.6,3.4c-2.9,2.3-6.9,5.5-11.9,9.6c-1.9-1.3-5-2.8-9.8-3.4c-6.4-0.8-25.5-1.7-55.5-2.5
		c-15.6-0.4-23.6-4-24.5-4.7c-1-0.7-1.4-1.5-1.6-2.1C673.5,632.4,674.9,630.7,676.2,629.2 M677.3,626c-1.9,2.3-4.3,5.1-6.8,8
		c0.1,1.1,0.7,2.3,2.1,3.4c1.6,1.2,10.4,4.6,25.2,5c15.2,0.4,46.5,1.4,55.3,2.5c5.4,0.7,8.4,2.5,10,3.8c5.8-4.8,10.8-8.7,14-11.2
		c-2.5-2-5.8-3.8-9.4-4.6c-1.8-0.4-5.8-0.6-11.4-0.6c-10.1,0-25.4,0.6-42.1,1.8c-4.4,0.3-8.3,0.5-11.8,0.5
		c-15.2,0-21.3-2.6-23.1-3.8C677.1,629.5,676.8,627.6,677.3,626L677.3,626z"/>
</g>
<g>
	<g>
		<g>
			<path d="M589.8,604.2c0,0,0.5-0.4,1.5-1.1c0.5-0.4,1.1-0.8,1.8-1.3c0.7-0.5,1.5-1.2,2.3-1.9c3.4-2.8,7.9-7.2,11.7-12.7
				c3.9-5.5,6.4-11.2,7.7-15.4c0.7-2.1,1-3.9,1.3-5.1c0.2-1.2,0.2-1.8,0.2-1.8c0,1.5-0.2,2.8-0.4,3.9c-0.1,0.6-0.2,1.1-0.3,1.6
				c-0.1,0.5-0.2,1-0.3,1.4c-0.2,0.9-0.4,1.7-0.7,2.4c-0.2,0.7-0.5,1.4-0.7,2.1c-0.5,1.4-1.1,2.8-2,4.6c-0.5,0.9-1,1.9-1.6,3
				c-0.3,0.6-0.7,1.2-1.1,1.8c-0.4,0.6-0.9,1.3-1.3,2c-0.5,0.7-1,1.3-1.4,1.9c-0.5,0.6-0.9,1.2-1.3,1.7c-0.9,1-1.6,1.9-2.3,2.6
				c-0.7,0.8-1.4,1.4-2,2c-0.3,0.3-0.6,0.6-0.9,0.9c-0.3,0.3-0.6,0.5-0.9,0.8c-1.2,1-2.3,1.9-3.7,2.9c-0.7,0.5-1.5,1.1-2.4,1.7
				C592,602.9,591,603.5,589.8,604.2z"/>
		</g>
	</g>
</g>
<g>
	<g>
		<g>
			<path d="M624.4,592.7c0,0-0.2-0.2-0.6-0.6c-0.4-0.4-0.9-1.2-1.2-2.2c-0.7-2.1-0.7-5.1,0-8.2c0.7-3.1,1.7-5.9,2.5-7.8
				c0.4-1,0.8-1.7,1-2.2c0.3-0.5,0.4-0.8,0.4-0.8c-0.9,2.6-1.2,3.9-1.6,5.2c-0.3,1.3-0.8,2.7-1.5,5.8c-0.6,3.1-0.6,4.6-0.6,6
				c0,0.7,0.1,1.4,0.2,2.1C623.3,590.7,623.6,591.6,624.4,592.7z"/>
		</g>
	</g>
</g>
<g>
	<g>
		<g>
			<path d="M669.2,590.1c0,0,0-0.4-0.2-1.1c-0.2-0.7-0.5-1.8-0.9-3.1c-0.8-2.6-2.1-6.2-3.3-10.2c-0.6-2-1.3-3.9-1.4-5.8
				c-0.2-1.9,0-3.5,0.2-4.9c0.2-1.4,0.6-2.5,0.8-3.2c0.2-0.7,0.4-1.1,0.4-1.1c-0.5,1.8-0.6,3.1-0.7,4.2c-0.1,1.1-0.1,2,0,2.9
				c0,0.9,0.1,1.8,0.4,3c0.2,1.2,0.7,2.6,1.3,4.6c1.3,4,1.9,6,2.3,7.8c0.2,0.9,0.4,1.8,0.6,2.9C668.9,587.2,669.2,588.4,669.2,590.1
				z"/>
		</g>
	</g>
</g>
<g>
	<g>
		<g>
			<path d="M683.1,581.9c0,0-0.2-0.2-0.7-0.6c-0.5-0.4-1.1-1-1.8-1.9c-1.4-1.7-2.9-4.4-4-7.6c-1-3.2-1.4-6.2-1.6-8.4
				c-0.1-1.1-0.1-2-0.1-2.6c0-0.6,0-0.9,0.1-0.9c0.3,2.9,0.7,4.2,0.9,5.6c0.3,1.4,0.6,2.9,1.6,6c1.1,3.1,1.8,4.5,2.5,5.8
				C680.7,578.6,681.2,579.9,683.1,581.9z"/>
		</g>
	</g>
</g>
<g>
	<g>
		<g>
			<path d="M711.3,552.8c0,0-0.3,0.1-0.9,0.2c-0.6,0.1-1.6,0.3-2.8,0.3c-0.3,0-0.6,0-0.9,0c-0.3,0-0.7,0-1-0.1
				c-0.4,0-0.7-0.1-1.1-0.1c-0.4-0.1-0.8-0.2-1.1-0.2c-0.8-0.1-1.6-0.5-2.4-0.8c-0.8-0.4-1.6-0.8-2.3-1.4c-1.5-1.1-2.6-2.5-3.4-3.9
				c-0.8-1.4-1.2-2.8-1.4-4c-0.4-2.4,0-3.8-0.1-3.8c0,1.6,0.3,2.7,0.5,3.6c0.2,0.4,0.3,0.8,0.4,1.2c0.2,0.4,0.3,0.7,0.5,1
				c0.3,0.7,0.7,1.4,1.3,2.2c0.3,0.4,0.7,0.8,1.1,1.4c0.2,0.2,0.5,0.5,0.8,0.7c0.3,0.3,0.6,0.5,0.9,0.8c0.7,0.5,1.4,0.9,1.9,1.2
				c0.6,0.3,1.2,0.5,1.6,0.7c1,0.3,1.8,0.5,2.6,0.6c0.4,0.1,0.8,0.1,1.2,0.2c0.4,0,0.8,0.1,1.3,0.1
				C708.8,553,709.8,552.9,711.3,552.8z"/>
		</g>
	</g>
</g>
<g>
	<g>
		<g>
			<path d="M718.5,536.5c0,0-0.3,0-0.8-0.1c-0.5-0.1-1.3-0.1-2.3-0.4c-1.9-0.4-4.6-1.2-7.1-2.8c-1.3-0.8-2.4-1.8-3.2-2.7
				c-0.9-1-1.5-2-2-2.8c-0.5-0.9-0.7-1.6-0.9-2.1c-0.2-0.5-0.2-0.8-0.2-0.8c1.2,2.3,2,3.2,2.8,4.1c0.9,0.9,1.7,1.9,4.1,3.5
				c1.2,0.7,2.2,1.2,3,1.6c0.4,0.2,0.8,0.3,1.1,0.5c0.3,0.1,0.6,0.3,1,0.4C715,535.4,716.2,535.9,718.5,536.5z"/>
		</g>
	</g>
</g>
<g>
	<g>
		<g>
			<path d="M485.7,547.5c0.1,0-0.6-0.4-1.5-1.5c-0.9-1.1-2.2-2.8-3.1-5.3c-0.4-1.2-0.8-2.6-0.9-4.2c-0.1-1.6,0.1-3.3,0.8-4.9
				c0.4-0.8,0.8-1.6,1.4-2.3c0.6-0.7,1.3-1.4,2-2c1.5-1.2,3.4-2,5.3-2.6c7.7-2.2,15-1.7,20.1-1.2c2.6,0.1,4.6-0.1,6-0.4
				c1.4-0.3,2.1-0.7,2-0.6c-1.6,0.7-3,1.1-4.3,1.3c-1.3,0.2-2.5,0.2-3.5,0.2c-2.1,0-3.7-0.1-5.4-0.1c-1.7,0-3.4,0-5.7,0.2
				c-2.3,0.2-5.1,0.5-8.8,1.6c-3.7,1.1-6,2.9-7.3,4.8c-0.7,0.9-1.1,1.9-1.3,2.8c-0.3,0.9-0.4,1.8-0.4,2.6c-0.1,1.7,0.2,3.4,0.8,5.3
				c0.3,1,0.7,2,1.3,3.1C483.7,545.3,484.5,546.5,485.7,547.5z"/>
		</g>
	</g>
</g>
<g>
	<g>
		<g>
			<path d="M680.7,133.8c0,0,0-0.1,0.1-0.4c0.1-0.3,0.3-0.6,0.5-1.1c0.4-0.9,1.1-2.1,1.9-3.3c0.8-1.2,1.6-2.3,2.3-3
				c0.3-0.4,0.6-0.7,0.7-0.9c0.2-0.2,0.3-0.3,0.3-0.3c-0.3,1.3-0.5,1.9-0.7,2.5c-0.2,0.6-0.6,1.2-1.4,2.5
				C682.8,132.4,682.6,132.2,680.7,133.8z"/>
		</g>
	</g>
</g>
<g>
	<g>
		<g>
			<path d="M717.1,153.6c0,0,0.1,0,0.3-0.1c0.2,0,0.5-0.1,0.8-0.1c0.7,0,1.7,0.2,2.6,0.7c0.9,0.5,1.6,1.3,1.9,1.9
				c0.2,0.3,0.3,0.6,0.3,0.8c0.1,0.2,0.1,0.3,0.1,0.3c-0.7-0.5-1.1-0.7-1.5-0.9c-0.4-0.2-0.7-0.4-1.5-0.9c-0.8-0.4-1.2-0.6-1.6-0.8
				C718.2,154.3,717.8,154,717.1,153.6z"/>
		</g>
	</g>
</g>
<g>
	<g>
		<g>
			<path d="M690.4,165.8c0,0-0.2-0.4-0.6-1.2c-0.4-0.8-0.9-2-1.5-3.5c-0.3-0.8-0.5-1.6-0.7-2.6c-0.1-0.5-0.2-1-0.1-1.6
				c0.1-0.6,0.3-1.1,0.5-1.6c0.8-2,2-4,3-6.2c1.1-2.1,2-4.2,2.9-6.1c0.9-1.9,1.7-3.6,2.3-5.1c0.6-1.5,1-2.7,1.2-3.5
				c0.2-0.8,0.1-1.3,0.1-1.3c0.2,1,0,2-0.2,2.8c-0.2,0.8-0.3,1.5-0.5,2.1c-0.3,1.2-0.7,2.2-1,3.2c-0.3,1-0.7,2-1.3,3.3
				c-0.6,1.3-1.2,3-2.3,5.1c-1.1,2.1-2,3.7-2.7,5c-0.3,0.6-0.6,1.2-0.8,1.7c-0.1,0.3-0.2,0.5-0.2,0.7c0,0.2,0,0.5,0,0.7
				c0.1,1,0.3,2,0.5,3.2C689.3,162.5,689.7,163.9,690.4,165.8z"/>
		</g>
	</g>
</g>
<g>
	<g>
		<g>
			<path d="M711.8,159.1c0,0,0-0.3,0.2-1c0.1-0.3,0.2-0.7,0.4-1.1c0.2-0.4,0.3-0.9,0.8-1.5l-0.1,0.1c0.3-0.5,0.6-1,0.9-1.4
				c0.3-0.4,0.6-0.9,0.6-1.3c0-0.3-0.1-0.7-0.3-1l0.1,0.1c-0.4-0.4-0.9-0.5-1.5-0.4c-0.6,0-1.2,0.1-1.7,0.2c-1,0.2-1.6,0-1.6,0
				c0.7-0.1,1.1-0.4,1.5-0.6c0.4-0.2,0.8-0.4,1.1-0.5c0.4-0.1,0.7-0.2,1.2-0.3c0.5,0,1.1,0.1,1.7,0.6l0.1,0l0,0
				c0,0.1,0.2,0.2,0.4,0.6c0.2,0.3,0.4,0.9,0.3,1.5c-0.1,0.6-0.3,1-0.5,1.4c-0.2,0.3-0.4,0.6-0.6,0.8c-0.3,0.4-0.6,0.7-0.8,0.9
				l-0.1,0.1c-0.3,0.3-0.6,0.7-1,1.1C712.7,157.8,712.3,158.3,711.8,159.1z"/>
		</g>
	</g>
</g>
<g>
	<g>
		<g>
			<path d="M719.8,145.9C719.8,145.9,719.8,145.9,719.8,145.9c0.1-0.1,0.3,0,0.4,0.1c0.1,0.3,0.1,0.6,0.1,1c-0.1,0.8-0.4,1.8-1,2.7
				c-0.5,0.7-0.9,1.3-1.6,1.8l0.1,0c-0.4,0.3-1,0.6-1.3,0.5c-0.4,0-0.5-0.1-0.5-0.1c0.5-0.1,0.7-0.4,0.8-0.6
				c0.1-0.2,0.2-0.4,0.3-0.6l0.1,0c0.2-0.3,0.4-0.8,1-1.7c0.5-0.9,0.8-1.4,1.1-1.7c0.1-0.2,0.3-0.4,0.5-0.6c0.1-0.1,0.2-0.2,0.3-0.4
				c0-0.1,0.1-0.2,0.1-0.2C720,146,720,145.9,719.8,145.9z"/>
		</g>
	</g>
</g>
<g>
	<g>
		<g>
			<path d="M730.6,177.3c0,0-0.2,0.2-0.5,0.6c-0.3,0.4-0.8,1-1.5,1.7c-1.4,1.4-3.5,3.2-6.3,4.4c-2.8,1.3-5.5,1.6-7.4,1.7
				c-1,0.1-1.8,0.1-2.3,0c-0.5,0-0.8,0-0.8,0c2.5-0.6,3.7-0.9,4.9-1.3c0.6-0.2,1.2-0.4,2-0.6c0.8-0.3,1.8-0.6,3.1-1.2
				c2.6-1.2,3.7-2,4.8-2.7C727.6,179.4,728.7,178.8,730.6,177.3z"/>
		</g>
	</g>
</g>
<g>
	<g>
		<g>
			<path d="M711.9,109.6c0,0-0.1,0-0.4,0.1c-0.2,0-0.6,0-1,0c-0.9-0.1-2.1-0.2-3.3-0.8c-1.2-0.5-2.2-1.4-2.6-2.3
				c-0.1-0.2-0.1-0.5-0.1-0.7c0.1-0.2,0.1-0.4,0.2-0.5c0.2-0.2,0.2-0.3,0.2-0.3c-0.2,0.6,0.1,0.9,0.3,1.1c0.2,0.2,0.4,0.3,0.6,0.4
				c0.4,0.2,0.9,0.5,2,1c1.1,0.5,1.7,0.7,2.2,1C710.5,108.8,710.9,109.2,711.9,109.6z"/>
		</g>
	</g>
</g>
<g>
	<g>
		<g>
			<path d="M670,129.5c0,0,0-0.1,0-0.4c0-0.3,0.1-0.7,0.2-1.2c0.2-1,0.5-2.3,0.9-3.7c0.4-1.4,0.9-2.6,1.3-3.5
				c0.2-0.4,0.3-0.8,0.5-1.1c0.1-0.3,0.2-0.4,0.2-0.4c0.1,1.3,0.1,2,0,2.6c-0.1,0.7-0.2,1.3-0.6,2.8
				C671.6,127.5,671.4,127.4,670,129.5z"/>
		</g>
	</g>
</g>
<g>
	<g>
		<g>
			<path d="M724.3,151.6c0-0.1,0.1,0.6,0.1,2c0,0.7-0.1,1.5-0.3,2.4c-0.2,1-0.5,2-1.2,3.2c-1.5,2.3-3.8,4-6.5,5.8
				c-1.4,0.8-2.9,1.6-4.6,2.3c-1.7,0.6-3.5,1.2-5.6,1.2c-0.5,0-1-0.1-1.6-0.1c-0.5-0.1-1.1-0.3-1.6-0.4c-0.8-0.3-1.5-0.5-2.3-0.7
				c-1.6-0.4-3.1-0.7-4.6-0.8c-1.5-0.1-2.9-0.1-4.2,0c-0.6,0.1-1.3,0.2-1.8,0.3c-0.5,0.2-0.9,0.4-1.4,0.8c-1.7,1.4-2.6,3.1-3.2,4.2
				c-0.6,1.2-0.7,1.8-0.7,1.8c0.1-1.6,0.6-2.9,1.1-4c0.5-1.1,1.1-2.1,1.7-2.9c0.3-0.4,0.7-0.7,1.1-1.1c0.4-0.3,0.9-0.5,1.3-0.7
				c0.8-0.3,1.6-0.5,2.5-0.7c1.6-0.3,3.4-0.4,5.6-0.2c1.1,0.1,2.3,0.3,3.8,0.7c0.7,0.2,1.5,0.4,2.2,0.7c0.3,0.1,0.6,0.2,0.9,0.2
				c0.3,0,0.7,0.1,1.1,0.1c1.5,0,3-0.4,4.2-0.8c1.2-0.4,2.3-0.9,3.3-1.3c1.9-0.9,3.3-1.7,4.7-2.5c0.7-0.4,1.3-0.8,1.9-1.3
				c0.7-0.5,1.2-1,1.7-1.6C722.9,156.6,723.9,154.5,724.3,151.6z"/>
		</g>
	</g>
</g>
<g>
	<g>
		<g>
			<path d="M622.8,522.4c-0.1,0-1.4,0.1-4.2,0.4c-1.4,0.1-3.2,0.3-5.2,0.3c-1,0-2.1,0.1-3.3,0.1c-1.2,0-2.4,0.1-3.7,0
				c-2.6-0.1-5.4,0-8.5-0.3c-1.5-0.1-3.1-0.2-4.7-0.4c-1.6-0.2-3.3-0.4-5-0.6c-6.8-1-14.2-2.5-21.7-4.9c-7.5-2.4-14.5-5.4-20.3-9
				c-3-1.7-5.6-3.7-7.9-5.8c-2.3-2.1-4.1-4.3-5.5-6.5c-2.9-4.4-3.8-8.7-3.9-11.5c-0.1-2.9,0.4-4.4,0.3-4.2c-0.5,3.4-0.1,6.5,0.7,9
				c0.8,2.5,1.9,4.5,3,6.3c2.4,3.4,4.7,5.7,7.4,7.8c2.6,2.1,5.6,4,9.7,6.2c4.1,2.1,9.3,4.5,16.8,6.9c0.9,0.3,1.8,0.6,2.7,0.9
				c0.9,0.3,1.7,0.5,2.6,0.7c1.7,0.4,3.2,0.9,4.7,1.2c1.5,0.3,2.9,0.6,4.2,0.9c1.3,0.3,2.6,0.5,3.7,0.7c1.2,0.2,2.3,0.4,3.3,0.6
				c1.1,0.1,2.1,0.3,3,0.4c1,0.1,1.9,0.3,2.8,0.4c0.9,0.1,1.8,0.2,2.7,0.2c1.8,0.1,3.5,0.4,5.2,0.4c1.8,0.1,3.6,0.2,5.7,0.3
				c2,0,4.3,0,6.8,0C616.7,522.8,619.5,522.5,622.8,522.4z"/>
		</g>
	</g>
</g>
<g>
	<g>
		<g>
			<path d="M541.1,496.4c0,0-0.2-0.1-0.6-0.4c-0.4-0.3-0.9-0.7-1.5-1.3c-1.3-1.1-2.9-2.9-4-5.2c-1.1-2.3-1.5-4.8-1.3-6.5
				c0.1-0.9,0.3-1.5,0.5-1.9c0.2-0.4,0.5-0.5,0.5-0.5c-0.4,0.4-0.5,0.9-0.5,1.3c0,0.4,0,0.8,0,1.1c0,0.7,0.1,1.2,0.2,1.7
				c0.2,1,0.4,2.2,1.5,4.4c0.5,1.1,1,1.9,1.4,2.5c0.4,0.6,0.8,1.1,1.1,1.6C539.1,494,539.7,494.9,541.1,496.4z"/>
		</g>
	</g>
</g>
<g>
	<g>
		<g>
			<path d="M679.7,505.2c0,0,0.5-0.4,1.5-1.1c1-0.7,2.5-1.7,4.3-3.1c3.5-2.7,8.2-6.9,12.2-12.3c4.1-5.4,6.4-11.2,7.5-15.5
				c0.5-2.2,0.8-4,0.9-5.2c0.1-1.2,0.2-1.8,0.2-1.8c-0.1,6-0.9,8.7-1.8,11.6c-0.3,0.7-0.5,1.4-0.8,2.2c-0.3,0.8-0.7,1.6-1.1,2.5
				c-0.4,0.9-1,1.9-1.6,3.1c-0.4,0.6-0.7,1.1-1.1,1.8c-0.2,0.3-0.4,0.6-0.6,1c-0.2,0.3-0.5,0.7-0.7,1c-0.5,0.7-1,1.3-1.5,1.9
				c-0.5,0.6-1,1.1-1.4,1.6c-0.4,0.5-0.8,1-1.3,1.4c-0.4,0.4-0.8,0.8-1.2,1.2c-0.8,0.7-1.4,1.4-2.1,1.9c-0.7,0.5-1.3,1-1.9,1.5
				C686.8,500.8,684.5,502.3,679.7,505.2z"/>
		</g>
	</g>
</g>
<g>
	<g>
		<g>
			<path d="M691.6,485c0,0,0.2-0.2,0.6-0.6c0.4-0.4,0.9-1.1,1.5-1.9c1.2-1.6,2.7-4.1,4.1-6.8c1.4-2.8,2.5-5.4,3.1-7.4
				c0.3-1,0.5-1.8,0.6-2.3c0.1-0.6,0.1-0.9,0.1-0.8c0.1,1.4,0,2.4-0.2,3.2c-0.1,0.8-0.3,1.5-0.5,2.2c-0.4,1.3-0.8,2.7-2.3,5.6
				c-1.5,2.8-2.4,4.1-3.3,5.2C694.5,482.4,693.6,483.4,691.6,485z"/>
		</g>
	</g>
</g>
<g>
	<g>
		<g>
			<path d="M453,37.4c0,0,0.5,0.3,1.4,1c0.9,0.7,2.3,1.9,3.7,3.5c2.8,3.2,5.7,8.6,7.3,15c1.6,6.3,1.9,12.3,1.8,16.6
				c0,2.1-0.2,3.9-0.3,5c-0.1,1.2-0.2,1.8-0.2,1.7c0.1-2.8-0.1-4.9-0.2-6.6c-0.1-1.7-0.3-3-0.4-4.4c-0.2-1.4-0.3-2.8-0.6-4.7
				c-0.3-1.9-0.6-4.2-1.4-7.3c-0.8-3.1-1.6-5.3-2.3-7.1c-0.8-1.8-1.4-3.1-2.1-4.4c-0.7-1.3-1.4-2.4-2.3-3.8
				C456.3,40.7,455,39.1,453,37.4z"/>
		</g>
	</g>
</g>
<g>
	<g>
		<g>
			<path d="M449.7,53.7c0,0,0.3,0.3,0.9,0.9c0.3,0.3,0.7,0.7,1.1,1.1c0.4,0.4,0.9,1,1.4,1.5c2,2.3,4.6,5.9,6.2,10.4
				c1.7,4.4,2.3,8.8,2.5,11.9c0.1,1.6,0,2.8,0,3.7c-0.1,0.9-0.1,1.3-0.1,1.3c-0.1-2.1-0.3-3.5-0.5-4.8c-0.2-1.2-0.4-2.2-0.6-3.1
				c-0.5-1.9-0.8-4.1-2.4-8.4c-1.7-4.3-3-6.2-4-8c-0.5-0.9-1-1.8-1.7-2.7c-0.3-0.5-0.7-1.1-1.1-1.7
				C450.8,55.1,450.3,54.5,449.7,53.7z"/>
		</g>
	</g>
</g>
<g>
	<g>
		<g>
			<path d="M430,47.3c0,0,0.5,0.1,1.6,0.3c1.1,0.2,2.7,0.4,4.6,1.1c1,0.3,2,0.6,3.1,1.1c1.1,0.5,2.3,1,3.4,1.7
				c0.6,0.4,1.2,0.7,1.7,1.1c0.6,0.4,1.1,0.9,1.7,1.4c0.3,0.2,0.6,0.5,0.8,0.7c0.3,0.3,0.5,0.5,0.8,0.8c0.5,0.6,1.1,1.1,1.5,1.7
				c1.9,2.4,3.2,5.2,4,7.7c0.8,2.6,1.2,5,1.3,7c0.2,2,0.1,3.6,0.1,4.7c0,1.1,0,1.7,0,1.6c-0.4-5.3-1-7.7-1.7-10.2
				c-0.2-0.6-0.3-1.3-0.6-1.9c-0.3-0.7-0.4-1.4-0.8-2.2c-0.4-0.8-0.7-1.7-1.3-2.7c-0.3-0.5-0.5-1-0.9-1.6c-0.4-0.5-0.8-1.1-1.2-1.7
				c-1.9-2.3-3.5-3.7-5-4.8c-0.7-0.5-1.4-1-2-1.4c-0.6-0.4-1.2-0.7-1.8-1c-0.6-0.3-1.1-0.7-1.8-0.9c-0.6-0.3-1.3-0.6-2-0.9
				c-0.4-0.2-0.7-0.3-1.1-0.5c-0.4-0.2-0.8-0.3-1.3-0.4C432.2,48,431.2,47.7,430,47.3z"/>
		</g>
	</g>
</g>
<g>
	<g>
		<g>
			<path d="M314.6,119.4c0,0-0.1,0.1-0.4,0.4c-0.3,0.3-0.7,0.8-1.3,1.3c-1.2,1.1-3.1,2.6-5.7,4.1c-2.6,1.5-5.9,2.9-9.7,4
				c-3.8,1.1-8.1,1.8-12.7,1.7c-4.6-0.1-8.9-1.2-12.5-2.9c-1.8-0.9-3.4-2-4.7-3.2c-1.3-1.2-2.3-2.6-2.9-4c-0.7-1.4-1-2.7-1.2-3.9
				c-0.2-1.2-0.2-2.2-0.2-3c0.1-1.6,0.3-2.5,0.3-2.4c-0.2,2-0.1,3.7,0.2,5.1c0.3,1.5,0.8,2.7,1.4,3.7c1.1,2,2.5,3.3,4,4.4
				c1.5,1.1,3.2,2.1,5.7,3c2.5,0.8,5.6,1.7,10,1.8c4.4,0.1,7.7-0.5,10.3-1c2.6-0.6,4.6-1.2,6.5-1.8c0.9-0.3,1.9-0.6,2.8-1.1
				c0.9-0.4,1.9-0.8,2.9-1.3C309.5,123.2,312,122,314.6,119.4z"/>
		</g>
	</g>
</g>
<g>
	<g>
		<g>
			<path d="M338.8,103.6c0-0.1-0.3,0.8-1.1,2.5c-0.8,1.6-2,4-3.7,6.8c-3.4,5.6-9,12.9-16.2,19.8c-3.6,3.5-7.5,6.4-11.5,8.3
				c-3.9,2-7.9,2.9-11.2,3.2c-3.3,0.3-6,0-7.8-0.3c-1.8-0.3-2.7-0.7-2.6-0.7c4.3,1,7.5,0.6,10.1,0.3c2.6-0.4,4.6-1,6.6-1.7
				c2-0.7,4-1.7,6.5-3.1c2.5-1.5,5.4-3.6,8.9-7c7.1-6.9,10.1-10.8,12.9-14.2c1.4-1.8,2.7-3.4,4.1-5.5
				C335.3,109.7,337,107.2,338.8,103.6z"/>
		</g>
	</g>
</g>
<g>
	<g>
		<g>
			<path d="M345,112.2c0-0.1-0.3,0.6-1,1.8c-0.7,1.2-1.8,2.8-3.4,4.8c-3.1,3.9-7.5,9.2-13.4,14c-3,2.4-6.2,4.2-9.1,5.7
				c-3,1.5-5.7,2.6-8.1,3.4c-2.4,0.8-4.3,1.3-5.7,1.6c-1.4,0.3-2.1,0.2-2,0.2c1.7-0.2,3-0.7,4.2-1.1c1.2-0.4,2.2-0.9,3.1-1.3
				c1.8-0.8,3.2-1.5,4.7-2.2c1.4-0.7,2.9-1.5,4.9-2.6c1.9-1.1,4.3-2.4,7.2-4.7c2.9-2.3,4.9-4.3,6.5-5.9c1.6-1.6,2.9-2.9,4-4.1
				c1.2-1.2,2.3-2.4,3.6-3.8C341.7,116.4,343.3,114.7,345,112.2z"/>
		</g>
	</g>
</g>
<g>
	<g>
		<g>
			<path d="M366.6,115.2c0,0-0.3,0.3-0.8,0.9c-0.5,0.6-1.2,1.5-2,2.7c-1.7,2.3-3.9,5.6-6.4,9.1c-2.5,3.6-5.5,6.4-7.8,8.1
				c-1.1,0.9-2.1,1.5-2.8,2c-0.7,0.4-1,0.6-1,0.6c2.9-2.5,4-3.9,5.3-5.2c1.2-1.4,2.7-2.8,5.2-6.3c2.5-3.6,3.9-5.3,5.1-6.7
				c0.6-0.7,1.3-1.4,2.1-2.2C364.3,117.2,365.2,116.2,366.6,115.2z"/>
		</g>
	</g>
</g>
<g>
	<defs>
		<path id="head_2_" d="M654.7,119c4.2,2.3,16.9,9,20.1,9.7c0,0,10.8,12.3,11.4,24.1c0.6,11.9-0.9,36-16.3,60.7
			c-15.5,24.7-25.2,38.3-31.2,42.4c-6.1,4.1-21.4,9.9-21.4,9.9s-3.4,4.2-6.7,6.7c-3.3,2.6-10.4,3.4-16.8,2.1s-13.9-3.2-25.3-1
			c-11.4,2.3-31,6.9-43.3,12.3c-13.9,6.1-42.7,14.5-58.8,12.3c-16.1-2.2-37.1-14.9-41.7-21.5c-4.6-6.6-39.8-29-39.8-29
			s9.6-12,4.4-29.4c0,0,8.7-16.3,18.1-21.9c9.4-5.6,48.3-17.2,60.2-20c11.9-2.8,45.9-10.3,58.5-16.3c12.6-6,35.8-29.6,43.5-33
			c7.7-3.5,21.9,4.3,32.3-1.2c10.4-5.5,17.5-0.4,24.5-1.7c7-1.3,16.1-7.2,16.1-7.2L654.7,119z"/>
	</defs>
	<clipPath id="head_1_">
		<use xlink:href="#head_2_"  style="overflow:visible;"/>
	</clipPath>
</g>
<g>
	<g>
		<g>
			<path d="M625.6,247c0,0-0.1,0.2-0.3,0.5c-0.2,0.3-0.6,0.7-1.1,1.2c-1,1-2.5,2.2-4.4,3.2c-1.9,0.9-3.8,1.4-5.2,1.4
				c-1.4,0.1-2.2-0.3-2.2-0.3c0.9,0,1.5-0.2,2.1-0.4c0.5-0.2,0.9-0.3,1.3-0.5c0.8-0.3,1.7-0.6,3.5-1.5c1.8-0.9,2.6-1.4,3.4-1.9
				C623.4,248.3,624.2,248,625.6,247z"/>
		</g>
	</g>
</g>
<g>
	<g>
		<g>
			<path d="M575.8,270.2c-0.1,0,0.9-0.4,2.7-0.7c1.9-0.3,4.7-0.3,8,0.8c1.6,0.5,3.4,1.3,5.2,2.1c1.8,0.8,3.8,1.3,6,1.7
				c2.2,0.4,4.5,0.6,6.8,0.5c1.2-0.1,2.3-0.3,3.2-0.9c1-0.6,2-1.4,2.9-2.2c3.8-3.4,7.1-7.1,10.1-10.4c3-3.3,5.7-6.4,8-8.9
				c2.3-2.5,4.3-4.4,5.8-5.5c1.5-1.2,2.4-1.6,2.3-1.6c-1.9,1.3-3.2,2.7-4.4,4c-1.2,1.3-2.2,2.4-3,3.5c-1.7,2.1-3.1,3.8-4.5,5.5
				c-1.4,1.7-2.9,3.5-4.9,5.8c-2,2.3-4.5,5.1-8.4,8.6c-1,0.9-1.9,1.7-3,2.3c-0.2,0.2-0.5,0.3-0.8,0.4c-0.3,0.1-0.6,0.2-0.9,0.3
				c-0.3,0.1-0.6,0.1-0.8,0.2c-0.3,0-0.5,0.1-0.8,0.1c-2.1,0.2-3.9,0.1-5.5-0.1c-3.2-0.4-5.6-1.2-7.8-2.1c-2.2-1-4-2.1-6.5-3
				C583.1,269.9,579.9,269.2,575.8,270.2z"/>
		</g>
	</g>
</g>
<g>
	<g>
		<g>
			<path d="M610.9,214.5c0,0,0-0.2,0-0.6c0-0.4-0.1-1-0.1-1.8c-0.1-1.5-0.3-3.6-0.4-5.9c-0.1-2.3-0.2-4.4-0.3-5.9
				c0-0.8-0.1-1.4-0.1-1.8c0-0.4,0-0.6,0-0.6c0.8,1.9,1,2.8,1.3,3.8c0.2,1,0.4,2.1,0.5,4.4c0.1,2.3,0.1,3.5,0,4.5
				C611.6,211.7,611.5,212.7,610.9,214.5z"/>
		</g>
	</g>
</g>
<g>
	<g>
		<g>
			<path d="M677.3,199.3c0,0.1,0.4-1.1,1.2-3.3c0.8-2.2,1.9-5.5,3.1-9.7c1.2-4.1,2.3-9.1,3.1-14.7c0.8-5.6,1.4-11.8,1.2-18.3
				c-0.1-1.3-0.1-2.5-0.2-3.8c0-0.6-0.2-1.2-0.3-1.8c-0.1-0.6-0.3-1.2-0.4-1.8c-0.7-2.3-1.6-4.5-2.7-6.5c-2.2-4.1-4.7-7.6-7.1-10.6
				l0.2,0.1c-5.8-1.9-10.2-4.2-13.2-5.8c-1.5-0.8-2.6-1.5-3.4-2c-0.7-0.5-1-0.8-1-0.8c2,1.5,4.1,2.4,5.9,3.2
				c1.8,0.8,3.4,1.5,4.8,2.1c2.9,1.1,5.2,1.9,7.2,2.4l0.1,0l0.1,0.1c2.4,2.7,4.4,5.3,6.6,9c1.1,1.8,2.2,3.9,3.2,6.5
				c0.5,1.3,0.9,2.8,1.2,4.4c0.3,1.6,0.3,3.3,0.4,5.2c0.1,3.3,0,6.2-0.2,8.7c-0.2,2.5-0.4,4.8-0.7,6.8c-0.6,4-1.2,7-1.9,9.9
				C683,184.4,681.6,189.5,677.3,199.3z"/>
		</g>
	</g>
</g>
<g class="st4">
	<g>
		<g>
			<path d="M523.2,287.4c0.1,0,0.9-0.3,2.8-1c1.9-0.7,4.7-1.7,8.1-3c3.4-1.3,7.4-2.9,11.9-4.6c4.5-1.9,9.6-3.4,15.1-4.4
				c2.7-0.5,5.4-0.9,8-1.2c2.6-0.3,5.2-0.5,7.6-0.5c4.8,0,9.2,0.4,12.8,0.9c3.6,0.4,6.5,0.9,8.5,1.2c2,0.3,2.9,0.5,2.9,0.5
				c-9.7-1.2-14.1-1.4-18.9-1.6c-2.4-0.1-4.9-0.1-8.1,0.1c-3.2,0.3-7.3,0.7-12.6,1.7c-10.8,2.1-15.7,4.7-20.4,6.3
				C536.1,283.3,531.8,284.8,523.2,287.4z"/>
		</g>
	</g>
</g>
<g id="mouth_1_">
	<g>
		<g>
			<g>
				<path class="st5" d="M490,220.8c1.7,1.9,3.5,3.4,5.2,4.8c1.8,1.4,3.5,2.7,5.4,4c3.7,2.5,7.8,5,13.3,7.6c0.7,0.4,1.7,0.8,2.8,1.3
					c1.1,0.5,2.4,1.1,3.8,1.6c2.8,1.2,6.3,2.4,10.2,3.5c1.9,0.6,4.1,1,6.2,1.4c2.1,0.3,4.3,0.7,6.5,1c4.4,0.6,9,1.2,13.5,1.6
					c9,0.9,17.6,1.3,24,1.2c6.4,0,10.5-0.3,10.5-0.3s1-0.1,2.9-0.2c1.8-0.2,4.5-0.4,7.6-0.8c0.8-0.1,1.6-0.2,2.4-0.3l0.5,0
					c0.1,0,0.4,0,0.6,0c0.2,0,0.3-0.1,0.5-0.1c0.6-0.2,1-0.3,1.5-0.5c1.8-0.8,3.5-1.8,5.3-2.8c3.5-2.1,7.2-4.5,10.9-7.1
					c1.9-1.3,3.7-2.6,5.5-4c0.9-0.7,1.9-1.5,2.7-2.3c0.8-0.9,1.6-1.7,2.3-2.5c3-3.4,5.8-6.7,8.3-9.8c5-6.2,8.8-11.6,10.7-14.2
					c6.9-9.9,10.2-16.1,13.7-25.6c-5.1,8.7-9.2,14.1-16,24c-1.9,2.6-5.7,7.9-10.7,14.1c-2.5,3.1-5.2,6.4-8.2,9.7
					c-0.7,0.8-1.5,1.6-2.2,2.4c-0.7,0.8-1.5,1.4-2.4,2.1c-1.8,1.4-3.6,2.7-5.4,3.9c-3.7,2.5-7.3,4.9-10.8,7c-1.7,1-3.4,2-5,2.7
					c-0.4,0.2-0.8,0.3-1.1,0.4l-0.2,0l0,0l0,0.1l0,0.2l0,0.2c0,0.2,0-1,0-0.5l0,0c-0.3,0-0.6,0-0.8,0c-0.9,0.1-1.7,0.2-2.5,0.3
					c-3.1,0.4-5.7,0.7-7.5,0.8c-1.8,0.1-2.8,0.2-2.8,0.2s-4,0.3-10.3,0.3c-6.3,0-14.8-0.3-23.7-1.2c-4.4-0.4-9-1-13.4-1.6
					c-2.2-0.3-4.4-0.7-6.5-1c-2.1-0.4-4-0.8-5.9-1.3c-3.8-1-7.1-2.2-9.9-3.4c-1.4-0.5-2.6-1.1-3.7-1.6c-1.1-0.5-2-0.9-2.7-1.3
					c-5.4-2.6-9.5-4.7-13.4-6.8c-2-1-3.9-2.1-5.8-3.2C494.1,223.4,492,222.3,490,220.8z"/>
			</g>
		</g>
	</g>
</g>
<g>
	<g>
		<g>
			<path d="M483.8,234.6c0,0,0-0.5,0-1.5c0-1,0-2.5,0-4.4c0-0.9,0.1-2,0.1-3c0.1-1.1,0.1-2.3,0.4-3.5c0.6-2.5,1.9-5.1,4.1-7.1
				c1.1-1,2.4-1.8,3.7-2.3c1.2-0.5,2.4-1,3.5-1.5c2.3-0.9,4.3-1.7,6.1-2.4c1.8-0.6,3.2-1.1,4.2-1.3c1-0.3,1.6-0.3,1.5-0.3
				c-1.2,0.3-2.2,0.8-3.1,1.1c-0.9,0.4-1.6,0.7-2.3,1.1c-1.3,0.7-2.4,1.2-3.5,1.7c-1.1,0.5-2.2,1.1-3.7,1.8
				c-0.8,0.3-1.6,0.7-2.6,1.2c-0.9,0.4-1.9,1-2.9,1.9c-1.9,1.8-2.9,3.7-3.5,5.2c-0.6,1.5-0.8,2.8-1,4
				C484.7,227.8,484.3,230,483.8,234.6z"/>
		</g>
	</g>
</g>
<g>
	<g>
		<g>
			<path d="M673,184.2c0,0,0.1-0.3,0.1-0.9c0.1-0.6,0.1-1.5,0.2-2.6c0-2.2,0.1-5.3-0.6-8.4c-0.2-0.8-0.4-1.4-0.8-1.9
				c-0.4-0.5-1-0.7-1.6-0.8c-1.3-0.2-2.6,0.1-3.6,0.4c-2.1,0.7-3.3,1.4-3.2,1.3c1.2-0.9,2.1-1.5,2.9-1.9c0.8-0.4,1.5-0.7,2.3-0.9
				c0.8-0.2,1.6-0.3,2.8,0c0.6,0.2,1.2,0.6,1.7,1.2c0.5,0.6,0.8,1.4,1,2.3c0.4,1.7,0.4,3,0.4,4.1c0,1-0.1,1.9-0.2,2.6
				c-0.1,0.8-0.2,1.5-0.4,2.3C673.7,181.9,673.5,183,673,184.2z"/>
		</g>
	</g>
</g>
<g>
	<path class="st3" d="M602.9,84.4c-7.1-1.8-14.8-0.1-19.8,3.8c-3.9,1.4-9,8.7-8.9,9.9c0.1,1.2,2.4,4.6,4.6,8
		c-0.3-0.7-0.6-1.4-0.8-2.2c4.8-10.1,15.5-13.5,22.5-12.6c8.5,1.1,16.3,11,15.2,22.3c3.8-0.7,7.9-0.4,11.5,0.2
		C620.8,96.1,608.6,85.9,602.9,84.4z"/>
</g>
<path id="r_6_" d="M599.6,102.8c-4.8-1.2-9.7,2.1-11.6,7.3c-0.6,1.8-0.7,3.2-0.6,3.8c0.5,4.3,5.5,7.2,8.7,8.9c0,0,6.6-1.7,9.6-4.5
	c0.3-0.7,0.5-1.4,0.7-2.2C607.8,110.1,604.8,104.1,599.6,102.8z"/>
<path d="M503.7,141.8c-1.9-5.8-8.5-8.3-14.7-5.7c-6.2,2.6-9.7,9.4-7.8,15.2c0.6,1.9,1.8,3.5,3.3,4.6c2.4-0.2,5.2-0.2,8.3,0.2
	c1.4,0.2,2.8,0.3,4.2,0.4C502.5,153.5,505.4,147.2,503.7,141.8z"/>
<g>
	<g>
		<g>
			<path d="M596.1,127.2c0,0-0.2,0-0.6,0.1c-0.4,0.1-1,0.2-1.7,0.3c-1.4,0.2-3.5,0.4-5.7,0.1c-1.1-0.2-2.2-0.5-3.1-1
				c-0.9-0.5-1.6-1.1-2-1.7c-0.5-0.6-0.8-1.1-1-1.4c-0.2-0.3-0.3-0.5-0.3-0.5c0.7,0.6,1.2,1.2,1.6,1.5c0.4,0.4,0.8,0.6,1.2,0.8
				c0.8,0.4,1.6,0.9,3.7,1.2c2.1,0.3,3.2,0.2,4.2,0.3C593.5,127.1,594.3,127.2,596.1,127.2z"/>
		</g>
	</g>
</g>
<g>
	<g>
		<g>
			<path d="M386.9,165.9c0,0,0.1-0.4-0.2-1.2c-0.1-0.4-0.4-0.8-0.7-1.3c-0.3-0.5-0.8-1-1.1-1.7l0.2,0.2c-0.8-0.1-1.7,0.1-2.7,0.3
				c-1,0.2-2.1,0.4-3.4,0.1l0.5-0.5c0.3,1.1,0.8,2.1,1.6,3c0.5,0.6,1.1,1.1,1.7,1.5c0.7,0.5,1.2,1,1.8,1.5c1.1,1,2.1,1.9,3.1,2.6
				l0.1,0.1l0,0.1c0.2,0.8,0.8,1.4,1.2,2c0.4,0.6,0.8,1.1,1,1.5c0.5,0.9,0.3,1.6,0.3,1.5c-0.1-0.7-0.4-1.3-0.8-1.8
				c-0.4-0.5-0.7-0.8-1-1.2c-0.6-0.7-1.1-1.2-1.4-1.9l0.1,0.2c-1.1-0.6-1.9-1.3-2.9-2.1c-0.5-0.4-1.1-0.9-1.7-1.4
				c-0.6-0.5-1.6-1.1-2.3-2c-1.3-1.5-1.6-3.1-1.7-3.4l-0.2-0.7l0.7,0.2c1.2,0.3,2.2,0.1,3.1,0c0.9-0.1,1.8-0.2,2.8,0l0.2,0l0,0.1
				c0.2,0.5,0.5,1.1,0.9,1.8C386.7,163.9,387.2,164.9,386.9,165.9z"/>
		</g>
	</g>
</g>
<g>
	<g>
		<g>
			<path d="M368.5,190.3c0,0-0.5,0.1-1.5,0.3c-1,0.2-2.5,0.5-4.1,1.3c-0.8,0.4-1.6,1.1-1.9,2c-0.2,0.5-0.3,1-0.2,1.5
				c0.1,0.4,0.5,0.7,1,0.7c1.1,0.1,2.4-0.3,3.6-0.7c1.3-0.4,2.5-0.9,3.8-1.5c2.6-1.1,5-2.5,7.3-3.5c2.3-1,4.4-1.8,6.2-2.4
				c1.8-0.6,3.2-1.1,4.2-1.4c1-0.3,1.5-0.5,1.5-0.4c-4.7,1.8-6.8,2.8-9,3.8c-1.1,0.5-2.3,1.1-3.8,1.8c-1.5,0.7-3.3,1.8-5.9,2.9
				c-2.6,1.2-4.7,1.9-6.5,2.1c-0.5,0.1-0.9,0.1-1.3,0c-0.4,0-0.9-0.2-1.3-0.5c-0.4-0.3-0.5-0.8-0.6-1.2c0-0.4,0.1-0.8,0.1-1.1
				c0.4-1.4,1.5-2.3,3-2.9C364.5,190.7,366.2,190.5,368.5,190.3z"/>
		</g>
	</g>
</g>
<path id="lash_r_2_" d="M574.1,97.6c0-2.2,1.4-4.7,2.8-6.2c4.2-4.9,9.5-7.9,10.7-8.7c2.4-1.6,6.2-3.6,9.1-4.2
	c2.9-0.6,8.7-3.4,10.3-8.9c0,0,2.1,3.7-1,9c0,0,8.3-4.9,8.5-15.4c0,0,3.6,7.2,2.1,13.3c0,0,6.5-0.5,11.1-10.2c0,0,1.9,9.5-11.5,16.5
	c0,0,3.1,3,8.2-1.6c0,0-0.4,4.7-2.9,6.3c-2.4,1.6-8.1,2.3-10.9,0.9c-2.7-1.4-6.5-2.9-9.3-3.2c-2.8-0.3-7.2-0.7-13,2.6
	c-1.4,0.8-5.8,2.8-9.3,6.3c-2.6,2.6-3.8,6-3.8,6L574.1,97.6z"/>
<g>
	<g>
		<g>
			<path d="M599,180.3c0.1,0-0.6,0.1-1.9,0.2c-1.3,0.1-3.2,0.2-5.5,0.1c-2.3-0.1-5.1-0.4-8.2-0.9c-3.1-0.6-6.4-1.3-9.7-2.6
				c-0.4-0.2-0.8-0.3-1.2-0.6l-0.6-0.3l-0.6-0.4c-0.4-0.3-0.7-0.6-1-0.9c-0.3-0.3-0.6-0.7-0.9-1c-1.1-1.4-1.9-2.7-2.7-4.1
				c-1.5-2.7-2.7-5.2-3.6-7.4c-0.9-2.2-1.6-3.9-2-5.1c-0.4-1.2-0.6-1.9-0.6-1.8c1.2,2.9,2.2,4.9,3.1,6.6c0.9,1.7,1.6,2.9,2.4,4.3
				c0.8,1.3,1.6,2.7,2.7,4.4c0.6,0.8,1.2,1.8,2.1,2.8c0.2,0.2,0.4,0.5,0.7,0.7c0.2,0.2,0.5,0.5,0.8,0.6c0.1,0.1,0.3,0.2,0.4,0.3
				c0.2,0.1,0.3,0.2,0.5,0.3c0.3,0.2,0.7,0.3,1.1,0.5c3.2,1.3,5.8,1.9,7.9,2.4c2.1,0.5,3.7,0.8,5.3,1.1c1.6,0.3,3,0.5,4.9,0.7
				C593.9,180.1,596.1,180.4,599,180.3z"/>
		</g>
	</g>
</g>
<g>
	<g>
		<g>
			<path d="M436.7,296.3c0,0-0.1-0.1-0.3-0.2c-0.1-0.1-0.3-0.2-0.4-0.3c-0.2-0.2-0.3-0.3-0.5-0.5c-0.4-0.4-0.8-1-1.1-1.8
				c-0.3-0.8-0.5-1.7-0.6-2.7c-0.1-2.1,0.2-4.6,1.4-7.1c0.6-1.3,1.5-2.4,2.4-3.6c0.9-1.1,1.9-2.3,3-3.4c1.1-1.1,2.2-2.1,3.4-3
				c1.2-0.9,2.4-1.8,4-2c1.4,0,2.6,0.2,3.8,0.3c1.2,0.1,2.3,0.3,3.3,0.4c2,0.3,3.6,0.6,4.7,0.7c1.1,0.2,1.7,0.3,1.6,0.3
				c-5.4-0.3-7.8-0.4-10.5-0.4c-0.7,0-1.3,0-2,0c-0.8,0-1.3,0-2,0.4c-1.5,0.7-3.2,2.2-5.3,4.3c-2.1,2.2-3.5,3.9-4.5,5.4
				c-1,1.4-1.5,2.8-1.9,4c-0.4,1.3-0.6,2.5-0.6,4.1c0,0.8,0.1,1.6,0.4,2.5C435.1,294.5,435.7,295.5,436.7,296.3z"/>
		</g>
	</g>
</g>
<g>
	<g>
		<g>
			<path d="M461,278.7c0,0,0.1-0.3,0.2-0.8c0.1-0.5,0.1-1.1,0.1-1.8c0-0.7,0-1.4-0.1-1.9c0-0.5-0.1-0.9-0.1-0.9
				c0.6,0.5,0.9,0.8,1.2,1.1c0.2,0.3,0.4,0.8,0.4,1.7c0,0.9-0.2,1.4-0.5,1.8C462.1,278.1,461.7,278.4,461,278.7z"/>
		</g>
	</g>
</g>
<g>
	<g>
		<g>
			<path d="M465.5,274.7c0,0-0.3-0.1-0.7-0.3c-0.4-0.2-1-0.3-1.6-0.6c-0.6-0.3-1.1-0.6-1.5-0.8c-0.2-0.1-0.4-0.2-0.5-0.3
				c-0.1-0.1-0.2-0.1-0.2-0.1c0.6-0.2,1-0.3,1.3-0.4c0.3,0,0.7,0,1.4,0.3c0.7,0.3,1,0.6,1.2,0.9
				C465.2,273.7,465.4,274.1,465.5,274.7z"/>
		</g>
	</g>
</g>
<g>
	<g>
		<g>
			<path d="M443.5,226.6c0,0,0.1,0.1,0.2,0.4c0.1,0.3,0.1,0.8-0.3,1.4c-0.4,0.6-1.2,0.8-2,0.8c-0.8,0-1.7-0.3-2.4-0.7
				c-1.4-0.8-2.5-1.6-3.4-2.2c-0.4-0.3-0.8-0.5-1-0.7c-0.2-0.2-0.4-0.2-0.4-0.2c1.4,0.2,2.1,0.3,2.8,0.5c0.7,0.2,1.4,0.6,2.7,1.3
				c1.3,0.7,1.9,0.7,2.5,0.8c0.3,0,0.5,0,0.8-0.2C443.2,227.7,443.5,227.3,443.5,226.6z"/>
		</g>
	</g>
</g>
<g>
	<g>
		<g>
			<path d="M398.4,270.3c0.1,0.1-0.9-0.8-3-1.8c-1.1-0.5-2.4-1-4.1-1.1c-1.6-0.2-3.4,0.2-4.8,1.6c-1.4,1.3-2.3,3.5-1.6,5.5
				c0.8,2.2,2.2,4.6,3.6,7c0.7,1.2,1.6,2.4,2.4,3.5c0.9,1.1,1.9,2.3,2.9,2.9c0.3,0.2,1.1,0.4,1.8,0.5c0.7,0.1,1.5,0.2,2.3,0.3
				c1.5,0.2,3.1,0.2,4.7,0.2c0.8,0,1.6,0,2.3-0.1c0.4,0,0.7-0.1,1-0.1l0.1,0l0.2-0.1l0.5-0.2c1.3-0.6,2.5-1.5,3.6-2.5
				c1.1-1,2.1-2,3-3.1c1-1.1,1.9-2.3,2.8-3.4c1.7-2.2,3.4-4.4,4.5-6.5c0.3-0.5,0.5-1.1,0.6-1.5c0-0.1,0-0.2,0-0.3l0-0.5
				c0-0.3,0-0.6,0-0.9c0-1.2,0-2.3,0-3.4c-0.1-4.3-0.4-7.8-0.9-10.1c-0.4-2.3-1-3.5-0.9-3.4c0.7,1.3,1.1,2.6,1.4,3.8
				c0.4,1.2,0.6,2.4,0.8,3.5c0.4,2.2,0.7,4.1,0.9,5.9c0.2,1.8,0.4,3.3,0.5,4.8c0,0.1,0,0.2,0,0.3l0,0.4c0,0.3-0.1,0.5-0.1,0.7
				c-0.1,0.4-0.2,0.8-0.4,1.2c-0.3,0.7-0.6,1.4-1,2c-1.4,2.6-3.1,5.1-5.5,8.2c-1.2,1.5-2.7,3.4-4.7,5.1c-1,0.9-2.2,1.7-3.6,2.4
				c-0.2,0.1-0.4,0.2-0.6,0.3c-0.2,0.1-0.5,0.2-0.8,0.2c-0.5,0.1-0.9,0.1-1.3,0.2c-0.8,0.1-1.7,0.1-2.5,0.1c-1.7,0-3.3-0.1-4.8-0.2
				c-1.5-0.2-2.9-0.3-4.3-0.8c-0.3-0.1-0.9-0.4-1.2-0.6c-0.3-0.2-0.6-0.4-0.9-0.7c-0.2-0.2-0.5-0.5-0.7-0.7
				c-0.2-0.2-0.4-0.5-0.6-0.7c-0.8-0.9-1.4-1.8-2-2.7c-2.3-3.5-3.7-6.3-4.8-9.2c-0.3-0.7-0.5-1.5-0.6-2.4c-0.1-0.9,0.1-1.8,0.4-2.6
				c0.6-1.6,1.7-3.1,3.3-4c0.8-0.5,1.7-0.8,2.8-0.9c1-0.1,2.1,0.1,3.1,0.3C394.3,267.3,396.4,268.5,398.4,270.3z"/>
		</g>
	</g>
</g>
<g>
	<g>
		<g>
			<path d="M393.6,288.6c0,0-0.3,0-1-0.2c-0.7-0.1-1.7-0.4-2.9-0.8c-1.2-0.5-2.6-1.2-3.9-2.2c-1.4-1-2.6-2.5-3.6-4.2
				c-2-3.3-3.2-6.6-4-9c-0.4-1.2-0.7-2.2-0.8-2.8c-0.2-0.7-0.3-1-0.2-1c1.4,3,2.2,4.4,2.9,5.8c0.4,0.7,0.8,1.5,1.3,2.5
				c0.5,1,1.1,2.2,2.1,3.8c1,1.6,1.8,2.6,2.6,3.4c0.8,0.8,1.5,1.3,2.1,1.8C389.4,286.6,390.7,287.6,393.6,288.6z"/>
		</g>
	</g>
</g>
<g>
	<g>
		<g>
			<path d="M385.3,284.7c0,0,0-0.2-0.1-0.4l0.1,0.1c-0.4-0.1-1-0.3-1.7-0.5c-0.7-0.2-1.6-0.5-2.5-1c-1.3-0.8-2.1-1.9-2.6-2.6
				c-0.3-0.4-0.5-0.7-0.6-0.9c-0.1-0.2-0.2-0.3-0.2-0.3c1.1,0.5,1.6,0.9,2.2,1.2c0.5,0.3,1,0.8,2,1.4c2,1.1,2.4,1.2,3.7,2.5l0.1,0.1
				l0,0C385.4,284.3,385.5,284.5,385.3,284.7z"/>
		</g>
	</g>
</g>
<g>
	<g>
		<g>
			<path d="M455.5,271.8c0,0,0.2-0.3,0.4-0.9c0.2-0.6,0.4-1.6,0.3-2.9c-0.1-1.2-0.3-2.7-0.6-4.4c-0.4-1.5-1.1-3.2-1.8-5
				c-2.8-7.1-5.1-12.8-5.2-12.9c1.9,2.9,2.6,4.2,3.5,5.7c0.8,1.5,1.6,3.1,3,6.7c0.7,1.8,1.2,3.2,1.5,4.4c0.2,0.6,0.2,1.2,0.3,1.7
				c0,0.5,0.1,0.9,0.1,1.4c0,0.9,0,1.7-0.1,2.8c-0.1,0.5-0.2,1.1-0.3,1.7C456.4,270.6,456.1,271.2,455.5,271.8z"/>
		</g>
	</g>
</g>
<g>
	<g>
		<g>
			<path d="M397.6,268c0,0-0.2-0.1-0.5-0.4c-0.3-0.3-0.7-0.7-1.2-1.3c-0.9-1.1-1.9-2.9-2.7-5c-0.8-2-1.2-4-1.3-5.4
				c-0.1-0.7-0.1-1.3-0.1-1.7c0-0.4,0-0.6,0-0.6c0.6,1.8,1.1,2.6,1.4,3.4c0.4,0.9,0.7,1.8,1.4,3.8c0.8,2,1.1,2.9,1.5,3.8
				C396.5,265.6,396.7,266.4,397.6,268z"/>
		</g>
	</g>
</g>
<g>
	<g>
		<g>
			<path d="M396.2,278.1c0,0,0.4-0.8,0.3-2.3c0-0.7-0.1-1.6-0.2-2.6c0-1,0-2.2,0.6-3.4c0.3-0.6,0.8-1.1,1.4-1.4
				c0.6-0.3,1.2-0.4,1.8-0.4c1.1,0,2.1,0.4,2.7,0.8c1.4,0.8,1.9,1.7,1.8,1.6c-0.8-0.6-1.5-0.8-2.1-1c-0.6-0.1-1-0.2-1.5-0.2
				c-0.4,0-0.9,0-1.4,0.1c-0.5,0.1-1.1,0.4-1.5,1.2C396.9,274.1,398.3,274.9,396.2,278.1z"/>
		</g>
	</g>
</g>
<g>
	<g>
		<g>
			<path d="M404.6,266.3c0,0-0.3,0.1-0.8,0.3c-0.4,0.2-0.9,0.5-1.5,0.9c-0.6,0.4-1.3,0.7-1.9,0.8c-0.6,0.1-0.9-0.1-0.9-0.1
				c0.6-0.4,0.8-0.7,1-1c0.2-0.3,0.5-0.5,1.2-0.9c0.7-0.4,1.2-0.6,1.6-0.5C403.6,265.8,404,265.9,404.6,266.3z"/>
		</g>
	</g>
</g>
<g>
	<g>
		<g>
			<path d="M393.8,276.9c0,0.1-0.5-1.1,0.3-2.1c0.4-0.5,1.2-0.7,1.6-0.6c0.5,0.1,0.6,0.4,0.6,0.4c-0.5,0.2-0.6,0.4-0.7,0.6
				c-0.1,0.2-0.2,0.2-0.4,0.5c-0.2,0.3-0.4,0.5-0.6,0.6C394.4,276.4,394.2,276.5,393.8,276.9z"/>
		</g>
	</g>
</g>
<g>
	<g>
		<g>
			<path d="M387.8,252.7c0,0,0.2,0.3,0.6,0.6c0.4,0.4,0.9,0.8,1.5,1.2c0.6,0.5,1.1,1,1.5,1.5c0.2,0.2,0.3,0.4,0.4,0.5
				c0.1,0.1,0.1,0.2,0.1,0.2c-1.5-0.3-1.5-0.1-2.9-1.2c-0.7-0.6-0.9-1-1.1-1.4C387.7,253.9,387.7,253.4,387.8,252.7z"/>
		</g>
	</g>
</g>
<g>
	<g>
		<g>
			<path d="M445.7,284.9c0,0-0.2,0.3-0.5,0.9c-0.3,0.5-0.6,1.3-1,2.1c-0.4,0.8-0.9,1.6-1.2,2.1c-0.2,0.3-0.3,0.5-0.4,0.6
				c-0.1,0.1-0.2,0.2-0.2,0.2c0-1.8-0.3-1.8,0.6-3.6c0.5-0.9,0.8-1.3,1.2-1.6C444.4,285.3,444.9,285.1,445.7,284.9z"/>
		</g>
	</g>
</g>
<g>
	<g>
		<g>
			<path d="M404.9,233c0,0-0.3-0.2-0.9-0.6c-0.6-0.4-1.5-1.1-2.7-1.6c-0.6-0.3-1.2-0.5-2-0.5c-0.8,0-1.6,0.1-2.4,0.2
				c-1.7,0.3-3.6,0.7-5.6,1.2c-2,0.5-3.8,1-5.4,1.8c-1.6,0.7-2.9,1.6-4,2.4c-1.1,0.8-1.9,1.5-2.5,1.9c-0.6,0.5-0.9,0.7-0.9,0.7
				c2.6-2.5,3.8-3.7,5.3-4.7c0.7-0.5,1.6-1,2.7-1.5c1.1-0.5,2.6-1,4.6-1.5c4-1,6.1-1.3,8-1.2c0.5,0,1,0.1,1.4,0.3
				c0.5,0.2,0.9,0.4,1.4,0.7C402.8,231.1,403.7,231.9,404.9,233z"/>
		</g>
	</g>
</g>
<g>
	<g>
		<g>
			<path d="M432.4,224.5c0,0-0.2,0-0.5,0c-0.3,0-0.8-0.1-1.4-0.1c-1.2-0.1-2.9,0-4.5,0.6c-1.7,0.6-3.3,1.3-4.5,1.7
				c-0.6,0.2-1.1,0.3-1.4,0.4c-0.3,0.1-0.5,0.1-0.5,0.1c2.9-1.6,2.5-1.8,6-3.2c1.9-0.6,2.9-0.5,3.8-0.4
				C430.3,223.7,431,223.9,432.4,224.5z"/>
		</g>
	</g>
</g>
<g>
	<g>
		<g>
			<path d="M462.6,273.1c-0.1,0,0.8-0.5,2.1-1.7c1.3-1.3,3.1-3.4,4.8-6.3c0.8-1.5,1.6-3.1,2.3-5c0.3-0.9,0.6-1.9,0.7-2.9
				c0.1-1,0.1-2-0.3-3.1c-0.6-2-2.2-3.7-3.9-5.5c-1.7-1.8-3.2-3.8-4.8-5.9c-3-4.1-5.9-8.1-8.6-11.7c-1.3-1.8-2.5-3.5-3.8-5.1
				c-0.6-0.8-1.2-1.5-1.9-2c-0.6-0.5-1.5-0.7-2.3-0.7c-1.6,0-3.1,0.5-4.3,1c-0.6,0.3-1.1,0.5-1.6,0.9c-0.5,0.3-1,0.5-1.5,0.6
				c-0.9,0.2-1.7,0.1-2.1,0.1c-0.5,0-0.7,0-0.7,0c1.1,0,2.2,0,3.1-0.3c0.5-0.1,0.9-0.4,1.2-0.7c0.4-0.3,0.8-0.5,1.2-0.7
				c1.6-0.8,3.1-1.2,4.5-1.3c0.7,0,1.4,0,2,0.2c0.7,0.2,1.2,0.7,1.6,1.1c0.9,0.8,1.6,1.7,2.3,2.5c1.4,1.7,2.8,3.6,4.6,6
				c1.9,2.4,4.1,5.5,7.1,9.6c1.5,2.1,2.9,3.8,4.2,5.3c1.3,1.5,2.5,2.8,3.4,4.2c0.4,0.7,0.8,1.4,1,2.1c0.2,0.7,0.4,1.4,0.4,2.1
				c0,1.4-0.3,2.6-0.6,3.7c-0.8,2.2-1.8,4.2-3.3,6.5c-0.7,1.1-1.6,2.3-2.7,3.5C465.7,270.7,464.4,272,462.6,273.1z"/>
		</g>
	</g>
</g>
<g>
	<g>
		<g>
			<path d="M438.1,296.4c0,0,0.3-0.2,1-0.4c0.7-0.2,1.8-0.3,3.2-0.2c0.7,0,1.4,0.1,2.2,0.2c0.8,0.1,1.6,0.2,2.4,0.2
				c1.7-0.1,3.6-0.3,5.3-1.1c0.8-0.4,1.6-1,2.3-1.6c0.7-0.6,1.4-1.2,2-1.8c1.3-1.2,2.4-2.3,3.3-3.3c0.9-1,1.7-1.7,2.2-2.3
				c0.5-0.5,0.8-0.8,0.7-0.8c-2,2.9-3.1,4.2-4.2,5.6c-0.6,0.7-1.2,1.3-2.1,2.2c-0.4,0.4-0.9,0.9-1.5,1.4c-0.6,0.5-1.3,1.1-2.3,1.6
				c-2,0.9-3.5,1-4.8,1.1c-1.3,0.1-2.3-0.1-3.2-0.3c-0.9-0.2-1.7-0.4-2.7-0.5c-0.5-0.1-1.1-0.1-1.7-0.2
				C439.6,296,438.9,296,438.1,296.4z"/>
		</g>
	</g>
</g>
<g>
	<g>
		<g>
			<path d="M434.1,287.1c0,0-0.2,0.4-0.7,1.1c-0.5,0.7-1.3,1.7-2.4,2.8c-1.1,1.1-2.6,2.3-4.4,3.3c-0.9,0.5-1.9,1-3,1.4
				c-1.2,0.3-2.4,0.4-3.6,0.4c-4.9-0.2-9-1.7-11.9-3c-1.4-0.7-2.5-1.3-3.3-1.7c-0.7-0.5-1.1-0.7-1.1-0.7c3.7,1.9,5.6,2.3,7.6,2.9
				c1,0.3,2,0.5,3.3,0.8c1.3,0.3,3,0.6,5.3,0.7c1.1,0,2.1,0,3-0.2c0.8-0.2,1.5-0.5,2.2-0.8c1.3-0.6,2.2-1.2,3.1-1.7
				c0.9-0.6,1.7-1.1,2.6-1.9C431.8,289.6,433,288.7,434.1,287.1z"/>
		</g>
	</g>
</g>
<g>
	<g>
		<g>
			<path d="M463.7,282.8c0,0,0.4-0.6,1-1.7c0.6-1,1.3-2.5,1.7-4.2c0.4-1.7,0.2-3.3,0-4.5c-0.2-1.2-0.5-1.9-0.5-1.9
				c0.9,1.4,1.2,2.1,1.5,2.9c0.2,0.8,0.4,1.7,0.1,3.7c-0.4,1.9-1,2.7-1.5,3.4C465.4,281.3,464.9,281.8,463.7,282.8z"/>
		</g>
	</g>
</g>
<g>
	<g>
		<g>
			<path d="M404.4,320.2c0,0,0.1-0.3,0.2-1c0.1-0.7,0.3-1.7,0.6-2.9c0.6-2.4,1.6-5.8,3.1-9.3c1.5-3.5,3.3-6.5,4.8-8.5
				c0.7-1,1.4-1.8,1.9-2.3c0.5-0.5,0.8-0.7,0.8-0.7c-0.6,0.6-1,1.2-1.3,1.7c-0.3,0.5-0.6,1-0.9,1.5c-0.5,0.9-0.8,1.6-1.2,2.3
				c-0.7,1.5-1.6,3-3.1,6.4c-1.5,3.4-2.1,5.2-2.7,6.8C406,315.8,405.5,317.3,404.4,320.2z"/>
		</g>
	</g>
</g>
<g>
	<g>
		<g>
			<path d="M422.6,228.2c0,0-0.3,0-0.8-0.2c-0.6-0.2-1.3-0.5-2.3-0.9c-1-0.4-2.1-0.8-3.4-1.1c-1.3-0.3-2.7-0.6-4.2-0.4
				c-0.6,0-1.3,0.4-1.9,0.8c-0.6,0.4-1.2,0.8-1.8,1.1c-1.2,0.7-2.3,1.4-3.3,1.8c-2,0.9-3.3,0.8-3.2,0.8c1.4-0.3,2.2-0.9,3-1.3
				c0.7-0.4,1.2-0.8,1.8-1.2c0.6-0.4,1.1-0.8,1.9-1.3c0.4-0.3,0.8-0.6,1.4-0.9c0.5-0.3,1.2-0.7,2.1-0.8c1.7-0.2,2.9,0.1,3.9,0.3
				c1,0.3,1.7,0.5,2.3,0.8c0.7,0.3,1.3,0.6,2,1C420.6,227.2,421.4,227.8,422.6,228.2z"/>
		</g>
	</g>
</g>
<g>
	<g>
		<g>
			<path d="M437.1,281.6c0,0,0.2-0.4,0.8-1.3c0.3-0.4,0.6-1,0.9-1.6c0.4-0.6,0.7-1.4,1.1-2.2c0.8-1.7,1.5-3.7,1.9-6
				c0.2-1.2,0.3-2.4,0.3-3.7c0-1.3-0.2-2.6-0.4-4c0-0.4-0.1-0.7-0.2-1c0-0.3-0.2-0.6-0.2-0.9c-0.2-0.6-0.4-1.3-0.6-1.9
				c-0.4-1.2-0.9-2.4-1.3-3.6c-0.9-2.3-1.7-4.3-2.4-6c-0.7-1.7-1.3-3.1-1.7-4c-0.4-0.9-0.6-1.4-0.6-1.4c2.5,4.2,3.6,6.3,4.7,8.5
				c0.5,1.1,1.1,2.3,1.7,3.8c0.3,0.8,0.7,1.6,1,2.7c0.2,0.5,0.4,1.1,0.5,1.7c0.1,0.3,0.2,0.6,0.2,1c0.1,0.4,0.1,0.7,0.2,1
				c0.5,2.8,0.5,5,0.2,6.8c-0.2,1.8-0.7,3.1-1.2,4.3C441.1,275.9,440,278,437.1,281.6z"/>
		</g>
	</g>
</g>
<g>
	<g>
		<g>
			<path d="M425.6,293.9c0,0,0.4,0.3,1.3,0.3c0.8,0.1,1.9-0.1,3.2-0.3c1.3-0.2,2.4-0.3,3.3-0.4c0.4,0,0.8-0.1,1-0.1
				c0.2,0,0.4,0,0.4,0c-1,0.5-1.5,0.8-2.1,1c-0.5,0.2-1.1,0.4-2.5,0.6c-1.3,0.2-2,0.1-2.6,0c-0.3-0.1-0.6-0.1-0.9-0.3
				C426.3,294.6,425.9,294.3,425.6,293.9z"/>
		</g>
	</g>
</g>
<path class="st1" d="M592.4,71c1.7-0.2,3.2-0.3,4.3-0.3l23.7-1c1.8,0.7,3.5,1.8,5.1,3.1c9.2,0.5,19.9-6,21.7-12.8
	c1.9-7.5-4.9-13.6-6.9-17.5c-2-3.8-6.6-10.5-11.9-11.8c-5.3-1.3-23.2,0.7-33.1,6.8c-9.9,6.1-17,22.2-17.3,28.1
	c0,0-21.7,8.3-30.5,5.4c-0.3,2.5-0.2,5.7-0.8,7.7C557.7,76.8,590,70.2,592.4,71z"/>
<path class="st1" d="M469.1,98.7c0.2-12.1-7.7-6.4-8.8-5.6c-4.4-0.1-10.2-1.9-16.7-9.2c-6.5-7.3-23-15.7-36.5-7.1
	c-11.2,7.2-20.4,16.6-19.9,34.3c0.6,18.8,15.8,18.8,23.6,17.1c6.9-1.5,18.2-9,27.9-7.7c2.6-0.6,5.7-1.9,8.5-3.2
	c4-1.9,12.8-5.5,16.7-7.4C466.1,105.6,469,102.1,469.1,98.7z"/>
<g>
	<path class="st3" d="M501.1,113.9c-2.1,2.8-4.4,5.7-6.9,8.6c3.3-0.4,7.2-0.5,10.8,0.4c1.8-3,3.8-6.3,5.5-9.6
		C507.4,113.3,504,113.5,501.1,113.9z"/>
	<path class="st3" d="M512.2,127.3c0.4,0.4,0.7,0.8,1.1,1.3c6.1,8.7,5.5,21.2-1.7,27.9c4.3-0.1,8-0.6,9.8-0.7
		c0.7-1.2,1.1-2.1,1.7-3.3c8.5-18,3.6-28.1-0.3-33.3C519.4,122.1,515.7,124.9,512.2,127.3z"/>
</g>
<path id="nose_2_" class="st1" d="M583,134c10.5-3.7,26.5-7.8,33.8-8.7c4.1-0.5,11.9,1.3,13.6,4c2,3.3,3.5,9.6,2.9,16
	c-0.7,6.4-4.5,15.5-11.3,26.1c-6.9,10.6-12.4,18.1-15.6,18.4c-3.2,0.3-37.2,2.6-46.7-3.4c-9.5-6-11.9-16.2-13.3-20.3
	c-1.5-4.1,3.3-12.8,9.6-18.2C562.1,142.5,574.8,137,583,134z"/>
<path class="st1" d="M654.8,268c-3.4-1.5-11.1,0.8-12.5,1.9c0,0,3.3-16.8,0-12.2c-3.6,4.1-9.2,5.9-11.1,6.9
	c-2.5,1.4-8.9,6.9-12.5,11.9s-9.1,12.5-14.1,13.3c-5,0.8-16.1-1.2-24.6-3.5c-13.9-3.7-36.1-2.6-55.9,2.6c-7.1,3-26.2,7.4-36.9,9.9
	c-20.5,7.7-28,12.7-41.6,21.2c-2.4,1.5-4.7,3-7,4.6c3.8-0.6,7.5-0.4,10.8,0.2c7.5,1.7,13.2,2.6,19.4,1.4
	c6.2-1.2,28.9-11.9,37.6-12.6c10.2-0.9,20.5,0,29.7,2.4c16.4,0.5,37.9,0.8,47.8,0.4c14.4-0.6,31.3-5.8,38.7-10.5
	c7.5-4.7,15.5-10,20.2-16.6c4.7-6.6,7.5-12.7,9.4-13.6c1.9-0.8,2.5,3.6,1.1,5.8c0,0,2.8-1.1,4.2-1.5
	C657.5,280.1,659.7,270.2,654.8,268z"/>
<path class="st6" d="M681.3,305.1c-10.3-9.9-20.6-16.6-27.2-20.5c-1.8-3.1-6.8-2.8-6.8-2.8s-6.4,3.1-13,9.8
	c-6.6,6.6-45.4,17.7-67.5,18.8c-22.1,1.1-64.2,1.1-75.8,8.9c-11.6,7.7-13.3,13.3-15.5,18.3c0,0-27.7,4.9,0.6,17.7
	c17.2,7.7,30.3,21.7,45.9,55.3c8.6,18.5,12,44.2,13.3,62.6c0.2,1.4,0.6,4,0.6,6.9c0,1.5,0,3.1,0,4.5c0.1,2.2,0.1,4.1,0.2,5.7
	c1.2,2,10.1,15.3,39.4,22.1c19.1,4.5,37.9,4.9,55.4,2.1c0-0.8-0.1-1.5-0.2-2.1c-0.6-3.3,3.4-8.7,7.5-8.6c5.2,0.1,13.8-1.9,19.9-4.2
	c8.3-3,11.3-4.7,13-4.2c1.4,0.5,4.3,1.4,5.4,2.1c7.9-5.1,15.4-11.4,18.7-17c4.6-8.9,6.5-10.8,6.3-15.8c1.2-2.2,2.1-4.9,2.7-7
	C724.8,376.3,695.9,319,681.3,305.1z"/>
<path d="M633.6,562.6c0,0,0,0-0.2-0.1c-0.1,0-0.2,0-0.3-0.1c-0.1-0.1-0.2-0.1-0.3-0.2c-0.5-0.4-0.9-1.3-1-2.5
	c-0.3-2.4,0.2-6,1.3-10.2c0.9-4.2,1.1-9.4,1.2-15.1c0-2.9,0-5.9,0-9c0-1.6,0-3.1,0-4.7c0-1.6,0-3.3,0.2-5c0.2-1.7,0.7-3.4,1.6-4.9
	c0.5-0.7,1.1-1.4,1.9-1.9c0.8-0.5,1.7-0.8,2.5-0.8c0.4,0,0.8,0,1.2,0c0.4,0,0.7-0.1,1.1-0.1c0.7-0.1,1.5-0.2,2.2-0.4
	c1.5-0.3,2.9-0.6,4.3-1c2.8-0.7,5.4-1.4,7.9-1.9c1.3-0.3,2.5-0.5,3.6-0.8c1.1-0.4,2.1-0.8,3.1-1.2c2-0.9,3.7-1.9,5.2-2.6
	c1.6-0.7,3-1.2,4.3-1.2c0.3,0,0.6,0,0.9,0.1c0.3,0.1,0.5,0.1,0.7,0.2c0.4,0.2,0.8,0.4,1,0.6c0.5,0.4,0.7,0.6,0.6,0.6
	c-1.1-1.1-2.5-1.4-3.7-1.2c-1.2,0.2-2.3,0.7-3.3,1.2c-2,1-3.6,2.1-5.2,2.9c-1.6,0.8-3,1.5-4.5,1.9c-1.4,0.4-2.8,0.8-4.2,1.1
	c-2.8,0.7-5.6,1.6-9.4,2.5c-1,0.2-2,0.5-3.1,0.6c-0.6,0.1-1.1,0.2-1.8,0.2c-0.3,0-0.6,0-0.9,0c-0.3,0-0.5,0.1-0.8,0.2
	c-1,0.3-2,1-2.6,2.2c-0.7,1.1-1.1,2.6-1.3,4.1c-0.2,1.6-0.2,3.1-0.2,4.5c0,1.4,0,2.8,0,4.1c0,2.6,0,4.8-0.1,6.8
	c-0.1,4-0.2,7.1-0.5,10.1c-0.3,3-0.6,5.8-1.6,9.1c-0.5,1.6-1,3.4-1.4,5.5c-0.2,1-0.3,2.1-0.2,3.3c0,0.6,0.1,1.2,0.3,1.8
	C632.6,561.7,633,562.4,633.6,562.6z"/>
<path d="M652.2,550.3c-0.1,0,0.7-0.2,2.1-0.7c1.4-0.4,3.5-1,6.1-1.6c1.3-0.3,2.7-0.6,4.2-0.9c1.5-0.4,3.1-0.8,4.7-1.4
	c1.5-0.7,2.9-1.7,3-3.5c0.2-1.8,0.1-3.7-0.1-5.7c-0.6-7.3-1.7-14.1-2.4-19.2l0.6,0.3c-2.9,1.1-5.3,1.8-6.9,2.2
	c-1.7,0.4-2.6,0.5-2.5,0.5c2.4-0.7,4.3-1.4,5.8-2.1c1.5-0.6,2.6-1.1,3.3-1.5l0.5-0.2l0.1,0.5c0.6,2.8,1.1,5,1.5,7.8
	c0.5,2.8,1,6.2,1.5,11.4c0.1,2,0.2,3.8,0.1,5.4c-0.1,0.4-0.1,0.8-0.2,1.2c-0.1,0.4-0.3,0.8-0.5,1.2c-0.4,0.7-0.9,1.3-1.5,1.7
	c-1.1,0.8-2.2,1.2-3.2,1.5c-1,0.3-1.9,0.5-2.8,0.7c-1.8,0.3-3.5,0.6-5.6,0.9C657.8,549.2,655.4,549.5,652.2,550.3z"/>
<g>
	<path class="st1" d="M577.9,53.2c-5.7-6.7-16-3-22.6-0.1c-4.5,2-8.5,4.9-11.6,7.2c-4.4-5.1-11.5-8.5-17.4-6.8
		c-8.6,2.5-19.4,11.4-22.8,15.3c0,0-5.1-3-12.1-0.5c-7,2.6-9.8,7.3-13.1,10.4c-0.8-0.6-9.9-0.7-15,11.3c-0.3,0.7-0.8,1.3-1.3,1.8
		c2.2-1,5.5-1.7,6.6,2.3c2.1,7.2-2,9.6-5.5,17.5c-3.5,7.9-15.6,28-25.6,36.9c-10,8.9-17,21.1-18.1,29.6c0,0,6.6-13.5,15.3-20.4
		c8.7-6.9,20.4-16.2,25.2-24.5c0,0-4,10.7-7,13.9c0,0,18.7-13,24.1-18c0,0-12.5,20.1-17.9,25.1c0,0,19.7-14.2,33.9-30.2
		c15.2-17.2,23.9-35,23.9-35s0.4,11.3-5.7,23.2c-6.1,11.9-14.6,23.6-14.6,23.6c3.6-0.3,25.5-13.5,35.7-26.1
		c9.2-11.3,15.6-29.6,15.6-39.3v0c3.7,1,9.1,1.9,13.5,0.3c7.4-2.7,13.4-5,13.4-5C578.3,62.9,581.1,57,577.9,53.2z"/>
	<path class="st1" d="M461.9,91.8c-1.3,0.6-2.2,1.3-2.2,1.3C457.5,93.7,460,93.5,461.9,91.8z"/>
</g>
<path class="st3" d="M697.2,321.8c0,0-25.7-10.1-74.2,0.7c-48.5,10.8-70,29.1-83.9,45.8l0.2,0l-0.3,0.3
	c6.2,4.5,95.7,83.8,115.9,105.1c0,0,25.6-43.4,35-75.2C699.1,366.8,704.7,344.3,697.2,321.8z M684.2,399.6
	c-15.2,37.7-30.6,61.4-30.6,61.4s-34.6-32.1-50.8-46.4c-13.3-11.8-40.3-37-52.3-47.8c3.7-4,29.4-30,74.6-38.5
	c49-9.2,68.4-2.4,68.4-2.4S699.1,362.6,684.2,399.6z"/>
<path d="M568.9,360.2c2,2.7,17.9,26.7,26.7,40.8c0,0,11.2-13.3,18.3-18l-5-9.2c0,0-8,5-12.6,10l-4.1-7.5c0,0,5.1-5.7,11.8-9.8
	l-3.2-5.7c0,0-8.9,6.1-11.8,8.9l-4.1-9.4c0,0,6-5.2,14.5-8.4c0,0-3.4-7.2-3.7-9c0,0-7.7,3.1-14.6,7.7
	C574.2,355,568.9,360.2,568.9,360.2z"/>
<path d="M622.4,387.9c-2.1-4.2-13.4-31.3-17.3-43.6c0,0,6.5-5.6,14.1-7.4c0,0,7.9,16.7,17.8,25.8c0,0-4-23.1-4.4-28.2
	c0,0,10.2-2,13.7-5.7c0,0-2.1,21.1,2.6,44.7c0,0-6.4,2.3-8.2,4.2c0,0-12.7-10.3-16.3-14.2c0,0,2.7,10.8,5.6,19.5c0,0-2.3,0.6-4.1,2
	C624.2,386.4,622.4,387.9,622.4,387.9z"/>
<path d="M673.1,322.6c-11.3-2.1-21.8,7-21.8,7l3,45.7c0,0,6.7-2.6,12.9-6.5c8.1-5,15.8-16.3,17.2-24.5
	C685.8,335.9,684.4,324.7,673.1,322.6z M670.9,357.4c-3,4.5-7.9,7.9-7.9,7.9c-0.1-12.1,0.8-27.1,1.3-30.2c0,0,4-0.7,6.8,0.9
	c2.9,1.6,4.3,5.4,4.3,8.8C675.4,348.3,673.9,352.9,670.9,357.4z"/>
<path d="M633.3,441c-0.1-2.1-5.1-19.8-15.8-43.2c0,0,7.2-5.3,13.7-8c0,0,13.7,21.6,15.8,24.6c0,0-0.1-11.9-4.1-27.8
	c0,0,4.3-3,11.4-5.7c0,0,2.5,28.8,0.4,42.9c0,0-5.6,3.1-7.2,4.8c0,0-9-9.8-11.8-12.8c0,0,3.4,13.8,3.9,19.3c0,0-1.7,1.1-3.2,2.4
	C635,438.8,633.3,441,633.3,441z"/>
<path d="M659.5,423.7c0.5-4.5,1.5-18.8,0.3-43.7c0,0,8.9-4.4,24.1-7.2c0,0,1.1,3.9,0.8,9.7c0,0-11.9,1.6-13.9,2.6
	c0,0-0.9,8.8-1.1,10.3c0,0,3.1-1.5,12.2-3.5l0.3,6.4c0,0-9.3,0.7-13.3,4.5c0,0-1.8,13.2-2.1,17.6c0,0-1.6,0.3-3.4,1
	C661.5,422.2,659.5,423.7,659.5,423.7z"/>
<path id="l_lash_1_" d="M512.4,110.8c-2-0.4-24.3,0.7-27.6-6c0,0,2.1,4.6,8.1,9c0,0-13.9,4.8-19.6-1.6c0,0,6.8,11.3,13.1,13
	c-4.9,0.4-10.4-0.1-11.8-1c1.9,3.8,5.3,5.4,8.7,6.7c0,0-2.1,1.4-6.8,1c0,0,0.7,3.2,5.8,6.2c4.1-8.5,11.5-16.2,14.2-18.5
	c3.5-3.1,6-5.2,13.9-5.5C511.4,112.2,511.2,112.4,512.4,110.8z"/>
<g id="inner_4_">
	<path class="st0" d="M586.2,63.5c0.8,0.1,1.8,0.2,2.9,0.2c5.1,0,12.7-1.6,19-4c6.2-2.3,13-6.8,15.5-11.9c0.6,3,2,7.8,5.4,11.2
		c-3.5,1.3-17.2,5.7-36.8,5.7c0,0,0,0,0,0c-1,0-2,0-3,0l-4.3,0.4L586.2,63.5z"/>
	<path d="M623.3,49.5c0.7,2.8,2,6.4,4.6,9.2c-4.5,1.6-17.5,5.4-35.6,5.4c4.9-0.5,10.9-1.9,16.1-3.8
		C614.1,58.1,620.3,54.2,623.3,49.5 M586.5,64.1c0.4,0.1,0.7,0.1,1.1,0.1l-1.3,0.1L586.5,64.1 M623.8,44.9
		c-0.6,5.6-8.1,11.3-15.9,14.3c-6.3,2.4-13.8,3.9-18.8,3.9c-1.2,0-2.2-0.1-3.1-0.3l-2.5,3.1l5.7-0.6c1,0,2,0,3,0
		c23.3,0,38-6.1,38-6.1C624.3,54.2,623.8,44.9,623.8,44.9L623.8,44.9z"/>
</g>
<g id="ear_r_o_2_">
	<g>
		<g>
			<path d="M633.7,61c0,0-0.3-0.1-0.9-0.3c-0.3-0.1-0.7-0.2-1.1-0.4c-0.4-0.2-0.9-0.5-1.4-0.8c-2-1.3-4.2-3.9-5.5-7.3
				c-1.3-3.4-1.6-6.7-1.4-9c0.1-1.2,0.3-2.1,0.5-2.7c0.2-0.6,0.5-0.9,0.4-0.9c-0.3,0.7-0.3,1.4-0.3,2c0,0.6,0,1.1,0.1,1.5
				c0,0.5,0.1,0.9,0.2,1.2c0.1,0.4,0.1,0.7,0.2,1.1c0.1,0.7,0.3,1.5,0.5,2.5c0.2,1,0.6,2.2,1.1,3.8c0.6,1.6,1.2,2.7,1.8,3.5
				c0.5,0.9,1,1.5,1.5,2.1c0.2,0.3,0.5,0.6,0.7,0.9c0.3,0.3,0.5,0.6,0.8,0.9c0.3,0.3,0.7,0.6,1.1,1C632.5,60.4,633,60.7,633.7,61z"
				/>
		</g>
	</g>
</g>
<g id="inner_3_">
	<path class="st0" d="M402,110.7c4.9-4.5,7.9-11.7,9.2-15.2c1.2,3.6,3.5,6,6.6,6.8c4.9,1.3,9.9,2,15.7,2.2c2.3,0.1,5.1,0.8,7.8,1.5
		c2.4,0.6,4.9,1.2,7,1.4c-0.8,0.4-1.7,0.9-2.4,1.3c-0.7,0.4-1.2,1-1.6,1.6c-0.1-0.2-0.2-0.4-0.4-0.6c-1.4-1.6-4.6-2.5-9.7-2.5
		c-5.8,0-12.6,1.1-16.7,2c-5.8,1.3-12,1.5-15.3,1.5C402.2,110.7,402.1,110.7,402,110.7z"/>
	<path d="M411.2,97.2c1.4,3,3.6,5,6.4,5.7c5,1.3,10,2,15.8,2.3c2.2,0.1,5,0.8,7.6,1.5c1.7,0.4,3.5,0.9,5.2,1.2
		c-0.2,0.1-0.5,0.3-0.7,0.4c-0.5,0.3-0.9,0.7-1.2,1c-1.5-1.8-4.8-2.7-10.1-2.7c-5.8,0-12.7,1.1-16.8,2c-5,1.1-10.5,1.4-13.9,1.5
		C407.3,106.1,409.8,100.7,411.2,97.2 M411.3,93.4c0,0-3.7,12.2-10.9,17.9c0,0,0.7,0,1.9,0c3.1,0,9.5-0.2,15.4-1.5
		c4-0.9,10.9-2,16.5-2c5.8,0,10.4,1.1,9.7,4.6c0,0,0.6-2.1,2.3-3.1c1.7-1,4.9-2.5,4.9-2.5c-0.5,0.1-1,0.1-1.6,0.1
		c-4.5,0-11.3-2.8-16-3c-5.8-0.2-10.7-1-15.5-2.2C413.2,100.5,411.7,95.6,411.3,93.4L411.3,93.4z"/>
</g>
<g>
	<g>
		<g>
			<path d="M396.4,112.7c0,0,0.3-0.2,0.9-0.5c0.6-0.3,1.5-0.9,2.5-1.7c2-1.6,4.3-4.3,6.3-7.6c2-3.3,3.5-6.5,4.4-9
				c0.4-1.2,0.7-2.2,0.8-2.9c0.1-0.7,0.1-1.1,0.1-1c0.2,0.8,0.1,1.6,0.1,2.3c-0.1,0.7-0.1,1.3-0.2,1.8c-0.2,1.1-0.4,1.9-0.6,2.7
				c-0.1,0.4-0.3,0.8-0.4,1.3c-0.2,0.4-0.4,0.9-0.6,1.5c-0.5,1.1-1.1,2.4-2.2,4.1c-1.1,1.7-2,2.9-2.8,3.8c-0.4,0.5-0.8,0.9-1.1,1.2
				c-0.4,0.3-0.7,0.6-1.1,0.9C400.9,110.7,399.5,111.8,396.4,112.7z"/>
		</g>
	</g>
</g>
<g>
	<g>
		<g>
			<path d="M442.7,114c0,0.1-0.1-1,0.6-2.4c0.6-1.5,2.2-3.3,4.4-4.3c1.1-0.6,2.2-0.9,3.1-1.1c0.9-0.3,1.8-0.6,2.4-0.9
				c1.3-0.7,1.8-1.5,1.8-1.5c-0.3,1-0.9,1.6-1.3,2c-0.5,0.4-0.9,0.7-1.3,1c-0.5,0.3-0.9,0.5-1.6,0.8c-0.7,0.3-1.4,0.5-2.4,1
				c-1.9,1-2.7,1.8-3.4,2.4c-0.4,0.3-0.7,0.7-1.1,1.1C443.5,112.5,443,113.1,442.7,114z"/>
		</g>
	</g>
</g>
<g>
	<path class="st0" d="M601.9,289.6c-5.9,0-15.4-2-21.8-3.6c-5.4-1.4-12.3-2.2-20-2.2c-11.3,0-23.8,1.6-35.3,4.5l0.7-2.1
		c11.4-4.9,29.7-9.5,43-12.2c3.5-0.7,6.8-1,10.1-1c5.4,0,9.8,0.9,13.6,1.7l1.3,0.3c2,0.4,4.2,0.6,6.3,0.6c4.6,0,8.6-1,10.9-2.8
		c3.1-2.4,6.2-6,6.7-6.7c1.5-0.6,15.1-5.9,21.1-9.8l2.8,1.5c-2.7,2.8-6.3,4.4-8.7,5.5c-0.7,0.3-1.4,0.6-1.8,0.8
		c-2.6,1.4-9,7-12.6,12c-3.1,4.3-8.9,12.3-13.8,13.1C603.9,289.5,603,289.6,601.9,289.6z"/>
	<path d="M638.7,257l1.9,1.1c-2.6,2.5-5.8,3.9-8.1,4.9c-0.7,0.3-1.4,0.6-1.8,0.9c-2.6,1.5-9.1,7.1-12.8,12.2
		c-3.1,4.2-8.7,12.1-13.5,12.9c-0.7,0.1-1.6,0.2-2.6,0.2c-5.9,0-15.3-1.9-21.6-3.6c-5.5-1.4-12.4-2.2-20.1-2.2
		c-11,0-23.2,1.5-34.5,4.3l0.4-1c11.4-4.9,29.5-9.4,42.7-12c3.5-0.7,6.8-1,10-1c5.3,0,9.7,0.9,13.5,1.7l1.3,0.3
		c2.1,0.4,4.2,0.6,6.4,0.6c4.7,0,8.8-1.1,11.2-2.9c3-2.3,6-5.8,6.7-6.7C619.9,265.8,632.7,260.8,638.7,257 M638.7,255.8
		c-6.1,4.1-21.4,9.9-21.4,9.9s-3.4,4.2-6.7,6.7c-2.3,1.7-6.3,2.7-10.6,2.7c-2,0-4.1-0.2-6.2-0.6c-4.3-0.9-9-2-15-2
		c-3,0-6.4,0.3-10.2,1c-11.4,2.3-31,6.9-43.3,12.3l-1.1,3.2c11.9-3.1,24.7-4.8,36.1-4.8c7.5,0,14.3,0.7,19.8,2.2
		c7.2,1.9,16.2,3.6,21.9,3.6c1,0,2-0.1,2.7-0.2c5-0.8,10.5-8.3,14.1-13.3s10-10.5,12.5-11.9c1.9-1,7.4-2.8,11.1-6.9L638.7,255.8
		L638.7,255.8z"/>
</g>
<g>
	<path d="M164.5,239.2c-0.5,0.5-1.4,0.9-2.5,1.1l-13.9,1.8c-0.4,0.1-0.7,0-1-0.1c-0.3-0.1-0.5-0.4-0.6-0.6c-0.2-0.3-0.3-0.6-0.4-0.9
		c-0.1-0.4-0.1-0.7-0.1-1.1c0-0.5,0.1-0.9,0.2-1.2l2.3-26.5c0.1-1.1,0.2-2,0.5-2.6c0.3-0.6,1.1-1,2.4-1c0.9,0,1.4,0.3,1.7,0.8
		c0.2,0.6,0.3,1.4,0.2,2.7l-2.2,25.8l10-1.4c1.3-0.2,2.3-0.2,3,0c0.7,0.3,1,0.8,1,1.7C165.2,238.2,165,238.6,164.5,239.2z"/>
	<path d="M188.3,225.5c-0.1,1.1-0.6,2.1-1.6,2.9c-1,0.9-2.4,1.6-4,2.3c-1.6,0.7-3.4,1.3-5.3,1.8c-1.9,0.5-3.8,1-5.6,1.5
		c-0.1,0.8,0,1.6,0.1,2.2c0.1,0.6,0.3,1.1,0.6,1.4c0.3,0.3,0.6,0.5,0.9,0.7c0.3,0.1,0.6,0.2,0.9,0.2c0.3,0,0.6,0,0.8,0
		c0.8,0,1.6-0.1,2.4-0.4c0.8-0.3,1.5-0.6,2.3-1c0.8-0.4,1.5-0.8,2.2-1.3c0.7-0.5,1.4-1,2-1.5c0.4-0.2,0.7-0.4,0.9-0.5
		c0.2-0.1,0.4-0.2,0.6-0.2c0.2,0,0.4-0.1,0.6-0.1c0.2,0,0.5,0,0.9,0c0.6,0,0.9,0.2,1.1,0.6c0.2,0.4,0.2,1,0.2,1.7
		c0,0.5-0.5,1.1-1.3,1.8c-0.9,0.8-2,1.5-3.3,2.2c-1.4,0.7-2.9,1.3-4.5,1.9c-1.7,0.5-3.4,0.8-5.1,0.8c-2.3,0-4.1-0.7-5.3-2
		c-1.2-1.3-1.8-3.4-1.6-6.2c0.1-1.9,0.6-3.7,1.3-5.6c0.8-1.8,1.8-3.5,3-4.9c1.3-1.5,2.8-2.7,4.5-3.6c1.7-0.9,3.6-1.4,5.6-1.4
		c1,0,2,0.2,2.9,0.5c0.9,0.3,1.6,0.8,2.2,1.4c0.6,0.6,1.1,1.3,1.4,2.1C188.2,223.7,188.3,224.6,188.3,225.5z M183.6,224.8
		c0.1-0.5-0.1-0.9-0.5-1.4c-0.4-0.5-1.1-0.7-2.1-0.7c-0.7,0-1.5,0.2-2.4,0.5s-1.7,0.8-2.5,1.5c-0.8,0.6-1.5,1.4-2.1,2.2
		c-0.6,0.9-1.1,1.9-1.5,3c0.4,0.1,0.9,0.1,1.6,0c0.7-0.1,1.4-0.3,2.2-0.6c0.8-0.3,1.6-0.6,2.4-1c0.8-0.4,1.6-0.8,2.2-1.2
		c0.7-0.4,1.3-0.8,1.8-1.2C183.2,225.5,183.5,225.1,183.6,224.8z"/>
	<path d="M207.7,236.8l-1,1.1c-0.4,0.4-1,0.8-1.6,1.2c-0.6,0.5-1.3,0.9-2.1,1.3c-0.8,0.4-1.7,0.7-2.6,1c-1,0.3-1.9,0.4-3,0.4
		c-0.4,0-0.9,0-1.2-0.1c-0.4-0.1-0.8-0.2-1.1-0.5c-0.3-0.2-0.5-0.6-0.7-1c-0.2-0.4-0.2-1-0.1-1.8l1.1-15.7l-1.9,0.4
		c-2,0-2.9-0.5-2.8-1.4c0-0.6,0.2-1.1,0.5-1.6c0.3-0.4,0.9-0.8,1.7-1l2.8-0.5l0.2-3.6c0-2.3,1-3.4,2.9-3.3c0.5,0,0.8,0.1,1.1,0.3
		c0.2,0.2,0.4,0.4,0.5,0.7c0.1,0.3,0.2,0.6,0.2,1c0,0.4,0,0.8,0,1.3l-0.2,2.9l5.8-0.8c0.8-0.2,1.4-0.3,1.9-0.2c0.4,0,0.8,0.1,1,0.3
		c0.2,0.2,0.3,0.4,0.4,0.8c0,0.3,0,0.7,0,1c0.1,0.5-0.1,0.9-0.5,1.2c-0.4,0.3-1.3,0.7-2.5,1l-6.2,0.9l-1,13.8c0,0.3,0,0.5,0.2,0.6
		c0.2,0.1,0.3,0.1,0.5,0.1c0.7,0,1.3-0.2,1.7-0.6c0.4-0.4,0.7-0.7,1-0.9c0.4-0.4,1-0.8,1.6-1c0.6-0.2,1.2-0.2,1.8-0.1
		c0.6,0.1,1,0.4,1.4,0.8C207.6,235.4,207.8,236,207.7,236.8z"/>
	<path d="M217.6,220.1c-0.2,0.5-0.5,1-0.8,1.3c-0.3,0.4-0.6,0.6-1,0.8c-0.4,0.2-0.7,0.2-1,0.2c-0.6-0.1-0.9-0.4-1.1-0.8
		c-0.2-0.4-0.3-0.9-0.3-1.4c0-0.5,0.1-1.1,0.3-1.9l1-6c0.1-0.5,0.2-1,0.3-1.5c0.1-0.5,0.3-1,0.6-1.4s0.6-0.7,0.9-0.9
		c0.4-0.2,0.8-0.4,1.4-0.4c0.6,0,1.1,0.1,1.3,0.4c0.3,0.3,0.4,0.6,0.5,1c0.1,0.4,0.1,0.8,0,1.2c-0.1,0.4-0.1,0.8-0.1,1.2l-1.5,6.4
		C218,219,217.9,219.5,217.6,220.1z"/>
	<path d="M240.2,235.4c-1,1.4-2.1,2.6-3.6,3.6c-1.5,1.1-3.1,1.9-4.8,2.5c-1.8,0.6-3.5,0.9-5.3,0.9c-0.9,0-1.8-0.1-2.9-0.4
		c-1.1-0.3-2-0.6-2.9-1.1c-0.9-0.5-1.6-1-2.1-1.6c-0.5-0.6-0.7-1.3-0.6-2.1c0.1-0.5,0.3-0.8,0.6-1.1c0.3-0.3,0.7-0.5,1.1-0.6
		c0.4-0.1,0.8-0.1,1.2,0c0.4,0.1,0.8,0.2,1,0.4c1.1,0.8,2,1.4,2.7,1.8c0.8,0.4,1.4,0.6,2,0.6c1.2,0,2.5-0.2,3.7-0.6
		c1.2-0.4,2.3-1,3.3-1.6c1-0.7,1.8-1.4,2.4-2.2c0.6-0.8,0.9-1.6,1-2.4c0-0.4-0.1-0.8-0.4-1c-0.3-0.2-0.7-0.4-1.1-0.4
		c-0.7,0-1.5,0.2-2.4,0.5c-0.9,0.3-1.9,0.7-2.9,1c-1,0.4-2,0.7-3.1,1c-1,0.3-2,0.5-2.9,0.5c-1,0-1.8-0.1-2.5-0.5
		c-0.6-0.3-1.2-0.7-1.5-1.1c-0.4-0.5-0.6-1-0.8-1.5c-0.1-0.5-0.2-1.1-0.2-1.6c0.2-1.7,0.8-3.2,2-4.4c1.1-1.3,2.5-2.3,4.1-3.2
		c1.6-0.8,3.4-1.5,5.4-1.9c2-0.4,3.8-0.6,5.6-0.6c1.2,0,2.1,0.2,2.7,0.5c0.6,0.4,1,0.8,1.2,1.2c0.2,0.5,0.1,1-0.1,1.4
		c-0.2,0.5-0.6,0.8-1.2,1c-0.3,0.1-0.7,0.2-1.1,0.2c-0.4,0-0.9,0-1.2,0s-0.8,0-1,0c-0.3,0-0.5-0.1-0.5-0.1c-1.7,0-3.2,0.1-4.5,0.5
		c-1.3,0.3-2.5,0.7-3.4,1.2c-0.9,0.5-1.7,1.1-2.2,1.7c-0.5,0.6-0.8,1.2-0.9,1.9c0,0.2,0,0.4,0.1,0.6c0.1,0.2,0.4,0.3,1,0.3
		c0.4,0,1-0.2,1.9-0.5c0.8-0.3,1.8-0.6,2.9-1c1.1-0.4,2.2-0.7,3.4-1c1.2-0.3,2.4-0.5,3.5-0.5c0.6,0,1.3,0.1,1.9,0.3
		c0.6,0.2,1.2,0.5,1.7,1c0.5,0.5,0.9,1,1.1,1.7c0.3,0.7,0.4,1.5,0.3,2.4C241.6,232.6,241.1,234,240.2,235.4z"/>
	<path d="M136.3,273.9c-0.1,1.1-0.6,2.1-1.6,2.9c-1,0.9-2.4,1.6-4,2.3c-1.6,0.7-3.4,1.3-5.3,1.8c-1.9,0.5-3.8,1-5.6,1.5
		c-0.1,0.8,0,1.6,0.1,2.2c0.1,0.6,0.3,1.1,0.6,1.4c0.3,0.3,0.6,0.5,0.9,0.7c0.3,0.1,0.6,0.2,0.9,0.2c0.3,0,0.6,0,0.8,0
		c0.8,0,1.6-0.1,2.4-0.4c0.8-0.3,1.5-0.6,2.3-1c0.8-0.4,1.5-0.8,2.2-1.3c0.7-0.5,1.4-1,2-1.5c0.4-0.2,0.7-0.4,0.9-0.5
		c0.2-0.1,0.4-0.2,0.6-0.2c0.2,0,0.4-0.1,0.6-0.1c0.2,0,0.5,0,0.9,0c0.6,0,0.9,0.2,1.1,0.6c0.2,0.4,0.2,1,0.2,1.7
		c0,0.5-0.5,1.1-1.3,1.8c-0.9,0.8-2,1.5-3.3,2.2c-1.4,0.7-2.9,1.3-4.5,1.9c-1.7,0.5-3.4,0.8-5.1,0.8c-2.3,0-4.1-0.7-5.3-2
		c-1.2-1.3-1.8-3.4-1.6-6.2c0.1-1.9,0.6-3.7,1.3-5.6c0.8-1.8,1.8-3.5,3-4.9c1.3-1.5,2.8-2.7,4.5-3.6c1.7-0.9,3.6-1.4,5.6-1.4
		c1,0,2,0.2,2.9,0.5c0.9,0.3,1.6,0.8,2.2,1.4c0.6,0.6,1.1,1.3,1.4,2.1C136.2,272.1,136.4,273,136.3,273.9z M131.6,273.2
		c0.1-0.5-0.1-0.9-0.5-1.4c-0.4-0.5-1.1-0.7-2.1-0.7c-0.7,0-1.5,0.2-2.4,0.5s-1.7,0.8-2.5,1.5c-0.8,0.6-1.5,1.4-2.1,2.2
		c-0.6,0.9-1.1,1.9-1.5,3c0.4,0.1,0.9,0.1,1.6,0c0.7-0.1,1.4-0.3,2.2-0.6c0.8-0.3,1.6-0.6,2.4-1c0.8-0.4,1.6-0.8,2.2-1.2
		c0.7-0.4,1.3-0.8,1.8-1.2C131.2,273.9,131.5,273.5,131.6,273.2z"/>
	<path d="M158.7,284.4l-0.1,2.2c0.1,1.1-0.1,1.9-0.6,2.5c-0.5,0.6-1.1,0.8-2,0.8c-0.9-0.1-1.5-0.3-1.8-0.7c-0.3-0.4-0.4-1.2-0.4-2.4
		l1-13.8c0-0.2,0-0.4-0.1-0.8c-0.1-0.3-0.3-0.5-0.6-0.5c-0.1,0-0.5,0-1.1,0.1c-0.6,0.1-1.3,0.2-2.1,0.4c-0.8,0.2-1.7,0.5-2.6,1
		c-0.9,0.4-1.8,1-2.7,1.7l-1.2,12.1c0,0.3,0,0.6,0,0.9c-0.1,0.3-0.2,0.6-0.4,1c-0.2,0.3-0.5,0.6-0.9,0.8c-0.4,0.2-0.8,0.4-1.4,0.4
		c-0.7,0.1-1.2-0.1-1.5-0.5c-0.3-0.4-0.5-0.9-0.5-1.5c0-0.2,0-0.4,0-0.6c0-0.2,0-0.4,0.1-0.6c0.1-2.1,0.2-3.7,0.3-4.8
		c0.1-1.1,0.2-1.9,0.2-2.6c0-0.6,0.1-1.2,0.1-1.6c0.1-0.4,0.1-1.1,0.1-1.9l0.4-6c0-0.8,0.2-1.5,0.7-2.1c0.4-0.6,1.2-0.9,2.1-1.1
		c0.6-0.1,1.1-0.1,1.3-0.1c0.2,0.1,0.4,0.2,0.5,0.4c0.1,0.2,0.1,0.4,0.1,0.7c0,0.3,0,0.5,0.1,0.9l0.1,0.9c0.5-0.1,1.2-0.4,2.1-0.6
		c0.9-0.3,1.8-0.6,2.8-0.9c1-0.3,1.9-0.6,2.8-0.8c0.9-0.2,1.6-0.4,2.2-0.4c0.5,0,0.9,0.1,1.4,0.2c0.5,0.2,0.9,0.4,1.3,0.8
		c0.4,0.3,0.7,0.7,0.9,1.2c0.2,0.4,0.3,0.9,0.3,1.5L158.7,284.4z"/>
	<path d="M186.7,284.6l-0.3,2c0.1,1.1,0,1.9-0.3,2.5c-0.3,0.6-1,0.9-2.2,0.9c-0.5,0-0.8,0-1.1,0c-0.3,0-0.5-0.1-0.6-0.3
		c-0.1-0.2-0.3-0.4-0.3-0.8c-0.1-0.3-0.1-0.8-0.2-1.5c-0.3-0.1-0.6-0.1-1,0.2c-0.4,0.3-1,0.6-1.8,1c-0.8,0.4-2,0.8-3.4,1.1
		c-1.5,0.3-3.5,0.5-6,0.5c-0.6,0-1.2-0.2-2-0.7c-0.8-0.4-1.5-1.1-2.1-1.9c-0.6-0.8-1.1-1.8-1.5-2.9c-0.3-1.1-0.4-2.3-0.1-3.6
		c0.2-1.1,0.7-2.3,1.4-3.8c0.7-1.5,1.8-2.9,3.1-4.3c1.4-1.4,3.1-2.6,5.1-3.5c2.1-1,4.5-1.5,7.4-1.5c0.4,0,0.7,0,1.1,0.1
		c0.3,0,0.7,0.2,1,0.6l0.6-9c0.1-0.5,0.1-1,0.2-1.4c0.1-0.4,0.2-0.8,0.4-1.1c0.2-0.3,0.4-0.6,0.8-0.8c0.4-0.2,0.9-0.3,1.5-0.3
		c0.6,0,1.1,0.1,1.4,0.3c0.3,0.2,0.5,0.5,0.6,0.8c0.1,0.3,0.1,0.7,0.1,1c0,0.4-0.1,0.7-0.2,1L186.7,284.6z M182.6,277.5l0.1-3.4
		c0.1-0.5,0-0.9-0.3-1.1c-0.3-0.3-0.7-0.5-1.2-0.5c-1.1,0-2.2,0.1-3.2,0.2c-1.1,0.1-2.2,0.5-3.3,1c-1.1,0.5-2.1,1.3-3.2,2.3
		c-1,1-2,2.4-2.9,4.1c-0.3,0.6-0.5,1.3-0.5,2c0,1,0.2,1.8,0.7,2.5c0.4,0.7,1,1.2,1.7,1.6c0.4,0.2,0.9,0.2,1.6,0.1
		c0.7-0.1,1.5-0.3,2.4-0.6c0.9-0.3,1.8-0.7,2.7-1.2c0.9-0.5,1.8-1.1,2.6-1.8c0.8-0.7,1.4-1.5,1.9-2.4
		C182.3,279.5,182.6,278.6,182.6,277.5z"/>
	<path d="M232,286.8c0,0.3-0.1,0.6-0.2,1c-0.1,0.4-0.2,0.7-0.4,1c-0.2,0.3-0.4,0.6-0.6,0.8c-0.2,0.2-0.6,0.3-1,0.3
		c-0.6,0-1.1,0-1.5-0.1c-0.4-0.1-0.6-0.2-0.9-0.4c-0.2-0.1-0.3-0.3-0.4-0.5c-0.1-0.2-0.2-0.3-0.3-0.5c-0.4-0.6-1-1.4-1.6-2.3
		c-0.6-0.9-1.3-1.9-2-2.9c-0.7-1-1.3-2-1.9-2.9c-0.6-0.9-1.1-1.8-1.5-2.4c-0.4-0.7-0.9-1.6-1.5-2.5c-0.6-0.9-1.3-1.9-2-2.9
		c-0.7-1-1.4-1.9-2.1-2.9c-0.7-1-1.4-1.9-2-2.8l-1.8,20c0.2,0.7,0.1,1.5-0.2,2.1c-0.4,0.7-1,1.1-1.9,1.1c-2.2,0.2-3.1-1-2.6-3.5
		l2.3-26.3c0.2-1.5,0.5-2.5,0.9-3c0.4-0.4,1-0.6,1.8-0.6c0.3,0,0.7,0.1,1,0.3c0.3,0.2,0.6,0.5,0.9,0.8c0.3,0.3,0.5,0.7,0.8,1
		c0.2,0.4,0.4,0.7,0.6,1c0.3,0.7,0.6,1.3,0.8,1.6c0.2,0.3,0.3,0.6,0.4,0.8c0.1,0.2,0.2,0.3,0.3,0.4c0.1,0.1,0.2,0.3,0.4,0.6
		c1.1,1.8,2.1,3.3,2.9,4.6c0.8,1.3,1.5,2.5,2.2,3.5c0.7,1.1,1.4,2.1,2,3c0.6,1,1.4,2,2.2,3.1c0.1,0.2,0.3,0.4,0.5,0.8
		c0.2,0.3,0.5,0.7,0.8,1.1c0.3,0.4,0.6,0.8,0.8,1.1c0.3,0.4,0.4,0.6,0.5,0.7l1.8-21.8c0-0.3,0.1-0.7,0.1-1.1c0-0.4,0.2-0.7,0.3-1
		c0.2-0.3,0.4-0.6,0.7-0.8c0.3-0.2,0.7-0.3,1.3-0.3c1.1,0,1.7,0.2,2,0.8s0.3,1.4,0.3,2.7L232,286.8z"/>
	<path d="M261.2,260.3c-0.5,0.4-1.3,0.6-2.6,0.8l-13,0.9l-0.7,8.5l8.6-1.3c0.5-0.1,1.1-0.2,1.9-0.2c0.8-0.1,1.5-0.1,2.3-0.1
		c0.7,0,1.3,0.2,1.8,0.5c0.5,0.3,0.7,0.8,0.5,1.6c-0.1,0.4-0.1,0.8-0.2,1.1c-0.1,0.3-0.2,0.6-0.5,0.8c-0.2,0.2-0.6,0.4-1.1,0.5
		c-0.5,0.1-1.2,0.2-2.2,0.3l-11.4,1.8l-1.1,10.6c-0.1,0.7-0.2,1.2-0.3,1.7c-0.1,0.5-0.2,0.9-0.5,1.1c-0.2,0.3-0.5,0.5-0.8,0.7
		c-0.3,0.1-0.8,0.3-1.3,0.3c-1.1,0.2-1.8,0-2.1-0.6c-0.3-0.6-0.3-1.6-0.2-3.3l1.3-11.3c0.1-1.1,0.2-2.1,0.2-2.8
		c0.1-0.8,0.1-1.5,0.2-2.4c0.1-0.9,0.2-1.9,0.3-3c0.1-1.2,0.2-2.8,0.4-4.8c-0.2-0.7-0.3-1.3-0.3-1.8c0-0.5,0.2-0.9,0.5-1.1
		c0.3-0.3,0.7-0.5,1.3-0.7c0.6-0.2,1.4-0.3,2.4-0.4c0.4,0,0.7-0.1,1-0.1c0.3,0,0.9-0.1,1.7-0.2c0.8-0.1,2.1-0.2,3.7-0.4
		c1.6-0.1,3.9-0.4,6.9-0.6c1.3-0.1,2.3,0,2.9,0.3c0.6,0.3,1,0.9,1.1,1.9C261.9,259.4,261.6,260,261.2,260.3z"/>
	<path d="M270,286.1c-0.2,1.6-0.6,2.7-1.3,3.2c-0.7,0.5-1.6,0.8-2.8,0.8c-0.5,0-0.9-0.1-1.1-0.2c-0.3-0.2-0.5-0.4-0.7-0.6
		c-0.2-0.3-0.3-0.6-0.4-0.9c-0.1-0.3-0.1-0.6,0-0.9c0.1-1.2,0.5-2.2,1.3-3s1.6-1.2,2.6-1.2s1.7,0.3,2,0.8
		C269.9,284.6,270,285.3,270,286.1z M270.3,277.2c-0.1,1.2-0.4,2.2-0.9,2.9c-0.5,0.8-1.3,1.1-2.3,1.1c-1,0-1.5-0.4-1.7-1.2
		c-0.1-0.8-0.1-1.8,0.2-3l1.5-17.7c0-0.4,0-0.9,0-1.4c0-0.5,0.1-1,0.3-1.4c0.2-0.5,0.5-0.8,0.9-1.2c0.4-0.3,0.9-0.5,1.6-0.5
		c0.6,0,1,0.2,1.3,0.5c0.3,0.3,0.5,0.7,0.7,1.2c0.1,0.5,0.2,1,0.2,1.6c0,0.6,0,1.1-0.1,1.6L270.3,277.2z"/>
</g>
<g>
	<path d="M73.7,130.2c-0.5,0.5-1.1,0.7-1.7,0.6c-1.1-0.2-1.8-0.6-2-1.1s-0.3-1.4-0.2-2.5l0.7-10c0.1-1.4,0.2-2.9,0.4-4.6
		c0.1-1.7,0.3-3.3,0.4-4.9c0.1-1.6,0.3-3,0.4-4.4c0.1-1.3,0.2-2.3,0.3-3c0-0.3,0.1-0.7,0.2-1.1c0.1-0.4,0.3-0.7,0.5-1
		c0.2-0.3,0.5-0.5,0.9-0.7c0.4-0.2,0.8-0.2,1.3-0.1c0.5,0.1,0.9,0.2,1.2,0.5c0.3,0.3,0.4,0.6,0.5,1c0.1,0.4,0.1,0.8,0.1,1.2
		c0,0.4,0,0.7-0.1,0.9l-0.9,10l15.8-0.6l0.9-11.8c0.1-0.4,0.1-0.8,0.2-1.1c0.1-0.4,0.2-0.7,0.5-1c0.2-0.3,0.5-0.5,0.9-0.7
		c0.4-0.2,1-0.2,1.7-0.2c0.6,0,1,0.1,1.3,0.3c0.3,0.2,0.5,0.4,0.6,0.8c0.1,0.3,0.1,0.7,0.1,1.1c0,0.4-0.1,0.9-0.1,1.3l-2.1,25.5
		c0,0.4,0,0.9,0,1.5c0,0.5-0.1,1-0.2,1.5c-0.1,0.5-0.3,0.9-0.6,1.3c-0.3,0.4-0.8,0.6-1.5,0.6c-1,0.1-1.8-0.3-2.3-1
		c-0.5-0.8-0.6-1.6-0.5-2.6l0.9-10.9l-15.6,0.5l-1,12.2C74.5,128.8,74.2,129.7,73.7,130.2z"/>
	<path d="M105.7,126.9c-0.1,0.5-0.1,1-0.2,1.5c-0.1,0.5-0.2,0.9-0.4,1.3c-0.2,0.4-0.4,0.6-0.8,0.8c-0.4,0.2-0.8,0.3-1.5,0.2
		c-0.6-0.1-1-0.2-1.3-0.4c-0.3-0.2-0.5-0.5-0.5-0.9c-0.1-0.4-0.1-0.8-0.1-1.2c0-0.5,0.1-1,0.1-1.5l0.9-14c0.1-1,0.1-1.8,0.2-2.4
		c0.1-0.6,0.2-1.2,0.4-1.6c0.2-0.4,0.5-0.7,0.9-0.8c0.4-0.2,1-0.2,1.8-0.2c0.4,0,0.7,0,1,0.1c0.3,0.1,0.5,0.3,0.6,0.7
		c0.2,0.4,0.2,0.9,0.2,1.5c0,0.6-0.1,1.5-0.2,2.7L105.7,126.9L105.7,126.9z M108.6,101.3c-0.1,1-0.4,2-1.1,2.8
		c-0.7,0.8-1.7,1.3-3,1.3c-0.3,0-0.5-0.1-0.9-0.3c-0.3-0.2-0.6-0.4-0.8-0.8c-0.2-0.3-0.5-0.7-0.6-1.1s-0.2-0.8-0.2-1.2
		c0.1-1.6,0.5-2.7,1.2-3.4c0.7-0.7,1.6-1,2.7-1c1.1,0,1.8,0.2,2.1,0.7c0.3,0.4,0.4,1,0.4,1.6L108.6,101.3z"/>
	<path d="M117.8,128.8c-0.1,0.8-0.3,1.6-0.7,2.5c-0.4,0.9-0.9,1.7-1.6,2.4c-0.6,0.7-1.4,1.3-2.2,1.8c-0.8,0.5-1.7,0.7-2.6,0.7
		c-0.5,0-1-0.1-1.3-0.4c-0.3-0.2-0.5-0.8-0.4-1.6c0-0.2,0.3-0.3,0.8-0.5c0.5-0.2,0.9-0.4,1.4-0.7c0.4-0.3,0.7-0.7,0.9-1.2
		c0.1-0.5-0.1-1.2-0.8-2.1c-0.3-0.5-0.5-1-0.6-1.6c-0.1-0.6,0-1.2,0.2-1.8c0.2-0.6,0.7-1,1.2-1.4c0.6-0.4,1.5-0.6,2.6-0.6
		c1.4,0,2.3,0.4,2.8,1.2C117.7,126.3,117.9,127.4,117.8,128.8z"/>
	<path d="M140.4,128.7c-0.1,0.5-0.2,0.9-0.4,1.2c-0.2,0.3-0.4,0.6-0.8,0.7c-0.3,0.2-0.8,0.2-1.3,0.1c-1.1-0.1-1.7-0.5-2-1.2
		s-0.3-1.5-0.1-2.4l2.3-26.1c0-0.6,0-1.1,0.1-1.6c0.1-0.5,0.2-0.9,0.4-1.1c0.2-0.3,0.6-0.5,1-0.7c0.4-0.2,1-0.2,1.8-0.2
		c0.6,0,1,0.1,1.2,0.4c0.2,0.3,0.4,0.6,0.5,1.1c0,0.4,0,0.9-0.1,1.3c-0.1,0.5-0.2,0.9-0.2,1.4l-2.2,25.7
		C140.5,127.8,140.4,128.3,140.4,128.7z"/>
	<path d="M152,109.3c-0.2,0.5-0.5,1-0.8,1.3c-0.3,0.4-0.6,0.6-1,0.8c-0.4,0.2-0.7,0.2-1,0.2c-0.6-0.1-0.9-0.4-1.1-0.8
		c-0.2-0.4-0.3-0.9-0.3-1.4c0-0.5,0.1-1.1,0.3-1.9l1-6c0.1-0.5,0.2-1,0.3-1.5c0.1-0.5,0.3-1,0.6-1.4s0.6-0.7,0.9-0.9
		c0.4-0.2,0.8-0.4,1.4-0.4c0.6,0,1.1,0.1,1.3,0.4c0.3,0.3,0.4,0.6,0.5,1c0.1,0.4,0.1,0.8,0,1.2c-0.1,0.4-0.1,0.8-0.1,1.2l-1.5,6.4
		C152.4,108.2,152.2,108.7,152,109.3z"/>
	<path d="M186.7,127.2c-0.4,2.6-1.3,3.7-2.7,3.5c-0.7-0.1-1.2-0.4-1.5-0.9c-0.3-0.5-0.4-1.2-0.5-2.1l1-14.2c0-0.2,0-0.4,0-0.6
		c0-0.1-0.1-0.2-0.4-0.2c-0.1,0-0.5,0.1-1.1,0.2c-0.6,0.1-1.3,0.4-2.2,0.7c-0.8,0.3-1.7,0.8-2.6,1.3c-0.9,0.6-1.8,1.2-2.5,2.1
		l-0.9,10.2c0,0.3,0,0.6-0.1,1c-0.1,0.4-0.2,0.9-0.4,1.2c-0.2,0.4-0.4,0.7-0.7,1c-0.3,0.3-0.7,0.4-1.1,0.3c-1-0.2-1.7-0.5-2-1
		c-0.3-0.5-0.4-1.4-0.4-2.6l1-13.8c0-0.2,0-0.4,0-0.5c0-0.1-0.1-0.2-0.3-0.2c-0.2,0-0.6,0.1-1.3,0.4c-0.7,0.3-1.4,0.6-2.2,1.1
		c-0.8,0.4-1.6,0.9-2.5,1.4c-0.8,0.5-1.5,1-2.1,1.5l-1.2,10.1c0,0.5-0.1,0.9-0.2,1.4c-0.1,0.4-0.2,0.8-0.4,1.1
		c-0.2,0.3-0.5,0.5-0.8,0.7c-0.3,0.1-0.8,0.2-1.2,0.1c-1-0.2-1.6-0.6-1.8-1.2c-0.2-0.6-0.3-1.3-0.1-2.1l1.1-16.1
		c0.1-1.1,0.4-1.8,0.9-2.2c0.5-0.4,1.1-0.6,1.9-0.6c0.7,0,1.2,0.2,1.5,0.6c0.4,0.4,0.4,1,0.2,1.7l-0.1,1.5c1-0.4,2-1,3.1-1.6
		c1.1-0.6,2.1-1.2,3.2-1.7c1-0.5,2-1,2.8-1.3c0.9-0.4,1.7-0.5,2.3-0.4c0.6,0.1,1.1,0.2,1.5,0.4c0.3,0.2,0.5,0.8,0.6,1.9l0.1,2
		c1.8-0.9,3.3-1.6,4.4-2.1c1.1-0.5,2.2-1,3.1-1.5c1-0.5,1.9-0.7,2.7-0.6c0.8,0.1,1.3,0.4,1.8,0.8c0.5,0.4,0.8,0.9,1,1.5
		c0.2,0.6,0.3,1.1,0.2,1.6l-1.1,16.2V127.2z"/>
	<path d="M97.4,177c-0.1,0.5-0.2,0.8-0.5,1.2c-0.2,0.3-0.5,0.6-0.9,0.8c-0.4,0.2-0.8,0.3-1.4,0.2c-1-0.1-1.6-0.4-1.8-1
		c-0.2-0.6-0.3-1.4-0.1-2.2l1.8-19c-0.8,1.1-1.6,2.3-2.5,3.5c-0.9,1.2-1.7,2.4-2.5,3.6c-0.8,1.1-1.5,2.2-2.1,3.1
		c-0.6,0.9-1.1,1.6-1.4,2.1c-0.4,0.7-0.6,1.2-0.8,1.5c-0.2,0.3-0.3,0.7-0.5,0.9c-0.1,0.3-0.3,0.6-0.4,0.8c-0.2,0.3-0.4,0.6-0.8,1.1
		c-0.5,0.7-1,1.1-1.6,1.3c-0.6,0.2-1.1,0.2-1.6,0.1c-0.5-0.1-1-0.3-1.4-0.5c-0.4-0.3-0.6-0.5-0.7-0.8c-0.2-0.5-0.4-0.8-0.5-1
		c-0.1-0.2-0.2-0.4-0.3-0.6c-0.1-0.2-0.2-0.5-0.4-0.8c-0.1-0.3-0.3-0.9-0.6-1.5c-0.8-2-1.6-4-2.5-6.1c-0.9-2-1.8-4.1-2.6-6
		l-1.5,17.9c0,0.3-0.1,0.7-0.2,1.1c-0.1,0.5-0.3,0.9-0.5,1.2c-0.2,0.4-0.5,0.7-0.8,1c-0.3,0.2-0.7,0.3-1.1,0.3
		c-0.7-0.1-1.2-0.4-1.7-0.9c-0.4-0.5-0.6-1.3-0.6-2.6l2.8-27.4c0.1-0.9,0.4-1.6,0.8-2.1c0.4-0.4,0.9-0.7,1.4-0.6
		c0.5,0,1,0.3,1.5,0.7c0.5,0.5,0.9,1.1,1.2,2c0,0,0.1,0.2,0.4,0.6c0.2,0.5,0.5,1.1,0.8,1.8c0.3,0.7,0.6,1.5,1,2.4s0.7,1.8,1,2.6
		c0,0.2,0.2,0.7,0.6,1.5c0.3,0.8,0.8,1.8,1.2,2.9c0.5,1.1,1,2.3,1.5,3.6c0.5,1.3,1,2.5,1.4,3.6c0.3,0.8,0.5,1.3,0.6,1.5
		s0.3,0.2,0.4,0c0.2-0.2,0.4-0.6,0.6-1.1c0.2-0.6,0.6-1.2,1.1-1.9c0.3-0.5,0.8-1.2,1.3-2.1c0.6-0.9,1.2-1.9,2.1-3.2
		c0.8-1.3,1.8-2.8,2.9-4.5c1.1-1.8,2.4-3.8,3.9-6.1c0.3-0.5,0.7-1.1,1.1-1.6c0.4-0.5,0.8-1,1.1-1.4c0.4-0.4,0.7-0.7,1-0.9
		c0.3-0.2,0.5-0.3,0.8-0.3c0.4,0.1,0.8,0.2,1.1,0.3c0.3,0.1,0.6,0.3,0.8,0.5c0.2,0.2,0.4,0.6,0.5,1s0.1,0.9,0.1,1.5l-2.4,26.6
		C97.5,176.1,97.5,176.5,97.4,177z"/>
	<path d="M125.8,165.5c-0.1,2-0.6,3.8-1.5,5.5c-0.9,1.7-2.1,3.3-3.5,4.6c-1.4,1.3-3,2.4-4.8,3.1c-1.8,0.8-3.6,1.1-5.6,1.1
		c-1.5,0-2.8-0.2-3.8-0.8c-1-0.5-1.9-1.2-2.5-2c-0.6-0.8-1-1.8-1.3-2.8c-0.2-1.1-0.3-2.1-0.2-3.2c0.1-1.7,0.5-3.4,1.3-5.2
		c0.8-1.8,1.8-3.5,3.1-5c1.3-1.5,2.9-2.7,4.8-3.7c1.9-1,4-1.4,6.4-1.4c1.4,0,2.7,0.3,3.7,0.8c1,0.6,1.8,1.3,2.5,2.2
		c0.6,0.9,1,1.9,1.3,3.1C125.8,163.2,125.9,164.3,125.8,165.5z M121,165.5c0-0.6,0-1.2-0.1-1.8c-0.1-0.6-0.3-1.1-0.5-1.6
		c-0.3-0.5-0.6-0.9-1.1-1.1c-0.5-0.3-1.1-0.4-1.8-0.4c-1.6,0-3.1,0.3-4.3,1c-1.2,0.7-2.3,1.5-3.1,2.6c-0.8,1-1.5,2.2-2,3.5
		c-0.5,1.3-0.8,2.5-0.8,3.6c0,0.5,0,1,0.1,1.6c0.1,0.5,0.2,1,0.5,1.4c0.2,0.4,0.6,0.8,1.1,1c0.5,0.3,1,0.4,1.8,0.4
		c1.3,0,2.6-0.3,3.8-0.9c1.2-0.6,2.3-1.3,3.2-2.2c0.9-0.9,1.7-2,2.3-3.2C120.6,168.1,120.9,166.8,121,165.5z"/>
	<path d="M133.1,166.1c-0.4-0.5-0.8-1.1-1.2-1.6c-0.4-0.5-0.9-1.1-1.4-1.8c-0.5-0.6-1.1-1.3-1.8-2.2c-0.3-0.3-0.6-0.7-0.9-1.1
		c-0.2-0.4-0.4-0.8-0.4-1.2c0-0.4,0.1-0.8,0.3-1.1c0.2-0.4,0.7-0.6,1.4-0.8c0.6-0.2,1.1-0.2,1.5,0c0.4,0.2,0.8,0.4,1,0.8
		c0.3,0.4,0.6,0.8,0.9,1.2c0.3,0.5,0.6,0.9,1,1.4c0.5,0.7,0.9,1.2,1.2,1.7c0.3,0.5,0.6,0.8,0.9,1.2c0.3,0.3,0.5,0.6,0.8,0.9
		c0.2,0.3,0.5,0.6,0.8,0.9l4.6-5.3c0.3-0.4,0.5-0.7,0.9-1.1c0.3-0.3,0.6-0.7,0.9-1c0.3-0.3,0.6-0.6,1-0.7c0.3-0.1,0.6-0.2,0.9-0.2
		c0.3,0,0.6,0,0.9,0.1c0.3,0.1,0.5,0.2,0.7,0.2c0.6,0.2,0.9,0.5,0.9,0.8c0,0.3,0,0.7-0.2,1c-0.2,0.4-0.4,0.8-0.8,1.2
		c-0.3,0.5-0.8,1-1.2,1.5c-0.4,0.5-1,1.1-1.6,1.8c-0.6,0.7-1.2,1.4-1.9,2.1c-0.6,0.7-1.3,1.5-2.1,2.5c0.4,0.4,0.9,1,1.4,1.6
		c0.5,0.6,1.1,1.3,1.6,1.9c0.5,0.7,1,1.3,1.4,1.9c0.4,0.6,0.7,1.1,0.9,1.4c0.1,0.2,0.3,0.4,0.4,0.5c0.1,0.1,0.2,0.3,0.4,0.5
		c0.1,0.2,0.3,0.4,0.5,0.8c0.2,0.3,0.4,0.7,0.6,1.2c0,0.4-0.2,0.8-0.4,1.1c-0.2,0.4-0.6,0.6-1,0.8c-0.4,0.2-0.9,0.2-1.4,0.1
		c-0.5-0.1-1.1-0.4-1.7-0.8c-0.1-0.1-0.3-0.3-0.5-0.6c-0.2-0.3-0.5-0.6-0.8-1c-0.3-0.4-0.6-0.7-0.9-1.1c-0.3-0.4-0.5-0.7-0.7-0.9
		c-0.4-0.6-0.8-1.2-1.4-1.9c-0.5-0.7-1-1.3-1.5-1.8c-0.9,1.1-1.6,2-2.2,2.7c-0.6,0.7-1.2,1.5-1.8,2.2c-0.6,0.7-1,1.2-1.3,1.6
		c-0.3,0.2-0.5,0.4-0.6,0.5c-0.2,0.2-0.4,0.4-0.6,0.6c-0.2,0.2-0.5,0.3-0.8,0.5c-0.3,0.1-0.8,0.2-1.3,0.2c-1.1,0-1.6-0.4-1.8-1.4
		c-0.1-0.9,0.5-2.1,2-3.6c0.3-0.4,0.8-0.9,1.4-1.6s1.2-1.4,1.8-2.1c0.6-0.7,1.3-1.5,2.2-2.5C133.9,167.2,133.5,166.6,133.1,166.1z"
		/>
	<path d="M155.3,175.3c-0.1,0.5-0.1,1-0.2,1.5c-0.1,0.5-0.2,0.9-0.4,1.3c-0.2,0.4-0.4,0.6-0.8,0.8c-0.4,0.2-0.8,0.3-1.5,0.2
		c-0.6-0.1-1-0.2-1.3-0.4c-0.3-0.2-0.5-0.5-0.5-0.9c-0.1-0.4-0.1-0.8-0.1-1.2c0-0.5,0.1-1,0.1-1.5l0.9-14c0.1-1,0.1-1.8,0.2-2.4
		c0.1-0.6,0.2-1.2,0.4-1.6c0.2-0.4,0.5-0.7,0.9-0.8c0.4-0.2,1-0.2,1.8-0.2c0.4,0,0.7,0,1,0.1c0.3,0.1,0.5,0.3,0.6,0.7
		c0.2,0.4,0.2,0.9,0.2,1.5c0,0.6-0.1,1.5-0.2,2.7L155.3,175.3L155.3,175.3z M158.3,149.7c-0.1,1-0.4,2-1.1,2.8
		c-0.7,0.8-1.7,1.3-3,1.3c-0.3,0-0.5-0.1-0.9-0.3c-0.3-0.2-0.6-0.4-0.8-0.8c-0.2-0.3-0.5-0.7-0.6-1.1s-0.2-0.8-0.2-1.2
		c0.1-1.6,0.5-2.7,1.2-3.4c0.7-0.7,1.6-1,2.7-1c1.1,0,1.8,0.2,2.1,0.7c0.3,0.4,0.4,1,0.4,1.6L158.3,149.7z"/>
	<path d="M181.6,163.1c-0.1,1.1-0.6,2.1-1.6,2.9c-1,0.9-2.4,1.6-4,2.3c-1.6,0.7-3.4,1.3-5.3,1.8c-1.9,0.5-3.8,1-5.6,1.5
		c-0.1,0.8,0,1.6,0.1,2.2c0.1,0.6,0.3,1.1,0.6,1.4c0.3,0.3,0.6,0.5,0.9,0.7c0.3,0.1,0.6,0.2,0.9,0.2c0.3,0,0.6,0,0.8,0
		c0.8,0,1.6-0.1,2.4-0.4c0.8-0.3,1.5-0.6,2.3-1c0.8-0.4,1.5-0.8,2.2-1.3c0.7-0.5,1.4-1,2-1.5c0.4-0.2,0.7-0.4,0.9-0.5
		c0.2-0.1,0.4-0.2,0.6-0.2c0.2,0,0.4-0.1,0.6-0.1c0.2,0,0.5,0,0.9,0c0.6,0,0.9,0.2,1.1,0.6c0.2,0.4,0.2,1,0.2,1.7
		c0,0.5-0.5,1.1-1.3,1.8c-0.9,0.8-2,1.5-3.3,2.2c-1.4,0.7-2.9,1.3-4.5,1.9c-1.7,0.5-3.4,0.8-5.1,0.8c-2.3,0-4.1-0.7-5.3-2
		c-1.2-1.3-1.8-3.4-1.6-6.2c0.1-1.9,0.6-3.7,1.3-5.6c0.8-1.8,1.8-3.5,3-4.9c1.3-1.5,2.8-2.7,4.5-3.6c1.7-0.9,3.6-1.4,5.6-1.4
		c1,0,2,0.2,2.9,0.5c0.9,0.3,1.6,0.8,2.2,1.4c0.6,0.6,1.1,1.3,1.4,2.1C181.6,161.3,181.7,162.2,181.6,163.1z M176.9,162.4
		c0.1-0.5-0.1-0.9-0.5-1.4c-0.4-0.5-1.1-0.7-2.1-0.7c-0.7,0-1.5,0.2-2.4,0.5s-1.7,0.8-2.5,1.5c-0.8,0.6-1.5,1.4-2.1,2.2
		c-0.6,0.9-1.1,1.9-1.5,3c0.4,0.1,0.9,0.1,1.6,0c0.7-0.1,1.4-0.3,2.2-0.6c0.8-0.3,1.6-0.6,2.4-1c0.8-0.4,1.6-0.8,2.2-1.2
		c0.7-0.4,1.3-0.8,1.8-1.2C176.5,163.1,176.8,162.7,176.9,162.4z"/>
	<path d="M192.3,175.3c-0.2,1.6-0.6,2.7-1.3,3.2c-0.7,0.5-1.6,0.8-2.8,0.8c-0.5,0-0.9-0.1-1.1-0.2c-0.3-0.2-0.5-0.4-0.7-0.6
		c-0.2-0.3-0.3-0.6-0.4-0.9c-0.1-0.3-0.1-0.6,0-0.9c0.1-1.2,0.5-2.2,1.3-3s1.6-1.2,2.6-1.2s1.7,0.3,2,0.8
		C192.3,173.8,192.4,174.5,192.3,175.3z M192.6,166.4c-0.1,1.2-0.4,2.2-0.9,2.9c-0.5,0.8-1.3,1.1-2.3,1.1c-1,0-1.5-0.4-1.7-1.2
		c-0.1-0.8-0.1-1.8,0.2-3l1.5-17.7c0-0.4,0-0.9,0-1.4c0-0.5,0.1-1,0.3-1.4c0.2-0.5,0.5-0.8,0.9-1.2c0.4-0.3,0.9-0.5,1.6-0.5
		c0.6,0,1,0.2,1.3,0.5c0.3,0.3,0.5,0.7,0.7,1.2c0.1,0.5,0.2,1,0.2,1.6c0,0.6,0,1.1-0.1,1.6L192.6,166.4z"/>
</g>
<g>
	<circle class="st0" cx="496.7" cy="141.7" r="3.7"/>
</g>
<g>
	<circle class="st0" cx="598.7" cy="108" r="3.7"/>
</g>
</svg>
