<?xml version="1.0" encoding="utf-8"?>
<!-- Generator: Adobe Illustrator 22.1.0, SVG Export Plug-In . SVG Version: 6.00 Build 0)  -->
<svg version="1.1" id="Layer_1" xmlns="http://www.w3.org/2000/svg" xmlns:xlink="http://www.w3.org/1999/xlink" x="0px" y="0px"
	 viewBox="0 0 800 800" style="enable-background:new 0 0 800 800;" xml:space="preserve">
<style type="text/css">
	.st0{fill:#FFFFFF;stroke:#000000;stroke-miterlimit:10;}
	.st1{fill:#FFFFFF;}
	.st2{stroke:#000000;stroke-width:3;stroke-linejoin:round;stroke-miterlimit:10;}
	.st3{fill:#FFFFFF;stroke:#000000;stroke-width:3;stroke-linejoin:round;stroke-miterlimit:10;}
	.st4{fill:#FFFFFF;stroke:#000000;stroke-linejoin:round;stroke-miterlimit:10;}
	.st5{fill:#FFFFFF;stroke:#000000;stroke-width:2;stroke-miterlimit:10;}
	.st6{fill:#1A4174;}
	.st7{fill:#FFFFFF;stroke:#000000;stroke-width:0.5367;stroke-miterlimit:10;}
	.st8{fill:#FFFFFF;stroke:#000000;stroke-width:0.4651;stroke-miterlimit:10;}
	.st9{fill:#FFFFFF;stroke:#000000;stroke-width:1.0735;stroke-linejoin:round;stroke-miterlimit:10;}
	.st10{fill:none;stroke:#000000;stroke-width:0.4651;stroke-miterlimit:10;}
	.st11{stroke:#000000;stroke-width:0.4651;stroke-miterlimit:10;}
	.st12{fill:#FFFFFF;stroke:#000000;stroke-width:0.9301;stroke-linejoin:round;stroke-miterlimit:10;}
	.st13{fill:#25B189;}
	.st14{fill:#FFFFFF;stroke:#000000;stroke-width:0.4651;stroke-linejoin:round;stroke-miterlimit:10;}
	.st15{opacity:0.5;fill:#125B45;enable-background:new    ;}
	.st16{fill:#FFFFFF;stroke:#000000;stroke-width:0.2633;stroke-miterlimit:10;}
	.st17{fill:#FFFFFF;stroke:#000000;stroke-width:0.4208;stroke-linejoin:round;stroke-miterlimit:10;}
	.st18{fill:#FFFFFF;stroke:#000000;stroke-width:1.3952;stroke-miterlimit:10;}
	.st19{clip-path:url(#SVGID_2_);}
	.st20{fill:#FFFFFF;stroke:#000000;stroke-width:0.9301;stroke-miterlimit:10;}
	.st21{fill:#FFFFFF;stroke:#000000;stroke-width:2;stroke-linejoin:round;stroke-miterlimit:10;}
	.st22{fill:none;stroke:#000000;stroke-width:2;stroke-linejoin:round;stroke-miterlimit:10;}
	.st23{fill:none;stroke:#000000;stroke-width:1.6798;stroke-linejoin:round;stroke-miterlimit:10;}
	.st24{fill:none;stroke:#000000;stroke-width:1.6837;stroke-linejoin:round;stroke-miterlimit:10;}
</style>
<rect class="st0" width="800" height="800"/>
<g id="Layer_2_1_">
	<g>
		<path class="st1" d="M641.1,666.8c-14.9,0-37.7-1.5-61.5-8.9c-0.1,0-0.2-0.1-0.2-0.1c-0.3-0.1-0.5-0.3-0.8-0.4
			c-24.6-12.9-145.4-96-217.5-150.9c-10.4-2-21.2-4.5-32.3-7.3c-22.8-5.9-43.6-10.5-62-14.5c-16-3.5-29.8-6.6-39.5-9.4l-0.7,0.2
			c-0.2,0.1-0.3,0.1-0.5,0.1c-0.1,0-0.2,0-0.3,0c-0.4-0.1-36.2-6.6-56-12.7c3.5,19.7,4.7,33,3.4,39.6c-0.1,0.8-0.4,1.6-0.6,2.4v0.1
			l-0.2,0.5c-0.1,0.2-0.1,0.4-0.2,0.5c0,0.1-0.1,0.3-0.2,0.4c-0.1,0.1-0.1,0.3-0.2,0.4l-0.2,0.4c-0.1,0.1-0.1,0.3-0.2,0.4l-0.2,0.4
			c-0.1,0.1-0.1,0.3-0.2,0.4c-0.1,0.1-0.1,0.2-0.2,0.4c-0.1,0.1-0.2,0.3-0.2,0.4c-0.1,0.1-0.1,0.2-0.2,0.4c-0.1,0.1-0.2,0.2-0.2,0.4
			l-0.2,0.3c-0.1,0.1-0.2,0.2-0.3,0.4c-0.1,0.1-0.2,0.2-0.2,0.3l-0.3,0.4l-0.2,0.3l-0.5,0.6l-0.3,0.3l-1.2-1l1.1,1l-0.2,0.2
			l-0.2,0.2l-1.2-1l1,1.1l-0.2,0.2c-0.1,0.1-0.2,0.2-0.3,0.3l-0.3,0.2c-0.1,0.1-0.6,0.4-0.6,0.5c-0.1,0.1-0.5,0.3-0.5,0.3l-0.2,0.1
			c-0.2,0.1-0.4,0.3-0.6,0.4l-0.1,0.1c-0.2,0.1-0.4,0.2-0.6,0.3c0,0-0.6,0.3-0.7,0.3c-0.1,0-0.1,0.1-0.2,0.1l-0.7-1.3l0.5,1.4
			c-0.1,0.1-0.2,0.1-0.4,0.2l-0.7,0.3l-0.3,0.1c-0.2,0.1-0.3,0.1-0.5,0.1l-0.3,0.1c-0.1,0-0.3,0.1-0.4,0.1l-0.7,0.1h-0.4
			c-0.1,0-0.3,0-0.4,0h-0.4c-0.1,0-0.3,0-0.4,0h-0.4c-0.2,0-0.3,0-0.4,0c-0.1,0-0.2,0-0.4,0c-0.1,0-0.3,0-0.4,0h-0.4
			c-0.1,0-0.3,0-0.4-0.1l-0.4-0.1c-0.1,0-0.3-0.1-0.4-0.1l-0.4-0.1c-0.1,0-0.3-0.1-0.4-0.1l-0.4-0.1c-0.1,0-0.3-0.1-0.4-0.1
			l-0.4-0.1c-0.1-0.1-0.3-0.1-0.4-0.2c-0.1,0-0.2-0.1-0.4-0.2c-0.1-0.1-0.3-0.1-0.4-0.2l-0.3-0.2c-0.1-0.1-0.2-0.1-0.4-0.2l0.6-1.4
			l-0.7,1.3l-0.3-0.1c-0.1-0.1-0.2-0.1-0.3-0.2l0.7-1.4l-0.8,1.3l-0.2-0.2c-0.1-0.1-0.3-0.2-0.4-0.3l-0.3-0.2
			c-0.1-0.1-0.2-0.2-0.4-0.3l-0.3-0.3c-0.1-0.1-0.3-0.2-0.4-0.4l-0.3-0.3c-0.2-0.2-0.5-0.4-0.7-0.7c-0.3-0.3-0.5-0.5-0.7-0.7
			l-0.2-0.3c-0.1-0.2-0.3-0.3-0.4-0.5c0,0-0.5-0.7-0.6-0.8l-0.3-0.4c-0.1-0.2-0.2-0.4-0.3-0.5c0,0-0.5-0.8-0.6-0.9l-0.2-0.4l1.2-0.9
			l-1.3,0.7c-0.1-0.2-0.2-0.3-0.3-0.5l-0.2-0.5c-0.1-0.2-0.2-0.4-0.3-0.6l-0.2-0.4c-0.1-0.3-0.2-0.4-0.3-0.6l-0.2-0.5
			c-0.1-0.3-0.2-0.5-0.3-0.7s-0.1-0.4-0.2-0.6c-0.1-0.2-0.2-0.4-0.2-0.6l-0.2-0.6c-0.1-0.2-0.1-0.4-0.2-0.7l-0.2-0.6
			c-0.1-0.2-0.1-0.5-0.2-0.7c-0.1-0.2-0.1-0.4-0.2-0.6c-0.1-0.2-0.1-0.5-0.2-0.7l-0.2-0.7c-0.1-0.2-0.1-0.5-0.2-0.8
			c-0.1-0.2-0.1-0.5-0.1-0.7c-0.1-0.3-0.1-0.5-0.2-0.8l-0.1-0.7c0-0.3-0.2-0.9-0.2-0.9l-0.1-0.6c0-0.3-0.2-1.6-0.2-1.6
			c0-0.2-0.2-1.7-0.2-1.7c0-0.2-0.2-1.7-0.2-1.7c0-0.3-0.1-1.8-0.1-1.8c0-0.3,0-1.1,0-1.1v-0.7c0-0.4,0-0.8,0-1.2v-0.8
			c0-0.7,0-1.3,0-2l0.1-8.2l0.1-7.7l0.2-7.4l0.2-6l0.2-5.9l0.1-3.8c-2.1-2.8-3.9-5.8-5.4-8.9l-0.1-0.1c-0.1-0.1-0.1-0.2-0.1-0.3
			c-3.9-8.1-5.9-17.1-6.1-26.9c-7-5.9-11.3-12.2-11.7-17.6v-0.1c0-0.1,0-0.2,0-0.3c0-0.4,0-0.7,0-0.9c0-0.1,0-0.3,0-0.4
			c0-0.3,0.1-0.5,0.1-0.8c0-0.2,0-0.3,0.1-0.4c0.1-0.4,0.2-0.7,0.3-1.1l0,0l0,0c2.3-6.5,8.4-11.2,18.2-13.8c0.6-1.4,1.2-2.8,1.9-4.1
			c-1.8-7.6-4.3-18.8-6.5-30.1c-77.6-58.4-76.8-63.9-76.5-66c0.1-0.9,0.7-1.5,1.5-1.8h0.1c1.2-0.4,2.8-0.6,4.8-0.6
			c1.5,0,3,0.1,4.3,0.2l1.1,0.1H66c31,0,56.8,7.1,73.1,13.2h0.2c0.2,0,0.4,0,0.6,0c0.5,0,1,0,1.5,0.1h0.2c0.3,0,0.7,0.1,1,0.2
			c0.4,0.1,0.7,0.2,1,0.3l0.2,0.1c0.3,0.1,0.7,0.2,1,0.4h0.1c0.3,0.2,0.6,0.3,0.9,0.5l0.1,0.1c0.3,0.2,0.6,0.4,0.9,0.6l0.1,0.1
			c0.4,0.2,0.7,0.5,0.9,0.7c0.3,0.3,0.6,0.6,0.9,0.8l0.2,0.2c6.4,2.8,11,5.3,13,6.5c20.1,12.9,50.3,33.1,82.9,55.6l0.5,0.1
			c0.2,0,0.4,0.1,0.5,0.2c0,0,0.3,0.2,0.9,0.7c11.2,2.2,22.9,4.5,31.2,6.3c2.8,0.6,5.6,1.1,7.9,1.4l0.6,0.1c1.3-1.1,3.2-2.2,6.2-2.2
			c3.1,0,6.8,1.2,11,3.6c1.5,0.8,3,1.8,4.5,2.8c0.1-0.3,0.3-0.7,0.6-1.1c1.4-1.7,4.5-3.2,5.2-3.4c0.5-0.1,1-0.2,1.5-0.2h0.1
			c0-0.1,0.1-0.2,0.1-0.3c0.4-1.2,1.4-2.1,3-2.8c1.2-0.5,2.7-0.7,4.4-0.7c1.6,0,5.8,0.4,7,2c0.6,0.9,2.3,4.1,3,5.4
			c0.5,0.2,1.2,0.6,1.6,1.4c0.6,1,1.5,4.5,1.7,6.4c0.1,0.8,0.1,1.9,0.1,3.1s0,2.9,0.1,3.3c0.2,0.7,2.7,4.7,4,6.8
			c0.3,0.5,0.6,1,0.9,1.4c1.3,0.4,1.8,1.8,1.9,2.3c0,0.1,0.1,0.2,0.1,0.2c0.4,0.7,0.8,1.4,1.1,1.9c0.1,0,0.2,0,0.3,0
			c0.4,0,0.9,0.1,1.3,0.4c8.6-5.1,17.4-13.2,20.4-15.9l0.6-0.6c0.9-0.8,1.7-1.6,2.4-2.3c1.9-1.8,2.9-2.8,3.9-3
			c0.3-0.1,0.5-0.1,0.8-0.1c1.3,0,2.9,0.6,3.1,0.6c0.6,0.2,1,0.8,1,1.5c0,0.6-0.4,1.1-0.9,1.3c-0.3,0.2-1.3,1.3-4.6,6.1
			c3.8-1.4,7.8-2.2,12-2.2c2.1,0,4.3,0.2,6.4,0.6c0.1,0,0.1,0,0.2,0c1.1,0.3,2.2,0.7,3.3,1c0.3,0.1,1.1,0.4,1.1,0.4
			c0.7,0.2,1.4,0.5,2.1,0.7c0.4,0.1,0.8,0.3,1.3,0.5c0.7,0.2,1.3,0.5,1.9,0.7c0.5,0.2,0.9,0.4,1.4,0.5c0.6,0.2,1.2,0.5,1.8,0.7
			l0.3,0.1c0.4,0.1,0.7,0.3,1.1,0.4c0.6,0.2,1.1,0.5,1.7,0.7c0,0,1.1,0.5,1.4,0.6c0.9,0.4,1.9,0.9,2.8,1.4c0.3,0.2,0.7,0.3,1,0.5
			l0.9,0.5c0.2,0.1,0.5,0.3,0.7,0.4c0,0,0.1,0,0.1,0.1c29.3,15.5,47.7,39.2,56.2,52.3c9.5,2,21.9,4.2,34,4.2
			c7.7,0,14.7-0.8,21.4-2.6c-9.2-10.1-17.4-24.3-21.8-37.7c-2-6.3-2.1-10.7-0.2-13.3c1.2-1.7,3.2-2.6,6-2.6c1.5,0,3.2,0.3,5.2,0.8
			l0,0c0.5,0.1,1.1,0.3,1.6,0.5l0.3,0.1c0.5,0.1,0.9,0.3,1.3,0.4l0.4,0.1c0.5,0.2,1.1,0.4,1.7,0.6h0.1c0.6,0.2,1.1,0.4,1.6,0.6
			l0.4,0.2c0.5,0.2,1,0.4,1.5,0.6l0.2,0.1c0.6,0.3,1.2,0.5,1.7,0.8l2.2,1.1c0.6,0.3,1.1,0.6,1.7,0.8c10.7,5.3,20.5,13.2,28.7,20.3
			c1.8,1.5,3.5,3.1,5.2,4.5c23.4-19.4,40.4-32.1,60.9-33.3c0.7,0,1.4-0.1,2-0.1h0.7c0.4,0,0.9,0,1.3,0h0.8c0.5,0,0.8,0,1.2,0
			c0.3,0,0.6,0,1,0c0.3,0,0.7,0,1,0s0.7,0,1,0.1c0.3,0,0.6,0,0.9,0.1c0.4,0,0.7,0.1,1.1,0.1l0.7,0.1v1.5l0.1-1.5
			c0.4,0,0.8,0.1,1.1,0.1l0.5,0.1c1.7,0.2,3.3,0.5,4.9,0.8c0.6,0.1,1.1,0.2,1.6,0.3h0.2c0.5,0.1,1,0.2,1.5,0.4l0.2,0.1
			c0.5,0.1,1,0.3,1.5,0.4h0.1c14.6,4.3,21.6,12.8,18.8,22.8c-0.3,1.2-0.8,2.8-1.3,4.7c-1.7,6.4-4.4,16.8-8.3,28.1l71-44.5l-0.4-5.7
			c-0.1-0.8,0.6-1.5,1.4-1.6l7.5-0.5h0.1c0.4,0,0.7,0.1,1,0.4s0.5,0.6,0.5,1l9.7,142.5c0,0.4-0.1,0.8-0.4,1.1s-0.6,0.5-1,0.5
			l-7.6,0.5c-0.4,0-0.7-0.1-1-0.4c-0.3-0.3-0.5-0.6-0.5-1l-0.1-1.9L666,509.6c1.9,1.8,3.6,3.5,5.1,5c1,1,1.9,1.9,2.7,2.8
			c0.2,0.3,0.5,0.5,0.7,0.7c1.9,2.1,3.1,4.1,3.6,5.8c0.1,0.4,0.1,0.8-0.1,1.1c0,1.3-0.4,2.6-1.2,3.6c-2.4,2.9-7.6,3.5-11.6,3.5
			c-10.2,0-23.8-3.9-35.6-10.2c-7.5-4-17.4-10.6-28.6-19.2c-37.7,0.1-68.2,3.1-95.1,5.8c-10.5,1-20.5,2-30.5,2.8
			c46.7,32.7,118,85.3,201.7,148.7c0.5,0.4,0.7,0.9,0.6,1.5c-0.1,0.6-0.6,1-1.1,1.1C673.1,664.4,660.3,666.8,641.1,666.8z
			 M737,520.2l-7.9-116.4l-76.6,48.1c-5.2,12.6-11.1,23.1-17.4,31.2c2.4,2,9.6,8,17.6,15L737,520.2z M342.8,401.3
			c1.6,0.5,3.3,1.1,5,1.6c0.6-2.2,1.4-4.3,2.3-6.3c-0.2,0.1-0.3,0.2-0.5,0.3C347.6,398.6,344.9,400.5,342.8,401.3z"/>
		<path d="M59.9,269.3c1.9,0,3.9,0.2,5.3,0.2c0.2,0,0.4,0,0.6,0c30.2,0,55.8,6.8,72.9,13.2c0.1,0,0.2,0,0.4,0h0.1c0.2,0,0.3,0,0.5,0
			c0.4,0,0.9,0,1.3,0.1c0.1,0,0.1,0,0.2,0c0.3,0,0.6,0.1,0.9,0.2l0,0c0.3,0.1,0.6,0.2,0.9,0.2h0.1c0.3,0.1,0.6,0.2,0.9,0.3
			c0,0,0.1,0,0.1,0.1c0.3,0.1,0.5,0.3,0.8,0.4c0,0,0.1,0,0.1,0.1c0.3,0.2,0.6,0.3,0.8,0.5c0.1,0,0.1,0.1,0.2,0.1
			c0.3,0.2,0.5,0.4,0.8,0.6l0,0c0.3,0.2,0.5,0.5,0.8,0.7c0.1,0.1,0.1,0.1,0.2,0.2c0.1,0.1,0.1,0.1,0.2,0.2c6.8,3,11.3,5.4,13.1,6.5
			c18.2,11.7,47.8,31.5,83.1,55.8c0.5,0.1,0.7,0.2,0.7,0.2s0.4,0.3,1.1,0.9c10.8,2.1,22.9,4.5,31.6,6.4l0,0c3.4,0.8,6.8,1.2,9.3,1.6
			c1.1-1.2,2.9-2.3,5.7-2.3c2.5,0,5.9,0.9,10.3,3.4c2.1,1.2,4.1,2.5,6.2,4c0.1,0,0.1-0.1,0.2-0.1c0.2-0.9,0-1.8,0.6-2.6
			c1.2-1.4,3.9-2.7,4.4-2.8c0.3-0.1,0.7-0.1,1.1-0.1c0.7,0,1.4,0.1,1.7,0.1v-0.1c0,0,0,0,0.1,0.1c0.1,0,0.1,0,0.1,0s-1.3-2.1,2-3.4
			c1.1-0.5,2.5-0.6,3.8-0.6c2.7,0,5.3,0.7,5.7,1.3c0.7,1,3.2,5.7,3.2,5.7s0.9,0.2,1.4,0.9c0.5,0.8,1.3,3.9,1.5,5.7
			c0.1,1.8-0.1,5.9,0.2,6.8c0.2,0.8,3.9,6.8,5.4,9.2c0.1,0,0.1,0,0.2,0c1,0,1.2,1.3,1.4,1.8c0.9,1.9,2.1,3.4,2.1,3.4
			c0.2-0.5,0.4-0.6,0.7-0.6c0.2,0,0.4,0.1,0.6,0.2l0,0l0,0c0.3,0.2,0.6,0.4,0.6,0.4c9.7-5.5,19.7-15,22.1-17.2s4.7-4.7,5.7-5
			c0.1,0,0.3,0,0.5,0c1.1,0,2.6,0.6,2.6,0.6c-0.9,0.2-4.8,5.9-8.3,11.1c4.8-2.7,10.2-4.3,16.2-4.3c2,0,4,0.2,6.2,0.5l0,0l0,0h0.1
			c1.1,0.3,2.1,0.6,3.1,1c0.4,0.1,0.7,0.2,1.1,0.4c0.7,0.2,1.4,0.5,2.1,0.7c0.4,0.2,0.9,0.3,1.3,0.5c0.6,0.2,1.2,0.5,1.8,0.7
			c0.5,0.2,0.9,0.3,1.3,0.5c0.6,0.2,1.2,0.5,1.8,0.7c0.4,0.2,0.9,0.4,1.3,0.6c0.6,0.3,1.2,0.5,1.8,0.8c0.4,0.2,0.8,0.4,1.3,0.6
			c0.9,0.4,1.9,0.9,2.8,1.3c0.5,0.2,1,0.5,1.4,0.7s0.8,0.4,1.2,0.6l0,0c24.8,13,44,33.6,56.1,52.4c11.9,2.5,23.5,4.3,34.9,4.3
			c8.2,0,16.2-0.9,24.2-3.3c-8.9-9.2-18.2-23.7-23.1-38.9c-3.3-10.3-0.9-13.9,4.3-13.9c1.4,0,3,0.3,4.8,0.7l0,0l0,0
			c0.5,0.1,1,0.3,1.5,0.4c0.1,0,0.2,0.1,0.4,0.1c0.4,0.1,0.8,0.3,1.3,0.4c0.1,0,0.2,0.1,0.4,0.1c0.5,0.2,1.1,0.4,1.6,0.6
			c0.1,0,0.1,0,0.2,0.1c0.5,0.2,1,0.4,1.5,0.6c0.1,0.1,0.3,0.1,0.4,0.2c0.5,0.2,1,0.4,1.5,0.6c0.1,0,0.2,0.1,0.2,0.1
			c0.6,0.3,1.1,0.5,1.7,0.8c0.1,0.1,0.3,0.1,0.4,0.2c0.5,0.2,0.9,0.4,1.4,0.7c0.2,0.1,0.3,0.1,0.5,0.2c0.6,0.3,1.1,0.6,1.7,0.8
			c10.3,5.1,19.9,12.8,28.4,20.1c2.1,1.8,4.2,3.6,6.2,5.4c21.8-18.1,40-32.6,61-33.8c0.7,0,1.3-0.1,2-0.1c0.2,0,0.5,0,0.7,0
			c0.4,0,0.8,0,1.3,0h0.1c0.2,0,0.5,0,0.7,0c0.4,0,0.7,0,1.1,0c0.3,0,0.6,0,0.9,0c0.3,0,0.7,0,1,0s0.7,0,1,0.1c0.3,0,0.6,0,0.9,0.1
			c0.4,0,0.7,0.1,1,0.1s0.5,0.1,0.8,0.1c0.4,0,0.8,0.1,1.1,0.1c0.2,0,0.4,0,0.5,0.1c1.6,0.2,3.2,0.5,4.7,0.8c0,0,0,0,0.1,0
			c0.5,0.1,1,0.2,1.5,0.3c0.1,0,0.1,0,0.2,0c0.5,0.1,1,0.2,1.5,0.4c0.1,0,0.1,0,0.2,0.1c0.5,0.1,1,0.3,1.5,0.4h0.1
			c12.3,3.6,20.6,10.9,17.8,21c-1.7,6-5.1,20.6-11,36.7L730,395l-0.4-6.6l7.5-0.5l9.7,142.5l-7.5,0.5l-0.2-3l-78.2-20.6
			c3.3,3.1,6.6,6.1,9.5,9c0.9,0.9,1.9,1.9,2.7,2.8c0.2,0.2,0.4,0.5,0.7,0.7c1.8,2,2.9,3.8,3.3,5.2c-0.1,0-0.2,0-0.3,0
			c0.8,4.2-3.8,6.4-11.3,6.4c-9,0-22.2-3.2-34.9-10c-8.1-4.3-18.4-11.4-28.8-19.3c-54.3,0.1-92.4,6.1-130.4,9
			c51.3,35.8,128.9,93.4,205.1,151.1c-7.1,1.5-19.7,3.1-35.2,3.1c-17.7,0-39.3-2.1-61-8.8c-0.3-0.1-0.5-0.3-0.8-0.4
			c-24.8-12.9-147.3-97.3-217.5-151c-10.2-2-21-4.4-32.5-7.4c-43.8-11.3-81.6-18.1-101.9-24c-0.2,0.1-0.4,0.1-0.6,0.2
			c-0.2,0.1-0.4,0.1-0.5,0.2c0,0-38-6.9-57.5-13.2c-0.2,0-0.5-0.1-0.7-0.1c3.1,17.1,5.3,33.7,3.8,41.4c-0.1,0.8-0.3,1.5-0.6,2.2v0.1
			v0.1c0,0.1-0.1,0.3-0.1,0.4c-0.1,0.1-0.1,0.3-0.2,0.4c0,0.1-0.1,0.2-0.1,0.4c-0.1,0.1-0.1,0.3-0.2,0.4c-0.1,0.1-0.1,0.2-0.2,0.4
			c-0.1,0.1-0.1,0.3-0.2,0.4c-0.1,0.1-0.1,0.2-0.2,0.3c-0.1,0.1-0.1,0.3-0.2,0.4c-0.1,0.1-0.1,0.2-0.2,0.3c-0.1,0.1-0.1,0.2-0.2,0.4
			c-0.1,0.1-0.1,0.2-0.2,0.3c-0.1,0.1-0.1,0.2-0.2,0.3c-0.1,0.1-0.1,0.2-0.2,0.3c-0.1,0.1-0.2,0.2-0.2,0.3c-0.1,0.1-0.1,0.2-0.2,0.3
			c-0.1,0.1-0.2,0.2-0.3,0.3c-0.1,0.1-0.2,0.2-0.2,0.3c-0.1,0.1-0.2,0.2-0.3,0.3c-0.1,0.1-0.2,0.2-0.2,0.3c-0.1,0.1-0.2,0.2-0.3,0.3
			c-0.1,0.1-0.2,0.2-0.2,0.2c-0.1,0.1-0.2,0.2-0.3,0.3c-0.1,0.1-0.2,0.2-0.3,0.2c-0.1,0.1-0.2,0.2-0.3,0.3s-0.2,0.1-0.3,0.2
			c-0.1,0.1-0.2,0.2-0.3,0.3s-0.2,0.1-0.3,0.2c-0.1,0.1-0.2,0.2-0.4,0.3c-0.1,0.1-0.1,0.1-0.2,0.2c-0.2,0.1-0.4,0.2-0.6,0.4
			c0,0-0.1,0-0.1,0.1c-0.2,0.1-0.3,0.2-0.5,0.3c-0.1,0-0.2,0.1-0.3,0.1c-0.1,0.1-0.3,0.1-0.4,0.2c-0.1,0-0.2,0.1-0.3,0.1
			c-0.1,0.1-0.2,0.1-0.4,0.2c-0.1,0-0.2,0.1-0.3,0.1s-0.2,0.1-0.4,0.1c-0.1,0-0.2,0.1-0.3,0.1s-0.2,0.1-0.4,0.1
			c-0.1,0-0.2,0.1-0.3,0.1s-0.2,0.1-0.4,0.1c-0.1,0-0.2,0-0.3,0.1c-0.1,0-0.2,0-0.4,0.1c-0.1,0-0.2,0-0.3,0s-0.2,0-0.4,0
			c-0.1,0-0.2,0-0.3,0s-0.2,0-0.4,0c-0.1,0-0.2,0-0.3,0c0,0,0,0-0.1,0s-0.2,0-0.3,0s-0.2,0-0.3,0s-0.2,0-0.4,0c-0.1,0-0.2,0-0.3,0
			s-0.2,0-0.4,0c-0.1,0-0.2,0-0.3-0.1c-0.1,0-0.2,0-0.4-0.1c-0.1,0-0.2,0-0.3-0.1c-0.1,0-0.2-0.1-0.4-0.1c-0.1,0-0.2-0.1-0.3-0.1
			s-0.2-0.1-0.4-0.1c-0.1,0-0.2-0.1-0.3-0.1s-0.2-0.1-0.4-0.1c-0.1,0-0.2-0.1-0.3-0.1c-0.1-0.1-0.2-0.1-0.4-0.2
			c-0.1,0-0.2-0.1-0.3-0.2c-0.1-0.1-0.2-0.1-0.4-0.2c-0.1-0.1-0.2-0.1-0.3-0.2c-0.1-0.1-0.2-0.2-0.4-0.2c-0.1-0.1-0.2-0.1-0.3-0.2
			c-0.1-0.1-0.3-0.2-0.4-0.3c-0.1-0.1-0.2-0.1-0.3-0.2c-0.1-0.1-0.3-0.2-0.4-0.3c-0.1-0.1-0.2-0.1-0.3-0.2c-0.1-0.1-0.3-0.2-0.4-0.4
			c-0.1-0.1-0.1-0.1-0.2-0.2c-0.2-0.2-0.4-0.4-0.6-0.6l0,0c-0.2-0.2-0.4-0.4-0.6-0.6c-0.1-0.1-0.1-0.2-0.2-0.3
			c-0.1-0.2-0.3-0.3-0.4-0.5c-0.1-0.1-0.2-0.2-0.2-0.3c-0.1-0.1-0.2-0.3-0.3-0.5c-0.1-0.1-0.2-0.2-0.2-0.3c-0.1-0.2-0.2-0.3-0.3-0.5
			c-0.1-0.1-0.2-0.3-0.2-0.4c-0.1-0.2-0.2-0.3-0.3-0.5c-0.1-0.1-0.2-0.3-0.2-0.4c-0.1-0.2-0.2-0.3-0.3-0.5c-0.1-0.1-0.2-0.3-0.2-0.4
			c-0.1-0.2-0.2-0.4-0.3-0.5c-0.1-0.2-0.2-0.3-0.2-0.5c-0.1-0.2-0.2-0.4-0.3-0.6s-0.1-0.3-0.2-0.5c-0.1-0.2-0.2-0.4-0.2-0.6
			c-0.1-0.2-0.1-0.4-0.2-0.5c-0.1-0.2-0.2-0.4-0.2-0.6c-0.1-0.2-0.1-0.4-0.2-0.6c-0.1-0.2-0.1-0.4-0.2-0.6c-0.1-0.2-0.1-0.4-0.2-0.6
			c-0.1-0.2-0.1-0.4-0.2-0.7c-0.1-0.2-0.1-0.4-0.2-0.6c-0.1-0.2-0.1-0.5-0.2-0.7c-0.1-0.2-0.1-0.4-0.2-0.6c-0.1-0.2-0.1-0.5-0.2-0.7
			c0-0.2-0.1-0.4-0.1-0.7c-0.1-0.3-0.1-0.5-0.2-0.8c0-0.2-0.1-0.5-0.1-0.7c0-0.3-0.1-0.5-0.1-0.8c0-0.2-0.1-0.5-0.1-0.7
			c0-0.3-0.1-0.6-0.1-0.8c0-0.2-0.1-0.5-0.1-0.7c0-0.3-0.1-0.6-0.1-0.9s-0.1-0.5-0.1-0.8s-0.1-0.6-0.1-0.9s0-0.5-0.1-0.8
			c0-0.3,0-0.7-0.1-1c0-0.3,0-0.5,0-0.8c0-0.4,0-0.7,0-1.1c0-0.2,0-0.5,0-0.7c0-0.4,0-0.8,0-1.3c0-0.2,0-0.4,0-0.7c0-0.6,0-1.3,0-2
			c0-1.2,0-2.4,0-3.6c0-0.3,0-0.6,0-1c0-0.9,0-1.8,0-2.7c0-0.3,0-0.6,0-0.9c0-1.1,0-2.3,0.1-3.4c0-0.2,0-0.5,0-0.7
			c0-0.9,0-1.8,0-2.6c0-0.3,0-0.7,0-1c0-1,0-1.9,0.1-2.9c0-0.1,0-0.2,0-0.3c0-1.1,0-2.1,0.1-3.1c0-0.3,0-0.5,0-0.8
			c0-0.8,0-1.6,0.1-2.4c0-0.2,0-0.5,0-0.7c0-1,0-2,0.1-2.9c0-0.1,0-0.2,0-0.3c0-0.8,0-1.7,0.1-2.5c0-0.2,0-0.5,0-0.7
			c0-0.8,0-1.6,0.1-2.4c0-0.1,0-0.2,0-0.3c0-0.9,0.1-1.8,0.1-2.7c0-0.1,0-0.2,0-0.3c0-0.4,0-0.9,0-1.3l0,0l0,0
			c-2-2.7-3.9-5.8-5.6-9.1c0-0.1-0.1-0.1-0.1-0.2l0,0c-3.6-7.5-6-16.5-6-27.1c-6.6-5.4-11.4-11.8-11.7-17.1l0,0l0,0
			c0-0.1,0-0.2,0-0.3c0-0.3,0-0.5,0-0.8c0-0.1,0-0.2,0-0.4c0-0.2,0-0.5,0.1-0.7c0-0.1,0-0.2,0.1-0.3c0.1-0.3,0.1-0.6,0.2-0.9l0,0
			c2.5-7.1,9.7-11,17.9-13c0.7-1.8,1.5-3.5,2.3-5.2c-1.9-8.1-4.5-19.6-6.7-31.1c-46.4-34.9-81.4-63.5-75.8-65.6l0,0l0,0
			C56.6,269.4,58.2,269.3,59.9,269.3 M392.7,375.2c-0.6-0.4-1.3-0.8-1.9-1.1C391,374.2,391.6,374.6,392.7,375.2 M341,400.2
			c-1.9,0-4.9-1.7-6.8-3.1c-0.4-0.3-0.8-0.6-1.2-1c0.8,1.6,1.6,3,2.3,4.4c4.3,1.3,8.8,2.7,13.6,4.3c1.1-4.2,2.7-8.4,5-12.2
			c-2.3,1.4-4.1,2.3-5.1,3.1C346.7,397.4,343,400.1,341,400.2L341,400.2 M738.7,522.2l-8.2-121l-79.2,49.6
			c-4.7,11.5-10.7,23.1-18.3,32.4c0.1,0.1,0.2,0.2,0.3,0.2c0,0,8.7,7.2,18.7,16L738.7,522.2 M59.9,266.3c-2.3,0-4,0.2-5.3,0.7
			c-0.1,0-0.1,0-0.1,0.1c-1.3,0.5-2.3,1.6-2.5,3c-0.3,2,0.7,4.4,6.3,10.1c3.7,3.7,9.1,8.6,16.3,14.6c12.9,10.8,31.1,25.1,54,42.3
			c2.1,10.9,4.5,21.6,6.3,29.1c-0.5,1-0.9,2-1.4,3c-9.9,2.8-16.1,7.7-18.5,14.5v0.1c-0.1,0.4-0.2,0.8-0.3,1.2c0,0.1,0,0.2-0.1,0.4
			v0.1c-0.1,0.3-0.1,0.6-0.1,0.9c0,0.2,0,0.3,0,0.5c0,0.3,0,0.6,0,1c0,0.1,0,0.2,0,0.3v0.1v0.1c0.5,5.6,4.7,12.1,11.7,18.1
			c0.2,9.6,2.3,18.6,6.2,26.7c0.1,0.2,0.1,0.3,0.2,0.5l0.1,0.1c1.5,3,3.2,5.9,5.2,8.6v0.3v0.1v0.1l-0.1,2.7v0.1v0.2l-0.1,2.4v0.5
			v0.2l-0.1,2.5v0.2v0.2l-0.1,2.9v0.5v0.2l-0.1,2.4v0.3v0.5c0,1,0,2.1-0.1,3.1v0.2v0.1l-0.1,2.9v0.6v0.4v2.6v0.2v0.5
			c0,1.1,0,2.2-0.1,3.4v0.5v0.4v2.7v0.3v0.7c0,1.2,0,2.4,0,3.6c0,0.7,0,1.4,0,2c0,0.1,0,0.3,0,0.4v0.2v0.1c0,0.4,0,0.8,0,1.2
			c0,0.2,0,0.3,0,0.5v0.3v0.2c0,0.3,0,0.6,0,1c0,0.2,0,0.4,0,0.6v0.2v0.2c0,0.3,0,0.6,0.1,0.9c0,0.2,0,0.4,0,0.6v0.2v0.1
			c0,0.3,0,0.6,0.1,0.8c0,0.2,0,0.4,0.1,0.6v0.2v0.1c0,0.3,0.1,0.6,0.1,0.8c0,0.2,0.1,0.4,0.1,0.7v0.1c0,0.3,0.1,0.6,0.1,0.9
			c0,0.2,0.1,0.5,0.1,0.7v0.1c0,0.3,0.1,0.6,0.1,0.8c0,0.2,0.1,0.5,0.1,0.7c0.1,0.3,0.1,0.5,0.2,0.8c0,0.2,0.1,0.5,0.2,0.7
			c0.1,0.3,0.1,0.5,0.2,0.8c0.1,0.2,0.1,0.5,0.2,0.7c0.1,0.3,0.1,0.5,0.2,0.7c0.1,0.2,0.1,0.4,0.2,0.7c0.1,0.2,0.1,0.5,0.2,0.7
			c0.1,0.2,0.1,0.4,0.2,0.6c0.1,0.2,0.2,0.5,0.2,0.7c0.1,0.2,0.1,0.4,0.2,0.6c0.1,0.2,0.2,0.4,0.2,0.7c0.1,0.2,0.2,0.4,0.2,0.6
			c0.1,0.2,0.2,0.4,0.3,0.6s0.2,0.4,0.2,0.6c0.1,0.2,0.2,0.4,0.3,0.6v0.1c0.1,0.2,0.1,0.3,0.2,0.5c0.1,0.2,0.2,0.4,0.3,0.6v0.1
			c0.1,0.1,0.1,0.3,0.2,0.4c0.1,0.2,0.2,0.4,0.3,0.5l0.1,0.1c0.1,0.1,0.1,0.3,0.2,0.4c0.1,0.2,0.2,0.3,0.3,0.5v0.1l0.1,0.1
			c0.1,0.1,0.1,0.2,0.2,0.3c0.1,0.2,0.2,0.3,0.3,0.5v0.1l0.1,0.1c0.1,0.1,0.1,0.2,0.2,0.3c0.1,0.2,0.2,0.3,0.3,0.4l0.1,0.1l0.1,0.1
			c0.1,0.1,0.1,0.2,0.2,0.3c0.1,0.2,0.3,0.3,0.4,0.5v0.1l0.1,0.1c0.1,0.1,0.1,0.2,0.2,0.2c0.2,0.2,0.4,0.5,0.7,0.7l0.1,0.1
			c0.2,0.2,0.5,0.5,0.7,0.7c0.1,0.1,0.1,0.1,0.2,0.2h0.1l0,0c0.1,0.1,0.3,0.3,0.5,0.4c0.1,0.1,0.2,0.1,0.2,0.2l0.1,0.1l0.1,0.1
			c0.1,0.1,0.3,0.2,0.4,0.3c0.1,0.1,0.2,0.1,0.3,0.2l0.1,0.1h0.1c0.1,0.1,0.3,0.2,0.4,0.3c0.1,0.1,0.2,0.1,0.3,0.2h0.1h0.1
			c0.1,0.1,0.3,0.2,0.4,0.2c0.1,0.1,0.2,0.1,0.3,0.2h0.1c0.2,0.1,0.3,0.2,0.5,0.2c0.1,0.1,0.2,0.1,0.3,0.2h0.1
			c0.1,0.1,0.3,0.1,0.5,0.2c0.1,0.1,0.2,0.1,0.4,0.1c0.2,0.1,0.3,0.1,0.5,0.2c0.1,0,0.3,0.1,0.4,0.1c0.2,0.1,0.3,0.1,0.5,0.2
			c0.1,0,0.3,0.1,0.4,0.1c0.2,0,0.3,0.1,0.5,0.1c0.1,0,0.3,0.1,0.4,0.1c0.2,0,0.3,0.1,0.5,0.1c0.1,0,0.3,0,0.4,0.1
			c0.2,0,0.3,0,0.5,0.1c0.1,0,0.3,0,0.4,0c0.2,0,0.3,0,0.5,0c0.1,0,0.3,0,0.4,0c0.1,0,0.3,0,0.4,0h0.1c0.1,0,0.3,0,0.4,0
			c0.2,0,0.3,0,0.5,0c0.1,0,0.3,0,0.4,0c0.2,0,0.3,0,0.5,0s0.3,0,0.4-0.1c0.1,0,0.3,0,0.4-0.1h0.1c0.1,0,0.2,0,0.3-0.1
			c0.1,0,0.3-0.1,0.4-0.1h0.1c0.1,0,0.2-0.1,0.3-0.1s0.3-0.1,0.4-0.1l0,0h0.1c0.1,0,0.2-0.1,0.3-0.1s0.3-0.1,0.4-0.1h0.1h0.1
			c0.1,0,0.2-0.1,0.3-0.1c0.1-0.1,0.3-0.1,0.4-0.2h0.1h0.1c0.1,0,0.2-0.1,0.3-0.1c0.1-0.1,0.3-0.1,0.4-0.2h0.1h0.1
			c0.1,0,0.2-0.1,0.2-0.1c0.2-0.1,0.4-0.2,0.6-0.3l0.2-0.1c0.2-0.1,0.5-0.3,0.7-0.4c0.1,0,0.1-0.1,0.2-0.1h0.1h0.1
			c0.1-0.1,0.3-0.2,0.4-0.3c0.1-0.1,0.2-0.1,0.2-0.2l0.1-0.1h0.1c0.1-0.1,0.2-0.2,0.3-0.3s0.2-0.1,0.2-0.2l0.1-0.1h0.1
			c0.1-0.1,0.2-0.2,0.3-0.3s0.2-0.1,0.2-0.2l0.1-0.1l0,0c0.1-0.1,0.2-0.2,0.3-0.3s0.2-0.2,0.2-0.2l0.1-0.1c0.1-0.1,0.2-0.2,0.3-0.3
			s0.2-0.2,0.2-0.3l0,0c0.1-0.1,0.2-0.2,0.3-0.4c0.1-0.1,0.2-0.2,0.2-0.3l0,0c0.1-0.1,0.2-0.3,0.3-0.4c0.1-0.1,0.2-0.2,0.3-0.3
			c0.1-0.1,0.2-0.3,0.3-0.4s0.2-0.2,0.2-0.4c0.1-0.1,0.2-0.3,0.3-0.4s0.2-0.3,0.2-0.4c0.1-0.1,0.2-0.3,0.2-0.4
			c0.1-0.1,0.1-0.3,0.2-0.4c0.1-0.1,0.2-0.3,0.2-0.4c0.1-0.1,0.1-0.3,0.2-0.4c0.1-0.2,0.1-0.3,0.2-0.5c0.1-0.1,0.1-0.3,0.2-0.4
			c0.1-0.2,0.1-0.3,0.2-0.5c0.1-0.1,0.1-0.3,0.2-0.4c0.1-0.2,0.1-0.3,0.2-0.5c0.1-0.1,0.1-0.3,0.1-0.4s0-0.1,0.1-0.2v-0.1l0,0
			c0.3-0.8,0.5-1.7,0.6-2.5c1.3-6.6,0.3-18.9-3-37.7c20.1,5.9,52.4,11.8,53.8,12.1c0.2,0,0.4,0,0.5,0c0.3,0,0.6-0.1,0.9-0.2l0.3-0.1
			c9.8,2.8,23.4,5.8,39.2,9.3c18.3,4,39.1,8.6,62,14.5c11,2.8,21.7,5.3,32,7.3c72.1,55,192.8,137.9,217.4,150.8
			c0.3,0.2,0.6,0.3,0.9,0.4c0.1,0.1,0.3,0.1,0.5,0.2c13.2,4.1,34.7,9,61.9,9c19.3,0,32.3-2.5,35.8-3.2c1.1-0.2,2-1.1,2.3-2.3
			c0.3-1.1-0.2-2.3-1.1-3c-81.7-61.9-151.6-113.5-198.3-146.4c8.7-0.7,17.4-1.6,26.4-2.5c26.8-2.7,57.1-5.7,94.5-5.8
			c11.1,8.4,21,15,28.4,19c12.1,6.5,25.7,10.4,36.3,10.4c6.2,0,10.5-1.4,12.8-4.1c1-1.2,1.5-2.7,1.6-4.2c0.2-0.6,0.3-1.2,0.1-1.8
			c-0.5-2-1.8-4.1-3.9-6.4c-0.2-0.2-0.5-0.5-0.7-0.8c-0.9-0.9-1.8-1.8-2.8-2.8c-0.3-0.3-0.7-0.7-1-1l64.9,17l0.1,0.8
			c0.1,1.6,1.4,2.8,3,2.8c0.1,0,0.1,0,0.2,0l7.5-0.5c0.8-0.1,1.5-0.4,2.1-1c0.5-0.6,0.8-1.4,0.7-2.2l-9.7-142.5
			c-0.1-0.8-0.4-1.5-1-2.1c-0.5-0.5-1.2-0.7-2-0.7c-0.1,0-0.1,0-0.2,0l-7.5,0.5c-1.7,0.1-2.9,1.5-2.8,3.2l0.3,4.8l-66.7,41.8
			c3.2-9.8,5.5-18.5,7-24.2c0.5-1.9,0.9-3.5,1.2-4.7c3.1-10.9-4.3-20.1-19.8-24.7h-0.1c-0.5-0.2-1-0.3-1.6-0.4h-0.1h-0.1
			c-0.5-0.1-1-0.3-1.5-0.4h-0.1h-0.1c-0.5-0.1-1.1-0.2-1.6-0.3h-0.1c-1.6-0.3-3.2-0.6-4.9-0.8h-0.2h-0.4c-0.4,0-0.7-0.1-1.1-0.1
			h-0.1H637c-0.2,0-0.4,0-0.7-0.1c-0.4,0-0.7-0.1-1.1-0.1c-0.3,0-0.6,0-1-0.1c-0.3,0-0.7,0-1-0.1c-0.4,0-0.7,0-1.1,0
			c-0.3,0-0.7,0-1,0c-0.4,0-0.8,0-1.1,0h-0.2h-0.6H629c-0.4,0-0.9,0-1.3,0h-0.3c-0.2,0-0.3,0-0.5,0c-0.7,0-1.4,0.1-2.1,0.1
			c-20.7,1.2-37.7,13.7-60.8,32.8c-1.4-1.2-2.8-2.4-4.3-3.7c-8.3-7.1-18.2-15.2-29-20.5c-0.6-0.3-1.2-0.6-1.7-0.8l-0.4-0.2h-0.1
			c-0.5-0.2-0.9-0.4-1.4-0.7l-0.1-0.1l-0.3-0.1c-0.6-0.3-1.2-0.5-1.8-0.8l-0.2-0.1h-0.1c-0.5-0.2-1-0.4-1.5-0.6l-0.4-0.2
			c-0.5-0.2-1-0.4-1.6-0.6H521h-0.1c-0.6-0.2-1.1-0.4-1.7-0.6l-0.2-0.1h-0.1c-0.5-0.2-0.9-0.3-1.3-0.5h-0.1l-0.3-0.1
			c-0.6-0.2-1.1-0.3-1.6-0.5l0,0l0,0c-2.1-0.5-3.9-0.8-5.5-0.8c-4,0-6.1,1.7-7.2,3.2c-2.2,3-2.2,7.7,0,14.6
			c4.1,12.7,11.7,26.2,20.4,36.3c-5.9,1.3-12,2-18.7,2c-11.7,0-23.7-2.1-33-4c-8.7-13.4-27.1-36.9-56.4-52.3c-0.1,0-0.1-0.1-0.2-0.1
			c-0.3-0.1-0.5-0.3-0.8-0.4l-0.4-0.2l-0.4-0.2c-0.3-0.2-0.7-0.4-1.1-0.5c-0.9-0.5-1.9-0.9-2.8-1.4c-0.3-0.1-0.6-0.3-0.9-0.4
			l-0.4-0.2h-0.1c-0.6-0.3-1.2-0.5-1.8-0.8c-0.4-0.2-0.7-0.3-1.1-0.5l-0.3-0.1c-0.6-0.3-1.2-0.5-1.8-0.7c-0.5-0.2-0.9-0.4-1.4-0.5
			c-0.6-0.2-1.3-0.5-1.9-0.7c-0.5-0.2-0.9-0.3-1.3-0.5c-0.7-0.2-1.4-0.5-2.1-0.7l-0.4-0.1c-0.3-0.1-0.5-0.2-0.8-0.3
			c-1.1-0.4-2.2-0.7-3.2-1h-0.1c-0.1,0-0.2-0.1-0.3-0.1c-2.2-0.4-4.5-0.6-6.7-0.6c-2.8,0-5.6,0.3-8.2,0.9c1-1.4,1.5-1.9,1.7-2.2
			c0.9-0.5,1.5-1.4,1.5-2.5c0.1-1.3-0.7-2.5-2-3c-0.3-0.1-2.1-0.7-3.6-0.7c-0.4,0-0.8,0-1.2,0.1c-1.4,0.4-2.6,1.5-4.6,3.4
			c-0.8,0.7-1.6,1.5-2.4,2.2l-0.7,0.6c-2.9,2.6-11.3,10.3-19.5,15.4c-0.2-0.1-0.5-0.1-0.7-0.1c-0.2-0.3-0.4-0.7-0.6-1v-0.1
			c-0.6-1.7-1.4-2.6-2.3-3c-0.2-0.3-0.4-0.6-0.6-1c-1.1-1.8-3.3-5.4-3.8-6.5c-0.1-0.6-0.1-2-0.1-2.9c0-1.2,0-2.4-0.1-3.3
			c-0.1-2-1-5.7-1.9-7.1c-0.5-0.8-1.2-1.4-1.8-1.7c-0.9-1.6-2.3-4.3-2.9-5.1c-1.7-2.5-7.1-2.6-8.2-2.6c-1.9,0-3.6,0.3-5,0.9
			c-2.1,0.8-3.1,2-3.6,3.1c-0.3,0-0.5,0.1-0.8,0.1c-0.1,0-0.1,0-0.2,0c-1,0.3-4.2,1.8-5.8,3.7c-1.1-0.7-2.1-1.3-3.2-1.9
			c-4.4-2.5-8.3-3.8-11.7-3.8c-3,0-5.2,1-6.6,2.1c-2.2-0.3-5-0.8-7.7-1.4c-8.3-1.8-19.8-4.1-30.9-6.3c-0.4-0.3-0.7-0.5-0.7-0.5
			c-0.3-0.2-0.7-0.4-1-0.5c0,0-0.1,0-0.2,0c-32.5-22.4-62.7-42.6-82.7-55.5c-2-1.3-6.6-3.7-13-6.5l0,0c-0.3-0.3-0.7-0.6-1-0.9
			c0,0-0.1,0-0.1-0.1c-0.3-0.2-0.6-0.5-0.9-0.7l-0.2-0.1c-0.4-0.2-0.7-0.5-1-0.7l-0.1-0.1c-0.3-0.2-0.7-0.4-1-0.5l-0.2-0.1
			c-0.4-0.2-0.7-0.3-1.1-0.4h-0.1c-0.4-0.1-0.8-0.2-1.1-0.3h-0.1c-0.4-0.1-0.8-0.2-1.2-0.2h-0.2c-0.6-0.1-1.1-0.1-1.7-0.1
			c-0.2,0-0.4,0-0.6,0c-16.4-6-42.4-13.1-73.4-13.1h-0.5c-0.3,0-0.6,0-1-0.1C63,266.4,61.4,266.3,59.9,266.3L59.9,266.3z
			 M346.6,400.9c0.1-0.1,0.2-0.1,0.2-0.2c0,0.1,0,0.1-0.1,0.2C346.7,401,346.7,401,346.6,400.9L346.6,400.9z M653.7,452.8l74.1-46.5
			l7.6,111.9l-82-21.5c-6.9-6.1-13.2-11.3-16.2-13.9C643.1,474.8,648.7,464.8,653.7,452.8L653.7,452.8z"/>
	</g>
	<path class="st0" d="M424,395.8c-3.3-4.2-33.2-21.8-33.2-21.8c-21.9-3.8-37.5,13-42,30.8c-30.4-10.3-49.7-11.1-60-45.7
		c0,0-11.7,11.1-8.1,31.3c3.6,20.2,15.1,46.1,60.2,54.2c45.2,8.1,81.3,18.1,90.3-0.9C440.4,424.7,424,395.8,424,395.8z"/>
	<path id="sleeve_front_1_" class="st0" d="M327.1,386.3c-0.2,0.5-1,1.6,0,3.9c0.5,1,1.4,1.3,1.8,1.5c1.8,2,3.2,3.9,5.2,5.4
		c2,1.4,4.9,3.1,6.9,3.1c1.9-0.1,5.7-2.8,7.7-4.4s7.4-3.9,14.1-9.3c0,0,12.1-19.4,13.8-19.8c0,0-2.1-0.8-3.1-0.5
		c-1,0.2-3.2,2.8-5.7,5c-2.4,2.2-12.5,11.7-22.1,17.2c0,0-1.4-1.4-1.9,0c0,0-1.2-1.5-2.1-3.4c-0.3-0.5-0.4-2.2-1.8-1.7
		c0,0-0.5,6.4-4.7,7.5c-3.6,0.9-5-0.7-6.4-1.4L327.1,386.3z"/>
	<g>
		<g>
			<g>
				<path d="M343.2,392.6c0,0,0.2-0.2,0.3-0.6c0.2-0.4,0.4-1,0.4-1.6s-0.1-1.2-0.2-1.7c-0.1-0.4-0.3-0.6-0.3-0.6
					c0.2,0.3,0.2,0.5,0.1,0.6c0,0.2,0,0.3,0,0.4c0,0.3,0,0.5,0,1.2c0,0.6-0.1,0.9-0.2,1.2C343.4,391.9,343.4,392.1,343.2,392.6z"/>
			</g>
		</g>
	</g>
	<g>
		<g>
			<g>
				<path d="M344.6,393.6c0,0,0.1-0.1,0.1-0.2c0.1-0.2,0.2-0.3,0.2-0.5c0.2-0.5,0.4-1.2,0.3-2c0-0.8-0.3-1.5-0.7-1.9
					c-0.3-0.4-0.6-0.5-0.6-0.5c0.2,0.2,0.4,0.5,0.5,0.6c0.1,0.2,0.2,0.3,0.2,0.5c0.1,0.3,0.2,0.6,0.3,1.3c0,0.8,0,1.1-0.1,1.4
					C344.9,392.6,344.8,392.9,344.6,393.6z"/>
			</g>
		</g>
	</g>
	<g>
		<g>
			<g>
				<path d="M347,392.7c0,0,0.1,0,0.1,0.1c0.1,0.1,0.1,0.2,0,0.3c-0.1,0.1-0.1,0.2-0.2,0.2c-0.1,0.1-0.2,0.2-0.2,0.2
					c-0.1-0.1-0.1-0.2-0.2-0.3c-0.1-0.1,0-0.3-0.1-0.4v0.1c0.1-0.5,0.1-1,0-1.6c-0.1-1-0.4-1.9-0.7-2.4c-0.3-0.6-0.6-0.9-0.6-0.9
					c0.3,0.3,0.4,0.7,0.5,0.9c0.1,0.2,0.2,0.4,0.1,0.6c0.1,0.4,0.2,0.9,0.3,1.8c0.1,0.8,0,1.2,0,1.5v0.1l0,0
					c0.1,0.2,0.1,0.3,0.2,0.5c0.1,0.1,0.1,0.2,0.1,0.2c0.1,0.1,0.1,0.2,0.3,0.2c0.2-0.1,0.2-0.2,0.2-0.2c0.1-0.1,0.1-0.2,0.1-0.2
					c0-0.1,0.1-0.2,0.1-0.3C347.2,392.8,347.1,392.6,347,392.7z"/>
			</g>
		</g>
	</g>
	<g>
		<g>
			<g>
				<path d="M347.5,391.6v-0.1c0-0.1-0.1-0.2,0-0.3c0-0.3-0.1-0.6-0.3-1c-0.2-0.4-0.4-0.7-0.6-0.9c-0.1-0.1-0.2-0.2-0.2-0.2
					c-0.1-0.1-0.1-0.1-0.1-0.1c0.2,0.3,0.3,0.5,0.3,0.6c0.1,0.2,0.2,0.3,0.4,0.7C347.1,391.1,347.2,391.1,347.5,391.6z"/>
			</g>
		</g>
	</g>
	<path id="hand_front_3_" class="st0" d="M340.7,384c-0.8-1.4-5.6-9.1-5.8-10c-0.3-0.9-0.1-4.9-0.2-6.8c-0.1-1.8-1-5-1.5-5.7
		c-0.5-0.8-1.4-0.9-1.4-0.9s-2.5-4.8-3.2-5.7c-0.7-1-6.3-2-9.5-0.7c-3.3,1.3-2,3.4-2,3.4s-1.8-0.3-2.9-0.1c-0.5,0.2-3.2,1.4-4.4,2.8
		c-0.6,0.8-0.4,1.7-0.6,2.6c-0.9,0.5-3.9,2.8-4.4,3.8c-0.1,0.2-0.4,1.3-0.3,2.2c-1.1,0.6-0.8,3.1-0.8,3.8c0,1.4,0.3,2.4,3,4.3
		c3.7,2.5,4.9,3.2,7.6,2.7c0.5,0.5,3.2,3.1,6.2,2.1c0,0,5.2,4.7,7.6,8.1c0,0,4.2,3.1,8.5,1C342.4,388,340.7,384,340.7,384z"/>
	<g>
		<g>
			<g>
				<path d="M327.4,379.6c0.1,0-0.3-0.1-0.9-0.4s-1.4-0.9-2.1-1.9c-0.4-0.5-0.7-1.1-0.9-1.7c-0.3-0.6-0.5-1.5-0.4-2.3
					c0.1-0.9,0.3-1.7,0.7-2.5c0.4-0.9,0.9-1.6,1.5-2.3l0.2-0.2l-0.2-0.1c-1.3-0.3-2.6-0.9-3.7-1.8c-0.5-0.4-0.8-0.9-1.2-1.4
					c-0.3-0.5-0.5-1-0.6-1.6c-0.1-0.5-0.1-1.1,0-1.7c0.1-0.5,0.4-1,0.7-1.4c0.3-0.4,0.8-0.7,1.2-0.8c0.2-0.1,0.5-0.2,0.7-0.1h0.2
					c0.1,0,0.1,0.1,0.2,0.1c0.1,0.1,0.2,0.2,0.3,0.2c0.9,0.4,1.8,0.6,2.6,0.6c0.2,0,0.4,0,0.6,0c0.1,0,0.2-0.1,0.3-0.1
					c0.1-0.1,0.2-0.1,0.2-0.1c0.3-0.1,0.7-0.1,1-0.1c0.6,0,1.2,0.1,1.6,0.1c0.9,0.1,1.3,0.2,1.3,0.2c-1.1-0.2-2-0.4-2.8-0.4
					c-0.4,0-0.9,0-1.2,0.1c-0.2,0.1-0.3,0.2-0.5,0.2c-0.2,0.1-0.3,0-0.5,0c-0.6,0-1.2-0.2-1.8-0.3c-0.3-0.1-0.5-0.2-0.7-0.3
					c-0.2-0.1-0.2-0.1-0.3-0.2s-0.3-0.2-0.4-0.2c-0.3-0.1-0.6,0-0.9,0.1s-0.5,0.2-0.8,0.4c-0.5,0.4-1,0.8-1.3,1.6
					c-0.2,0.7-0.3,1.6,0,2.6c0.2,0.9,0.8,1.9,1.8,2.8c0.8,0.7,1.8,1.2,2.4,1.4c0.7,0.3,1.2,0.4,1.4,0.5l-0.1-0.2
					c-1,1.2-1.6,2.3-1.9,3.3s-0.5,2-0.2,2.9s0.6,1.8,1.3,2.7c0.3,0.5,0.7,0.9,1.2,1.3C326,379,326.6,379.4,327.4,379.6z"/>
			</g>
		</g>
	</g>
	<g>
		<g>
			<g>
				<path d="M324.3,369.7c0,0-0.1-0.2-0.3-0.5c-0.2-0.3-0.6-0.7-1.1-1.2s-1.1-1-1.5-1.7c-0.3-0.3-0.5-0.7-0.7-1.2
					c-0.2-0.4-0.4-0.9-0.6-1.3c-0.8-1.8-1.7-3.4-2.3-4.7c-0.3-0.5-0.5-1.1-0.7-1.4s-0.2-0.5-0.3-0.5c1.4,3.2,1.2,3,2.9,6.7
					c0.2,0.5,0.4,0.9,0.6,1.2c0.1,0.2,0.2,0.3,0.2,0.5c0.1,0.2,0.2,0.3,0.3,0.4c0.4,0.5,0.7,0.9,1,1.2c0.3,0.3,0.6,0.6,1.1,0.9
					c0.2,0.2,0.4,0.4,0.6,0.5C323.9,369.1,324.1,369.4,324.3,369.7z"/>
			</g>
		</g>
	</g>
	<g>
		<g>
			<g>
				<path d="M324.5,374.2c0-0.1-0.2,0.2-0.6,0.5c-0.2,0.1-0.5,0.2-0.9,0.3c-0.2,0.1-0.4,0-0.5,0s-0.2-0.1-0.3-0.1s-0.2-0.1-0.3-0.2
					c-0.9-0.5-1.8-1-2.9-1.6c-0.5-0.3-1.1-0.6-1.6-1s-1.1-0.9-1.5-1.4c-1.1-0.9-2.1-1.9-2.9-2.7c-0.5-0.4-0.8-0.9-1.2-1.3
					c-0.4-0.4-0.6-0.9-0.8-1.2c-0.5-0.8-0.8-1.5-1-2s-0.1-0.8-0.1-0.8c0,0.3,0.1,0.6,0.1,0.9c0.1,0.3,0.2,0.5,0.3,0.7
					c0.2,0.4,0.4,0.8,0.6,1.2c0.2,0.3,0.3,0.6,0.5,0.9s0.4,0.5,0.6,0.8c0.8,0.9,1.7,2,3.9,3.8c0.5,0.5,1,0.9,1.4,1.3
					c0.5,0.4,0.8,0.6,1.2,0.8c0.7,0.4,1.3,0.8,1.9,1.1c0.5,0.3,1.1,0.6,1.8,0.9c0.1,0.1,0.2,0.1,0.3,0.2s0.2,0.1,0.3,0.1
					c0.2,0,0.4,0,0.6-0.1C323.6,374.8,324.1,374.7,324.5,374.2z"/>
			</g>
		</g>
	</g>
	<g>
		<g>
			<g>
				<path d="M326.4,357.4v0.1c0,0.1,0,0.2,0,0.3c0,0.2,0,0.6,0,1s0.1,0.7,0.1,1c0.1,0.2,0,0.2,0,0.3c0,0.1,0.1,0.1,0.1,0.1
					c0.1-0.7,0.2-0.6,0.1-1.4S326.5,358,326.4,357.4z"/>
			</g>
		</g>
	</g>
	<g>
		<g>
			<g>
				<path d="M327.4,356.9c0,0-0.2,0.1-0.4,0.2s-0.5,0.2-0.9-0.1c-0.3-0.2-0.6-0.4-0.8-0.6c-0.2-0.1-0.2-0.2-0.3-0.2
					c-0.1-0.1-0.1-0.1-0.1-0.1c0.3,0.3,0.4,0.4,0.5,0.5c0.2,0.2,0.3,0.3,0.7,0.5s0.7,0.2,0.9,0.1
					C327.1,357.3,327.2,357.2,327.4,356.9z"/>
			</g>
		</g>
	</g>
	<g>
		<g>
			<g>
				<path d="M304.7,367.8c0-0.1,0,0.3,0.2,0.9c0.2,0.5,0.6,1.4,1.2,2.3s1.4,1.9,2.3,3c0.5,0.5,0.9,1.1,1.5,1.6
					c0.3,0.3,0.6,0.5,0.9,0.8c0.4,0.2,0.8,0.3,1.2,0.5c1.5,0.5,3.1,0.8,4.5,0.9c0.2,0,0.3,0.1,0.5,0.1s0.2-0.1,0.3-0.1l0.2-0.1
					c0.3-0.1,0.6-0.1,0.9-0.2c0.6-0.2,1.2-0.2,1.7-0.3c0.5-0.2,1-0.2,1.4-0.4c0.4-0.2,0.6-0.5,0.8-0.7c0.3-0.5,0.6-0.7,0.5-0.7
					c-0.4,0.5-0.8,1.1-1.3,1.3c-0.5,0.2-1,0.2-1.4,0.3c-0.9,0.1-1.6,0.2-2.2,0.4c-0.2,0.1-0.3,0.1-0.5,0.2c-0.1,0.1-0.2,0.1-0.3,0.1
					c-0.1,0.1-0.2,0.1-0.2,0c-0.4,0-0.8-0.1-1.2-0.2c-0.9-0.2-2.1-0.4-3.6-0.9c-0.4-0.1-0.7-0.2-1-0.4c-0.3-0.2-0.5-0.4-0.8-0.6
					c-0.5-0.4-0.8-0.8-1.2-1.2c-0.7-0.7-1.2-1.3-1.6-1.9c-0.5-0.5-0.9-1.1-1.4-1.8c-0.2-0.3-0.5-0.8-0.7-1.2
					C305.1,369,304.8,368.5,304.7,367.8z"/>
			</g>
		</g>
	</g>
	<g>
		<g>
			<g>
				<path d="M321.8,368c0,0-0.1,0.1-0.2,0.2s-0.2,0.2-0.4,0.3c-0.3,0.3-0.9,0.6-1.4,0.9s-1.1,0.6-1.5,0.8c-0.2,0.1-0.3,0.2-0.5,0.2
					c-0.1,0.1-0.2,0.1-0.2,0.1c0.5-0.1,0.9-0.1,1.1-0.2s0.5-0.2,1.1-0.5s0.9-0.5,1-0.7C321.4,368.7,321.6,368.5,321.8,368z"/>
			</g>
		</g>
	</g>
	<g>
		<g>
			<g>
				<path class="st0" d="M317.1,374l-0.1,0.1c-0.1,0.1-0.2,0.2-0.3,0.3c-0.3,0.2-0.7,0.5-1.2,0.8s-0.9,0.5-1.2,0.8
					c-0.3,0.2-0.5,0.3-0.5,0.3c0.5-0.2,0.7-0.2,0.9-0.3c0.2-0.1,0.5-0.2,0.9-0.5c0.5-0.3,0.7-0.5,0.9-0.7
					C316.7,374.7,316.9,374.4,317.1,374z"/>
			</g>
		</g>
	</g>
	<g>
		<g>
			<g>
				<path d="M325.6,363.6c0,0,0-0.1,0.1-0.2s0.1-0.2,0.2-0.3c0.2-0.3,0.4-0.6,0.8-1c0.3-0.4,0.6-0.7,0.8-0.8
					c0.1-0.1,0.2-0.2,0.3-0.2c0.1-0.1,0.1-0.1,0.1-0.1c-0.4,0.2-0.5,0.3-0.8,0.4c-0.2,0.2-0.4,0.3-0.7,0.6c-0.3,0.4-0.4,0.6-0.6,0.8
					c-0.1,0.1-0.1,0.2-0.1,0.3C325.6,363.2,325.5,363.4,325.6,363.6z"/>
			</g>
		</g>
	</g>
	<g>
		<g>
			<g>
				<path d="M327.9,367.7c0,0-0.1,0.2-0.3,0.2c-0.2,0.1-0.5,0.2-0.9,0.3c-0.4,0.1-0.7,0.1-0.9,0.1c-0.2,0-0.2,0-0.3,0
					c-0.1,0-0.1,0-0.1,0c0.3,0.2,0.5,0.2,0.6,0.2c0.2,0,0.4,0,0.8,0c0.4-0.1,0.5-0.2,0.7-0.3c0.1-0.1,0.2-0.1,0.2-0.2
					C327.8,367.9,327.9,367.8,327.9,367.7z"/>
			</g>
		</g>
	</g>
	<g>
		<g>
			<g>
				<path d="M327.6,369.5c0,0,0.1-0.1,0-0.3c-0.1-0.2-0.2-0.4-0.4-0.5c-0.5-0.3-0.9-0.2-0.9-0.2c0.2,0.1,0.3,0.2,0.4,0.2
					c0.1,0.1,0.2,0.1,0.4,0.2c0.2,0.2,0.2,0.2,0.3,0.3C327.4,369.3,327.5,369.3,327.6,369.5z"/>
			</g>
		</g>
	</g>
	<g>
		<g>
			<g>
				<path class="st0" d="M307.1,377.3c0,0,0.1,0.1,0.3,0.3c0.2,0.2,0.5,0.4,1,0.8c0.4,0.3,1,0.6,1.5,0.9c0.6,0.3,1.3,0.6,2.2,0.7
					c0.9,0.1,1.6-0.1,2.3-0.2c0.3-0.1,0.6-0.1,1-0.2c0.3-0.1,0.5-0.2,0.9-0.2c0.5-0.2,0.8-0.6,0.9-0.9s0.1-0.5,0.1-0.4
					c0,0.4-0.2,0.6-0.3,0.9c-0.2,0.2-0.4,0.3-0.5,0.4c-0.4,0.2-0.8,0.1-1.1,0.2c-0.3,0-0.7,0.1-1.2,0.1s-1,0.1-1.8,0.1
					c-0.7-0.1-1.3-0.3-1.8-0.5c-0.4-0.2-0.8-0.3-1.1-0.6C308.7,378.3,308.1,378,307.1,377.3z"/>
			</g>
		</g>
	</g>
	<g>
		<g>
			<g>
				<path class="st0" d="M309.2,378.3c0,0,0.1,0,0.1,0.1c0.1,0,0.2,0.1,0.3,0.1c0.2,0.1,0.5,0.1,0.9,0s0.6-0.3,0.9-0.4
					c0.1-0.1,0.2-0.2,0.2-0.2c0.1-0.1,0.1-0.1,0.1-0.1c-0.3,0.1-0.5,0.1-0.6,0.2c-0.2,0.1-0.3,0.1-0.6,0.2c-0.3,0.1-0.5,0.1-0.6,0.1
					C309.6,378.2,309.5,378.2,309.2,378.3z"/>
			</g>
		</g>
	</g>
	<path class="st0" d="M295.7,374.9c-7-9.8-10.5-14.3-10.5-14.3s2.7-10.2,17.6-1.6c7.7,4.3,15.3,10.8,21,20.5
		c17.8,30.7,19.7,40.3,19.7,40.3l-5.2-2C315.6,407.8,302.2,384,295.7,374.9z"/>
	<path class="st0" d="M567.7,419.5c-10.5-9.1-23.9-21.8-38.7-29.1c-14.7-7.3-30.2-12.9-23.7,7.2s20.6,38.9,31.5,46
		S567.7,419.5,567.7,419.5z"/>
	<path class="st0" d="M550.9,439.5c-13.1-12.9-15.5-13.6-29.8-32.4s-13.2-23.1-6.7-22.6c4.3,1.1,9.5,3.4,14.6,6
		c14.7,7.3,28.1,19.9,38.7,29.1C567.7,419.5,559.6,432.1,550.9,439.5z"/>
	<path class="st0" d="M161.1,293c-6.2-4-48.9-26-105.3-23.2c-15,0.7,229.5,179.4,262.6,196c36.9,11.2,84.5,7.7,96.2,5.7
		C317.9,398.2,205.6,321.6,161.1,293z"/>
	<path class="st0" d="M65.6,269.5c-2.5-0.1-7.6-0.7-10.2,0.3c-14.1,5.1,229.8,179.4,262.9,196c40.7,12.6,80.9,9,96.2,5.7
		c-39.3-11.3-67.1-12-94.1-11.8L65.6,269.5z"/>
	<g>
		<path class="st0" d="M272.1,425.7c-8.5,5.4-22.7,16.7-41.5,39.2c-10.8-1.6-10.5-10.9-10.5-10.9l29.3-47L272.1,425.7z"/>
		<path class="st0" d="M262.4,417.7c-10.2,9.2-27.8,25.8-39.2,43.8c-3.2-3.2-3.1-7.4-3.1-7.4c10.7-20.5,19.7-34.4,28.9-47.4
			L262.4,417.7z"/>
	</g>
	
		<rect x="678.5" y="445.7" transform="matrix(0.2541 -0.9672 0.9672 0.2541 14.9922 1039.1981)" class="st0" width="5.5" height="128.4"/>
	<polygon class="st0" points="734.4,398.7 627.6,465.7 624.7,461.1 731.5,394.1 	"/>
	<path class="st0" d="M471.5,439c35.4,5.2,62.9,1.2,87-18.9c24.2-20.1,43.4-36.7,66.1-38c22.7-1.3,45.3,7.7,40.9,23.4
		c-4.4,15.7-20.6,90.7-62.3,96.5c-113.6,0-156.4,26-274.1-4.4c-58.8-15.2-106.8-22.3-116.2-29.9c14.8-7.3,31.3-30.1,35.6-59.9
		c4.2-29.8-17.4-58.3-22.3-62c15.9,3.3,58.3,11.1,62.5,13.3c34.7,19.7,27.5,53.7,67.5,60.5C388.6,425.1,471.5,439,471.5,439z"/>
	<path class="st0" d="M277.6,356.2c5.9,1.3,10.2,2.4,11.4,3c34.7,19.7,27.5,53.7,67.5,60.5c15.8,2.7,44,7.4,68.5,11.5
		c-0.7,5.1-2.7,8.3-6.7,7.6c-4.8-0.9-50.2-6.9-64.3-9.9c-14.1-2.9-25.7-7.1-31.6-17.5C305,381,299.2,374.8,277.6,356.2z"/>
	<path class="st0" d="M633.3,483.4c-7.9-7-28.4-18.2-48.6-23.9c-20.2-5.6-32-9.1-32.5-3.6s51.1,50.8,78.4,65.4
		c27.3,14.6,56.8,12.7,42.5-2.3C659.2,504.8,633.3,483.4,633.3,483.4z"/>
	<path class="st0" d="M244.9,348.9c0,0,28.6,20,23.1,67.5s-34.9,55.4-41.8,57.7c0,0-41.9-7.6-60.2-14.2s-41.2-30.9-35.9-67.2
		s28.4-56.4,57.3-53.6S244.9,348.9,244.9,348.9z"/>
	<path class="st0" d="M135.1,432.2c19.5-11.3,52.1-27.6,69.9-22.3c21.2,6.4,51.5,8.7,62.4,9.4c-6.4,44.8-34.7,52.4-41.4,54.7
		c0,0-41.9-7.6-60.2-14.2C155.3,456.1,143,446.4,135.1,432.2z"/>
	<path class="st0" d="M130,392.7c5.1-34.8,26.7-57.4,53.9-53.8c18.1,2.4,37.7,20.3,34.1,61.1c-3.1,35.9-21.1,65.9-49.3,60.8
		C154.7,458.3,123.4,437.6,130,392.7z"/>
	<path class="st0" d="M173.8,352.4c18.9,3.2,26.3,38.2,17.4,62.6c-8.9,24.4-39.8,35.6-48.4,5.1c-8.6-30.4,5.6-55.6,12.8-62.2
		C162.8,351.3,173.8,352.4,173.8,352.4z"/>
	<path class="st0" d="M180.2,401.4c-0.5,3,0.7,5.7,2.6,6.1c2,0.3,4-1.8,4.5-4.8s-0.7-5.7-2.6-6.1
		C182.7,396.2,180.7,398.4,180.2,401.4z"/>
	<path class="st0" d="M164,360.9c-0.8,2.3-0.2,4.5,1.3,4.9s3.3-1.2,4-3.5c0.8-2.3,0.2-4.5-1.3-4.9C166.6,357,164.8,358.6,164,360.9z
		"/>
	<path class="st0" d="M153.6,427.8c-0.4,2.4,1,4.7,3.2,5.1s4.3-1.3,4.7-3.7c0.4-2.4-1-4.7-3.2-5.1
		C156.2,423.7,154.1,425.3,153.6,427.8z"/>
	<path class="st0" d="M140.8,378c0,0-17-66.3-13.7-83.4c3.3-17,28.6-20,28.2,18.6c-0.5,38.5-1.9,60.5-1.9,60.5
		S144.2,371.3,140.8,378z"/>
	<path class="st0" d="M131.9,285.8c8.3-7.5,23.8-2.8,23.4,27.4c-0.5,38.5-1.9,60.5-1.9,60.5s-2.7-0.7-5.7-0.2
		c2.3-26.5,5-76.8-10.7-86.2C135.5,286.3,133.7,285.9,131.9,285.8z"/>
	<path class="st0" d="M497.7,443.4c-8-1-39.3-5.1-50.5-7l-4.8-6.8c41.9,9.1,78.9,21.4,116.1-9.5c24.2-20.1,43.4-36.7,66.1-38
		c20-1.2,39.9,5.7,41.4,18.1C599.3,345.9,571.1,454.2,497.7,443.4z"/>
	<path class="st0" d="M165.7,370c0,0,10.5,9.6,7.5,24.6s-13,20.3-18.8,21.9c-18.3-1.8-40.3-20.9-36.5-31.7
		C124.5,365.6,165.7,370,165.7,370z"/>
	<path class="st0" d="M165.7,370c0,0,7,6.4,7.9,16.9c-14.4,4.4-32.3,5.5-51.1,2.2c-1.7-0.3-3.4-0.6-5.1-1c-0.1-1.2,0-2.3,0.4-3.3
		C124.5,365.6,165.7,370,165.7,370z"/>
	<path class="st0" d="M156.3,407.8c0,0,19.2,75,15.5,94.2s-32.4,22.6-31.9-21c0.5-43.6,2.2-68.3,2.2-68.3S151.7,412.4,156.3,407.8z"
		/>
	<path class="st0" d="M436,487.3c-6.2-4-82.8-42.1-123.5-26.7c-14,5.3,234.5,179.3,267.6,195.9c36.9,11.2,84.5,7.7,96.2,5.7
		C579.6,588.9,480.6,515.9,436,487.3z"/>
	<path class="st0" d="M318,458.9c-2.1,0.6-2.9,0.8-5.5,1.7c-14.1,5.1,234.5,179.3,267.6,195.9c40.7,12.6,80.9,9,96.2,5.7
		c-39.3-11.3-67.1-12-94.1-11.8L318,458.9z"/>
	<path class="st0" d="M156.5,509.1c-13.1-2.4-14.2-35.7-13-64.1c0-0.1,0-0.2,0-0.2c0-0.4,0-0.7,0-1.1c0.3-5.9,0.6-11.5,1-16.6
		c0-0.6,0.1-1.1,0.1-1.7c0.3-4.1,0.6-7.8,0.8-10.9c0.1-0.7,0.1-1.4,0.1-2c-2.1,0.3-3.6,0.4-3.6,0.4s0,0.1,0,0.3
		c0,0.5-0.1,1.6-0.2,3.3c-0.1,2.7-0.4,6.9-0.6,12.5c-0.1,3.3-0.3,7.1-0.4,11.3c0,0.5,0,1-0.1,1.5l0,0c-0.3,10.5-0.7,23.8-0.9,39.5
		c-0.5,41.7,25.8,40.4,31.3,23.3c0.4-1.4,0.6-2.3,0.6-2.3S164.7,510.6,156.5,509.1z"/>
	<path class="st0" d="M390.8,374.1c37.4,10.8,65.6,39.9,80.7,64.9c0.5,1.8-12.3,2.1-24.5,0c-13.5-2.4-30.1-5.9-32.6-6.4
		C424.5,408.1,406.9,382.9,390.8,374.1z"/>
	<path class="st0" d="M567.5,455.5c5.1,1,10.9,2.4,17.1,4.1c20.2,5.6,40.8,16.9,48.6,23.9c0,0,26,21.4,39.7,35.7
		c2.2,2.3,3.5,4.3,3.9,5.9c-6.1-0.7-7.9-1-12.4-1.9s-36.5-12-49.5-23.3C602.7,489.1,580.1,467.3,567.5,455.5z"/>
	
		<rect x="734.4" y="388" transform="matrix(0.9977 -6.776250e-02 6.776250e-02 0.9977 -29.4334 51.0748)" class="st0" width="7.5" height="142.8"/>
	<path class="st0" d="M277.6,356.2c5.9,1.3,11.6,1.8,12.8,2.4c34.7,19.7,26,54.2,66,61.1c15.8,2.7,44,7.4,68.5,11.5
		c-0.7,5.1-2.7,8.3-6.7,7.6c-4.8-0.9-50.2-6.9-64.3-9.9c-14.1-2.9-25.7-7.1-31.6-17.5C305,381,299.2,374.8,277.6,356.2z"/>
</g>
<g id="change">
	<path class="st2" d="M465.7,360.6c-0.1,0-0.1-0.2-0.1-0.3c0-0.1,0.2-0.1,0.3-0.1c1.1,0.2,2.7,1,3.9,1.6l1.9,0.9l-0.6-1.3
		c-0.9-2-2.1-3.2-2.1-3.2c-0.1-0.1-0.1-0.2-0.1-0.3c0.1-0.1,0.2-0.2,0.3-0.2h0.1c0.4,0.2,1,0.5,1.7,1l1.6,1l-0.8-1.7
		c-0.3-0.7-0.6-1.4-1-2.3l-0.6-1.3c-1.8-4.2-5.4-8.1-6-8.8c-0.1-0.1,0-0.2,0-0.3c0.1-0.1,0.2-0.2,0.2-0.2c0.1,0,0.3,0,0.4,0
		s0.3,0,0.5,0c1.3,0.2,2-1.3,3.7-0.6l3.1,1.2l-2.5-2.1c-1.7-1.4-3.6-2.5-6-3.4c-1.1-0.4-2.3-1.4-2.9-2.9c0.1,0,0.2,0.1,0.2,0.1
		c0.1,0,0.5-0.1,1-0.6c0.4-0.4,0.3-1,0.3-1.6c0-0.5-0.1-0.9,0-1.3c0.4-1.2,0-2.5-1-3.6c-0.9-1-2.3-3.2-2.6-4.2
		c0.9-0.7,2.6-2.1,2.9-2.9c0.3-1,0.3-2.2-2.5-5.1c-0.1-0.1-0.3-0.2-0.4-0.1c-0.1,0-0.1,0-0.1,0.1c1-7.3,1.1-17.8-2.5-28.2
		c-4.8-13.6-13.6-23.4-13.6-23.4c-0.4-1.5,1.1-1.8,1.1-1.8c-0.1,0-0.1,0-0.2,0c-1.4-0.2-2.1,1-2.1,1c0.4-3.3,5.5-5.5,5.5-5.5
		c-6.3-0.4-8.3,5-8.3,5c-0.3-1.7,1.4-4,1.4-4c-1.2,0.7-2.9,3.2-3,4.9c-0.1,1.7-0.1,2.9-0.1,2.9c-7.9,9.9-13.6,23.4-16.4,32
		c-4.3-21.4-20.3-35.5-20.8-36.1c-0.9-0.9-1.8-1.1-2.2-1.1c-0.1,0-0.2,0-0.2,0c-0.2,0-0.4,0-0.5,0c-2-0.3-3.3-2.7-3.3-2.7
		c-0.1,2.5,3.4,4.2,3.4,4.2c-0.7,0.1-1.4,0.1-2,0c-4.2-0.5-5.9-4.9-5.9-4.9c0.1,5.5,4.4,6.4,5.4,6.4c0.2,0,0.4,0,0.4,0
		c-0.6,0.4-1.1,0.4-1.6,0.4c-0.5-0.1-0.9-0.3-0.9-0.3c0.7,0.6,1.2,0.9,1.7,0.9c0.6,0.1,0.9-0.1,0.9-0.1c-0.6,0.6-3.9,6.1-6.2,13.7
		c-2.3,7.4-3.5,21.8-3.6,26.6c-0.1,0-0.1,0-0.2,0.1c-0.2,0.1-0.3,0.1-0.5,0.2H384c-0.1,0-0.1,0-0.2,0.1c0.1-0.3,0.1-0.6,0.1-0.7
		s0-0.2-0.1-0.3c-0.1-0.1-0.2-0.1-0.3-0.1c-1.3-0.1-2.2,0.2-2.8,0.6c-0.8,0.6-2.2,2.7-2.4,2.9c-0.3,0.4-0.2,0.8-0.1,1.1
		c0.1,0.3,0.1,0.6,0.1,0.9c-0.1,0.4-1,3.6-2.8,4.3c-0.3-0.3-0.8-0.6-1.2-0.6c-0.2,0-0.7,0.1-1,0.6c-0.3,0.4-0.4,0.9-0.2,1.6
		c0,0.2,0.1,0.5,0.2,0.8c-5.3,0.5-10.5,2.4-15.9,5.7c-3.1,1.9-4.7,4.3-5.3,5.6l-0.5,1l1.1-0.3c1.8-0.5,3.1-0.4,3.5-0.3
		c1.2,0.2,1.9,0.5,1.9,0.5c0.2,0.1,0.2,0.3,0.2,0.4s-0.1,0.2-0.2,0.2c-2.1,0.4-3.1,1.2-3.5,1.8l-1.2,1.6l1.9-0.8
		c1.2-0.5,2.7-0.7,4.5-0.4c0.8,0.1,1.5,0.3,2.1,0.4l0.8,0.2c1.7,0.4,9.3,5.3,12.3,8c3,2.6,8.5,9.1,9.7,11.5c1,2.2,3.1,3.8,3.9,4.1
		l0.3,0.1c1,0.3,2.3,0.8,2.9,1.7c0.5,0.9,1.7,2.6,2.1,3.2l0.1,0.2h0.2c1.4,0.2,8.9,1.2,18.4,3.1c2.7,0.9,5.6,1.4,7.7,1.7
		c1.6,0.2,2.8,0.3,3.4,0.4c0.2,0,0.4,0,0.5,0h0.1h0.1c4.9-0.9,11.8-1.8,20.5-2.8c1.6-0.2,3.1-0.7,4.5-1.4l0.2-0.1
		c1.5-0.6,2.9-1.1,4.2-1l1.1,0.1c7.9,1,13.4,3.1,16,4.3l1.3,0.6l-0.6-1.3C469.8,363.9,465.9,360.8,465.7,360.6z"/>
	<path class="st3" d="M381.4,369c-5.5-2.5-12.1-4.1-5.7-9.7s9.3-4.9,9.3-4.9c1.7-0.4,51.1,25.4,77.7,21.3
		c19.2-2.9,26.6-15,38.8-15.9c12.3-0.9,15.7,8.8,33.8,18.5c0,0-30-9.6-50.8,10.1s-45.7,4.5-63.2-4
		C405.9,370.2,386.9,371.4,381.4,369z"/>
	<g>
		<path class="st4" d="M410.4,373.2c26.8,2.8,29.2,18.6,60.7,11.1c24.2-5.8,17-30,64.2-5.9c0,0-30-9.6-50.8,10.1s-45.7,4.5-63.2-4
			L410.4,373.2z"/>
	</g>
	<path class="st5" d="M377.4,367c0.6,0.1,1.1,0.9,4,2c2.8,1.1,13.1,2.7,21.4,3.8c5.6,0.7,10.2,1.2,11.2,1.2c0.2,0,0.3,0,0.5,0
		c2.7,0.4,9.3,3.9,10.3,5.5c2.2,3.7-1.2,3.5-1.2,6.2s-3,8.9-4.5,12.3c-1.5,3.5-5.1,10.4-7.3,13.8c-2.1,3.4-5.6,13.5-6.7,16.4
		c-5.4-3.6-20.2-4.2-29.2-7.5c-4.1-1.5-8.8-2.4-12.6-2.9c-4.6-0.6-8-0.7-8-0.7c-0.1-4.2,0.8-15.3,2.1-22.4c1.3-7,5.9-14.8,8.2-17.7
		c2.7-3.3,6.8-7.6,10-9.4C376.6,367.2,377,366.9,377.4,367L377.4,367z"/>
	<g id="torso_o_2_">
		<g>
			<g>
				<path class="st6" d="M359.4,388.6c0-0.1,0.1-0.3,0.3-0.8c0.1-0.3,0.2-0.6,0.4-1.1c0.2-0.4,0.4-0.8,0.6-1.4
					c0.9-2,2.5-4.8,4.4-7.4c2-2.7,4.2-4.9,5.8-6.5c0.8-0.8,1.5-1.4,2-1.7c0.5-0.4,0.7-0.6,0.7-0.6c-1.2,0.9-2,1.6-2.7,2.2
					s-1.2,1.1-1.8,1.6c-0.2,0.2-0.6,0.5-0.8,0.8c-0.3,0.3-0.6,0.6-0.9,1c-0.6,0.8-1.5,1.7-2.5,3c-2,2.7-2.8,4.3-3.4,5.7
					c-0.2,0.4-0.3,0.7-0.5,1c-0.2,0.4-0.3,0.7-0.5,1.2c-0.2,0.4-0.4,0.8-0.6,1.4C359.8,387.4,359.7,388,359.4,388.6z"/>
			</g>
		</g>
	</g>
	<g>
		<g>
			<g>
				<path d="M400.7,365.4c0,0-0.2,0-0.4-0.1c-0.3,0-0.6-0.1-1.1-0.2c-1-0.2-2.2-0.4-3.7-0.6c-0.7-0.1-1.4-0.2-2-0.3
					c-0.3,0-0.6-0.1-0.8-0.2c-0.3-0.1-0.5-0.2-0.7-0.3c-0.4-0.2-0.7-0.6-0.8-0.7c-0.1-0.2-0.1-0.4-0.1-0.3c0.1,0.3,0.2,0.6,0.4,0.8
					c0.1,0.2,0.3,0.3,0.5,0.5c0.3,0.2,0.6,0.4,0.9,0.5c0.6,0.1,1.3,0.2,2.8,0.5C398.3,365.3,398.3,365.2,400.7,365.4z"/>
			</g>
		</g>
	</g>
	<g>
		<g>
			<g>
				<path d="M404,438.2c0,0,0.1,0,0.2-0.2c0.1-0.1,0.3-0.4,0.3-0.7c0-0.2,0-0.4-0.1-0.6s-0.2-0.4-0.3-0.6c-0.2-0.4-0.5-0.7-0.8-1.1
					c-0.7-0.7-1.3-1.4-1.8-1.8c-0.2-0.2-0.5-0.3-0.7-0.4c-0.1-0.1-0.2-0.1-0.2-0.1c0.7,0.6,0.9,0.9,1.2,1.1c0.3,0.3,0.6,0.6,1.2,1.4
					c0.6,0.7,0.9,1.1,1.1,1.5c0.1,0.2,0.1,0.3,0.1,0.6C404.3,437.6,404.3,437.9,404,438.2z"/>
			</g>
		</g>
	</g>
	<g id="ear_r_3_">
		<path d="M398.2,265.8c0,0.1,0.1,0.1,0.1,0.2c0.1,0,0.1,0.1,0.2,0.2c4,3.7,17.4,17.5,20.5,36.9c0.9,5,1.4,8.2,1.6,10.2
			c-2.7-0.2-7.6-0.7-12.6-1.2c-15.2-1.3-16.5-0.7-17.2-0.4c-1.1,0.5-2.4,0.7-3.3,0.6c-0.4,0-0.5-0.1-0.6-0.2
			c-0.2-0.3-0.6-1.4-0.8-2.5l0.2-0.6c0.1-0.2,0.1-0.4,0.1-0.5c0.2-4.6,1.3-19.3,3.6-26.5c2.2-7.2,5.2-12.4,5.9-13.1
			c0.4-0.4,0.5-1.1,0.3-1.7c0.1-0.2,0-0.2,0-0.4c0.2,0,0.4-0.1,0.6-0.1C397.5,266.7,398,266.3,398.2,265.8 M388.7,260.3
			c0.1,5.5,4.4,6.4,5.4,6.4c0.2,0,0.4,0,0.4,0c-0.6,0.4-1.1,0.4-1.6,0.4c-0.5-0.1-0.9-0.3-0.9-0.3c0.7,0.6,1.2,0.9,1.7,0.9
			c0.6,0.1,0.9-0.1,0.9-0.1c-0.6,0.6-3.9,6.1-6.2,13.7c-2.3,7.7-3.6,22.7-3.6,27l-0.3,1c0,0,0.4,2.8,1.2,3.8
			c0.3,0.4,0.9,0.7,1.6,0.8c1.1,0.1,2.6,0,4.2-0.7c2.6-1.1,30.8,1.9,30.8,1.9s0.3,1.4,0.4,1.5c0.1,0-0.2-2.5-2-13.8
			c-3.6-22.5-20.6-37.5-21.1-38c-0.9-0.9-1.8-1.1-2.2-1.1c-0.1,0-0.2,0-0.2,0c-0.2,0-0.4,0-0.5,0c-2-0.3-3.3-2.7-3.3-2.7
			c-0.1,2.5,3.4,4.2,3.4,4.2c-0.7,0.1-1.4,0.1-2,0C390.4,264.7,388.7,260.3,388.7,260.3L388.7,260.3z"/>
		<path class="st7" d="M387.5,313.2c1.1,0.1,2.5-0.1,3.8-0.6c2.5-1.1,24.1,1.1,30.4,1.7c-0.3-1.9-0.8-5.2-1.8-11.3
			c-3.2-19.7-16.7-33.6-20.7-37.4c-0.1-0.1-0.1-0.2-0.1-0.2c-0.8-0.7-1.5-1-1.7-1h-0.1c-0.1,0-0.2,0-0.2,0c0.1,0,0.1,0,0.1,0
			c0.3,0.1,0.5,0.5,0.4,0.9c0,0.4-0.3,0.6-0.7,0.7c-0.8,0.1-1.5,0.1-2.3,0l0,0c-1-0.1-1.8-0.4-2.5-0.8c0.8,0.5,1.8,0.8,2.4,0.9
			c0.2,0,0.3,0,0.3,0c0.1,0,0.1,0,0.1,0c0.3,0,0.6,0.2,0.7,0.6c0.1,0.2,0.1,0.4-0.1,0.6l0,0c0.2,0.3,0.2,0.8,0,1.1
			c-0.5,0.5-3.7,5.8-6.1,13.4c-2.3,7.3-3.5,22.2-3.6,26.8c0,0.1,0,0.2,0,0.3l-0.3,0.8c0.2,1.1,0.5,2.7,1,3.1
			C386.5,312.9,386.9,313.1,387.5,313.2L387.5,313.2z"/>
	</g>
	<path id="inner_r_2_" class="st8" d="M387.7,306.9c0-5,1.2-17.9,3.1-24.8c1.7-6.3,4.1-11.4,4.6-12.3c0.4-0.8,0.9,0,2.1,4
		c1.9,6.4,4.5,23.3,5.1,31.3c0,0-2.6,2.6-7.9,4s-9.1,3.7-8.4,2.3C387.8,308.4,387.7,306.9,387.7,306.9z"/>
	<path class="st8" d="M408.4,282.5c1.9-0.3,3.5,0.3,4.8,1.1c0.8,1.5,1.6,3.1,2.4,4.8c-0.1-0.2-0.4-0.5-0.5-0.7
		C412.3,284.4,408.4,282.5,408.4,282.5z"/>
	<path class="st8" d="M410,288.9c2.1-0.3,4.3,0.3,5.8,0.9c0.2,0.1,0.2,0.1,0.4,0.2c0.7,1.9,1.5,3.8,2.1,5.8
		c-0.2-0.4-0.4-0.8-0.7-1.2C414.7,290.5,410,288.9,410,288.9z"/>
	<path class="st8" d="M418.5,297.9c0.1,0.1,0.1,0.1,0.2,0.2c0.2,0.9,0.4,1.8,0.6,2.7c-3.2-3.5-7.4-4.6-7.4-4.6
		C415.1,296,417.2,297,418.5,297.9z"/>
	<g id="ear_l_1_">
		<path d="M439.5,266.1c0.2,0.5,0.6,0.9,1.1,1.2c0.1,0,0.1,0,0.2,0h0.1c0,0,0,0.1,0.1,0.2s8.6,9.7,13.2,22.8
			c4.7,13.6,2.6,27.1,1.6,31.8l-15.3-0.4l-14.8-6.5l-5.6-7.9c1.2-6.3,7.8-25,17.7-37.4c0.2-0.3,0.3-0.6,0.3-1c0,0,0.1-1,0.1-2.2
			C438.8,266.7,439.2,266.5,439.5,266.1 M446.5,260.1c-6.3-0.4-8.3,5-8.3,5c-0.3-1.7,1.4-4,1.4-4c-1.2,0.7-2.9,3.2-3,4.9
			c-0.1,1.7-0.1,2.9-0.1,2.9c-10.5,13.2-17.3,32.9-18.2,38.8l6.3,8.9l15.6,6.8l16.9,0.4c1.5-6.4,3.3-20.4-1.4-34
			c-4.8-13.6-13.6-23.4-13.6-23.4c-0.4-1.5,1.1-1.8,1.1-1.8c-0.1,0-0.1,0-0.2,0c-1.4-0.2-2.1,1-2.1,1
			C441.4,262.3,446.5,260.1,446.5,260.1L446.5,260.1z"/>
		<path class="st7" d="M456.6,323c0.9-4,3.5-18.4-1.6-32.9c-4.6-13.4-13.4-23-13.4-23.1c-0.1-0.1-0.1-0.2-0.2-0.3
			c0-0.1-0.1-0.2-0.1-0.3c-0.2,0.1-0.3,0.1-0.5,0.1c-0.1,0-0.1,0-0.2,0c-0.4-0.2-0.6-0.5-0.5-0.9c0.2-1.6,1.3-3,2.5-4
			c-2.7,1.2-3.7,3.7-3.8,3.9c-0.2,0.4-0.5,0.5-0.9,0.5l0,0c-0.2,0-0.5-0.2-0.6-0.3c0,0.2,0,0.3-0.1,0.4c0,1.6-0.1,2.9-0.1,2.9
			c0,0.2,0,0.4-0.2,0.5c-10.2,12.7-16.8,32-17.9,38l6,8.4l15.2,6.7L456.6,323z"/>
	</g>
	<path id="inner_l_1_" class="st8" d="M422.1,306.6c1.8-8,10.6-28.8,15.2-34c0,0,0.9-2.1,1.6-0.3c0.8,1.7,7.4,20.3,7.2,47.5
		c0,0-12.2-4.6-15-4.7c-2.9-0.1-5.4-2.5-6.6-3.9C423.2,309.6,422.1,306.6,422.1,306.6z"/>
	<path class="st8" d="M450.8,290.3c2.2-0.3,3.7,0.2,4.7,0.8c0.5,1.5,0.9,2.9,1.2,4.4C454.5,292,450.8,290.3,450.8,290.3z"/>
	<path class="st8" d="M457.9,305.7c-2-5.9-6.7-8.7-6.7-8.7c2.9,0.5,5,2,6.1,3.2C457.6,302.2,457.8,304,457.9,305.7z"/>
	<path class="st8" d="M451.6,305.3c2.7,0.7,5.2,2.6,6.5,3.8c0,1.5-0.1,2.9-0.1,4.3C455.6,309,451.6,305.3,451.6,305.3z"/>
	<g>
		<path class="st9" d="M420.3,368.2c2.2,0.3,3.6,0.4,3.9,0.4c6.3-1.1,14.7-2.1,20.5-2.8c1.6-0.2,3-0.7,4.4-1.3
			c1.7-0.7,3.1-1.3,4.7-1.1c0.4,0,0.7,0.1,1.1,0.1c7.8,1,13.4,3.1,16.1,4.3c-1.6-3.6-5.6-6.7-5.6-6.7c-0.3-0.2-0.4-0.6-0.3-1
			c0.1-0.3,0.5-0.5,0.9-0.4h0.1c1.3,0.3,3.2,1.2,4.6,1.9c-0.8-1.9-2-3-2-3c-0.3-0.3-0.4-0.7-0.1-1c0.2-0.2,0.5-0.4,0.8-0.4
			c0.1,0,0.2,0,0.2,0.1c0.5,0.2,1,0.5,1.8,1c-0.5-1-1-2.2-1.6-3.6c-1.8-4.4-5.8-8.6-5.9-8.7c-0.2-0.2-0.3-0.6,0-0.9
			c0.1-0.3,0.4-0.5,0.7-0.4c0.3,0,0.5,0,0.9,0.1c1.4,0.2,2.3-1.3,3.9-0.6c-1.7-1.4-3.6-2.5-5.8-3.3c-2-0.7-4-3-3.7-6.3
			c0-0.9-1.7-3.4-2.7-4.7c-0.8-1.1-1.2-1.7-1.3-2.1c-0.4-0.9-5.3-6.4-10-9.5c-0.2-0.2-0.4-0.4-0.4-0.7c0-0.6,0-1.2,0-1.9
			c-0.5-1-1-1.8-1.6-2.2c-0.3-0.2-0.7-0.4-1-0.7c-1.3-0.8-2.6-1.6-3.2-2.7c0-0.1,0-0.1-0.1-0.2c0.1,0.6,0.4,1.3,0.7,1.9
			c0.1,0.3,0.1,0.6-0.1,0.9c-0.1,0.1-0.2,0.1-0.2,0.2s0.1,0.1,0.1,0.1c0.2,0.2,0.3,0.7,0,1c-0.2,0.2-0.5,0.4-0.7,0.3
			c-0.1,0-0.2,0-0.3-0.1c-0.7-0.3-1.1-0.5-1.1-0.5c-0.2-0.1-0.3-0.1-0.3-0.3c-3.2-4.3-7-6.5-12-7.1c-4-0.5-8.6,0-14.1,0.6
			c-0.8,0.1-1.6,0.1-2.4,0c-3-0.4-5.7-1.9-7.1-2.8c-1-0.7-2.1-1.5-2.8-2.3c-0.3,0.8-0.2,1.6,1.6,2.6c0.4,0.2,0.5,0.6,0.4,1
			s-0.5,0.5-0.9,0.5c-0.1,0-0.1,0-0.1,0c-1.4-0.3-4-1.3-5.3-4c-0.7-1.7-0.6-2.7-0.4-3.5c-0.6,0.2-1.3,0.6-1.7,1.2
			c-0.7,1.1-0.6,2.6,0.3,4.4c0.2,0.3,0.1,0.8-0.2,1c-0.2,0.1-0.4,0.2-0.6,0.1c-0.2,0-0.3-0.1-0.5-0.2c-1.3-1.2-2.8-2.9-3-4.3
			c-0.2,0.2-0.2,0.6-0.3,0.9c0,0.9,0.5,2.5,2.8,4.5c0.1,0.2,0.6,0.6,0.3,1.1c-0.1,0.3-0.4,0.5-0.7,0.4c-2.7,0.1-4.1,0.3-5.1,0.9
			c-0.5,0.3-1.1,0.4-1.6,0.6c-0.7,0.2-1.5,0.5-1.8,0.8c-0.1,0.2-0.3,0.8-0.3,1.3c-0.6,2.8-2,8.7-7.7,9.1c-5.6,0.4-11.1,2.2-16.8,5.7
			c-2.8,1.7-4.4,3.9-5.1,5.4c1.6-0.4,2.9-0.4,3.7-0.3c1.2,0.2,2,0.5,2.1,0.6c0.3,0.2,0.5,0.5,0.4,0.9c0,0.4-0.3,0.6-0.6,0.7
			c-1.8,0.4-2.7,1-3.2,1.6c1.4-0.6,3-0.7,4.8-0.5c1,0.1,1.9,0.4,2.5,0.5l0.4,0.1c1.9,0.5,9.6,5.5,12.5,8.1c3.1,2.7,8.7,9.2,9.8,11.7
			c1,2.1,2.9,3.6,3.6,3.8l0.3,0.1c0.9,0.3,2.4,0.8,3.2,1.9c0.5,0.8,1.6,2.5,2.1,3.1c1.6,0.2,9.1,1.2,18.5,3.2
			C415.2,367.4,417.9,367.9,420.3,368.2z"/>
		<path d="M397.6,297.2c-0.1,0-0.1,0-0.1,0C397.6,297.2,397.6,297.2,397.6,297.2L397.6,297.2z"/>
	</g>
	<g id="mouth_2_">
		<g>
			<g>
				<g>
					<path class="st10" d="M369.4,334.9c0.6,0.6,1.2,1,1.8,1.4c0.6,0.4,1.1,0.8,1.8,1.2c1.2,0.8,2.5,1.6,4.1,2.7
						c0.9,0.6,2.7,1.7,4.9,3c1.2,0.7,2.3,1.3,3.6,2c1.3,0.7,2.7,1.2,4.1,1.7c2.7,1,5.5,1.6,7.5,1.9c1,0.2,1.9,0.2,2.4,0.3
						c0.6,0.1,0.9,0.1,0.9,0.1s1.3,0.1,3.3,0.2s4.8,0.1,7.7,0.1c2.9,0,5.9-0.3,8.5-0.8c2.5-0.4,4.6-1,5.6-1.4c3.7-1.3,5.7-2.2,8.4-4
						c-2.5,2-4.6,3.1-8.3,4.4c-1,0.4-3.1,0.9-5.6,1.4c-2.6,0.5-5.6,0.7-8.5,0.8c-2.9,0.1-5.7,0-7.8-0.1c-2-0.1-3.4-0.2-3.4-0.2
						s-0.3,0-0.9-0.1s-1.4-0.1-2.4-0.3c-2-0.4-4.7-1-7.5-2c-1.4-0.5-2.8-1.1-4.1-1.7c-1.3-0.7-2.5-1.3-3.7-2c-2.2-1.3-4-2.5-4.9-3
						c-1.6-1.1-2.9-1.9-4.1-2.8c-0.6-0.5-1.1-0.9-1.7-1.3C370.6,335.9,370,335.4,369.4,334.9z"/>
				</g>
			</g>
		</g>
	</g>
	<g>
		<g>
			<g>
				<path class="st11" d="M364.6,332.6c0,0.1,0-0.7,0.6-1.6c0.3-0.5,0.8-0.9,1.4-1.3s1.4-0.5,2.2-0.6c1.7-0.2,3.3-0.1,4.4,0.1
					c0.5,0.1,1,0.2,1.3,0.3c0.3,0.1,0.5,0.1,0.5,0.1c-1.4-0.5-2.1-0.6-2.9-0.8c-0.4,0-0.7-0.1-1.2-0.1s-1.2,0-2,0.1
					c-1.7,0.2-2.5,0.8-3.1,1.3c-0.3,0.3-0.5,0.6-0.7,1C364.7,331.4,364.6,331.9,364.6,332.6z"/>
			</g>
		</g>
	</g>
	<g>
		<g>
			<g>
				<path class="st11" d="M443.9,343.7c0,0-0.1-0.2-0.3-0.5c-0.1-0.2-0.2-0.3-0.4-0.6c-0.2-0.2-0.3-0.5-0.6-0.7
					c-0.9-0.9-2.5-1.9-4.3-2.5c-1.9-0.7-3.6-1-4.9-1.1c-0.6,0-1.2,0-1.6,0c-0.3,0-0.5,0-0.5,0c1.7,0.1,2.5,0.3,3.3,0.5
					s1.7,0.3,3.6,1s2.6,1.2,3.4,1.6c0.1,0.1,0.4,0.2,0.5,0.3c0.1,0.2,0.3,0.3,0.5,0.4s0.4,0.4,0.6,0.6
					C443.5,343,443.6,343.3,443.9,343.7z"/>
			</g>
		</g>
	</g>
	<g>
		<g>
			<g>
				<path d="M430.7,365.2c0,0.1-0.2-0.3-0.8-0.6c-0.6-0.3-1.7-0.5-2.9-0.5c-1.2,0-2.7,0.2-4.4,0.5c-1.6,0.3-3.4,0.6-5.2,1.1
					c-1.8,0.4-3.7,0.7-5.3,0.6c-0.8,0-1.5-0.2-2.3-0.3s-1.4-0.2-2-0.3c-1.2-0.2-2.2-0.2-2.9-0.3c-0.7,0-1.1,0-1-0.1
					c1.7,0.2,2.9,0.4,3.9,0.5c1,0.2,1.8,0.3,2.6,0.4c0.4,0.1,0.8,0.2,1.3,0.2c0.4,0.1,1,0.1,1.6,0c1.1,0,2.6-0.2,4.4-0.6
					c1.8-0.5,3.2-0.7,4.3-0.9c1.2-0.2,2-0.4,2.9-0.5s1.6-0.3,2.6-0.3c0.5,0,1,0,1.6,0.1C429.4,364.5,430.1,364.7,430.7,365.2z"/>
			</g>
		</g>
	</g>
	<g>
		<g>
			<g>
				<path d="M426.4,363c0,0-0.1,0-0.2,0.1c-0.2,0.1-0.3,0.1-0.6,0.3c-0.5,0.2-1.1,0.4-1.9,0.7c-0.7,0.3-1.4,0.5-1.9,0.7
					c-0.2,0.1-0.5,0.2-0.6,0.2c-0.2,0-0.2,0.1-0.2,0.1c1.4-0.3,1.3-0.2,2.7-0.7c0.7-0.3,1.1-0.4,1.4-0.6
					C425.6,363.5,425.9,363.4,426.4,363z"/>
			</g>
		</g>
	</g>
	<g>
		<g>
			<g>
				<path class="st11" d="M369.6,337.5c0,0-0.1-0.4-0.4-1c-0.1-0.3-0.5-0.7-0.7-1c-0.1-0.2-0.3-0.4-0.4-0.6s0-0.4,0.1-0.6
					c0.3-1,0.8-1.8,1.2-2.4c0.2-0.3,0.3-0.5,0.5-0.6c0.1-0.1,0.2-0.2,0.2-0.2c-0.4,0.3-0.6,0.5-0.7,0.8c-0.2,0.2-0.3,0.4-0.5,0.6
					c-0.2,0.4-0.5,0.8-0.9,1.8c-0.1,0.3-0.2,0.5-0.1,0.8c0.1,0.2,0.2,0.4,0.3,0.5c0.2,0.2,0.4,0.4,0.5,0.6
					C369,336.3,369.3,336.7,369.6,337.5z"/>
			</g>
		</g>
	</g>
	<g>
		<g>
			<g>
				<path class="st11" d="M436.6,346.5c0,0.1,0-0.5,0.5-1.3c0.1-0.1,0.3-0.3,0.5-0.5c0.1-0.1,0.2-0.2,0.2-0.4c0-0.1,0-0.2,0-0.3
					c0-0.1-0.1-0.2-0.1-0.2c-0.4-0.5-1-0.9-1.5-1.2c-0.3-0.2-0.6-0.3-0.8-0.5c-0.2-0.2-0.6-0.3-0.9-0.4c-0.6-0.2-1.2-0.2-1.5-0.2
					c-0.5,0-0.8,0-1.1,0c-0.2,0-0.4,0.1-0.4,0.1c1.2,0,1.8,0.1,2.3,0.2c0.3,0.1,0.6,0.1,0.9,0.3s0.8,0.4,1.4,0.8
					c0.6,0.3,1,0.7,1.3,1c0.1,0.1,0.3,0.3,0.3,0.4s0,0.2-0.1,0.3c-0.2,0.2-0.3,0.5-0.6,0.8C436.7,345.5,436.5,345.9,436.6,346.5z"/>
			</g>
		</g>
	</g>
	<g>
		<g>
			<g>
				<path d="M391.3,353.9c0,0,0,0.1,0.1,0.1c0.1,0.1,0.2,0.2,0.5,0.3c0.4,0.2,0.9,0.5,1.5,0.7s1.2,0.3,1.7,0.3c0.2,0,0.4,0,0.5,0
					s0.2,0,0.2,0c-0.5-0.1-0.8-0.3-1.1-0.3c-0.3-0.1-0.6-0.2-1.2-0.3c-0.6-0.2-0.9-0.3-1.2-0.4C392,354.2,391.8,354.1,391.3,353.9z"
					/>
			</g>
		</g>
	</g>
	<g>
		<g>
			<g>
				<path d="M407.4,354.9c0,0-0.1,0-0.2,0.1s-0.2,0.2-0.5,0.4c-0.5,0.3-1.3,0.7-2.3,0.9c-0.6,0.1-1.1,0.2-1.7,0.2
					c-0.6,0.1-1.3,0.1-2,0.3c-0.7,0.1-1.4,0.5-2,0.7c-0.3,0.1-0.7,0.2-1.1,0.2c-0.4,0.1-0.8,0.1-1.1,0c-0.8-0.1-1.5-0.5-2.1-0.8
					c-0.7-0.4-1.3-0.7-1.9-1.1c-1.2-0.7-2.3-1.4-3.2-1.9c-1.8-1.1-2.8-1.7-2.9-1.7c2.3,1.6,3.4,2.3,4.6,3.1c0.6,0.3,1.2,0.8,2,1.2
					c0.4,0.2,0.8,0.5,1.4,0.8s1.2,0.6,2,0.8c0.4,0.1,0.8,0.1,1.2,0c0.3-0.1,0.7-0.1,1-0.2c0.6-0.2,1.1-0.5,1.5-0.6
					c0.9-0.4,1.6-0.4,2.3-0.5c0.7-0.1,1.4-0.1,2.2-0.4C405.6,356.3,406.5,355.8,407.4,354.9z"/>
			</g>
		</g>
	</g>
	<g id="nose_3_">
		<path class="st1" d="M393.4,344.2c1.2,0.2,2.4,0.1,2.6-0.1c0.2-0.1,0.2-0.2,0.3-0.8c0.1-0.4,0.1-0.9,0.5-1.5
			c0.6-1.1,5.9-6.1,7.4-6.7c0.5-0.2,0.7-0.4,0.7-0.7c0-0.2-0.2-0.5-0.5-0.6c-2.4-1.6-3.6-2.1-6.6-2.5c-0.3,0-0.6-0.1-0.9-0.1
			c-5.8-0.7-9.6-0.6-9.9-0.6c-2.1,0-3.2,0.4-3.4,0.6c-0.3,2.7,0.4,5.3,2.3,7.8l0.7,0.9c2.3,3,2.5,3.3,3.1,3.5
			c0.5,0.2,1.7,0.4,2.6,0.6c0.3,0,0.5,0.1,0.8,0.2C393.1,344.2,393.3,344.2,393.4,344.2z"/>
		<path d="M397.9,330.7l-0.1,1.5c2.9,0.4,4,0.8,6.3,2.4l0,0H404c-1.8,0.6-7,5.6-7.8,7c-0.4,0.7-0.5,1.3-0.6,1.8c0,0.1,0,0.1,0,0.2
			c-0.4,0-1.2,0.1-2.1-0.1c-0.2,0-0.3,0-0.4-0.1c-0.3,0-0.6-0.1-0.8-0.2c-0.9-0.2-2.1-0.4-2.5-0.6c-0.3-0.1-0.7-0.6-2.8-3.3
			l-0.6-0.8c-1.7-2.2-2.4-4.5-2.2-6.8c0.4-0.1,1.3-0.3,2.8-0.3c0.4-0.1,4.2-0.1,9.9,0.6c0.3,0,0.6,0.1,0.9,0.1l0,0L397.9,330.7
			 M397.9,330.7c-0.3,0-0.6-0.1-0.9-0.1c-5.1-0.6-8.9-0.6-10-0.6c-1.8,0-4,0.3-4.1,1.1s-0.7,4.3,2.5,8.3c3.1,4,3.3,4.3,4,4.6
			c0.7,0.3,2.5,0.6,3.6,0.8c0.2,0,0.4,0,0.5,0.1c1.1,0.1,2.6,0.2,3-0.1c0.8-0.5,0.4-1.5,1-2.5c0.6-1.1,5.7-5.9,7.1-6.4
			c1.4-0.6,1.6-1.8,0.3-2.6C402.2,331.7,400.9,331.1,397.9,330.7L397.9,330.7z"/>
	</g>
	<path id="mask_2_" class="st12" d="M374.4,317c0.4-0.1,1,0.6,1,0.6c2.1-0.5,3.2-3.9,3.4-4.7c0.2-0.9-0.4-1.5,0-1.8
		c0.3-0.5,1.6-2.4,2.3-2.8s1.6-0.5,2.5-0.5c0,0,0,0.5-0.2,0.9c-0.2,0.5-0.7,0.7-0.7,0.7s-0.1,0.5,0.3,1.3s1.1,1.4,2,1.4
		s4.8-1.8,6.8-2s10.8,1.2,17.4,2.5c6.5,1.3,18.1,5.9,22.5,7.5c4.4,1.7,7,0.8,8.6,0.6s7.1,0.8,10,0.8c2.9,0.1,8.2-2,8.2-2l0.3-1.1
		c3,3,2.6,4,2.4,4.7s-2.9,2.8-2.9,2.8c0.1,1,1.8,3.6,2.8,4.7s1.2,2.2,0.9,3.2c-0.3,1,0.2,2.3-0.2,2.7c-0.4,0.4-0.7,0.5-0.7,0.5
		c-0.4-0.9-0.4-2-0.4-2c-0.2-0.3-0.3-0.7-3-1.3s-7.9,1.1-10.1,1.7s-8.3,1.4-17.7,1.7c-9.3,0.2-16.5-2.7-19-4c-1.5-0.8-2.1-1.5-3-2.3
		l-4-2c-3.9-1-11.3-1.6-13.6-1.9c-1.8,0.6-4.4,1.9-4.4,1.9c-5.8,0.1-6.9-1.4-8.7-3.1c-1.9-1.7-3.2-5.4-3.5-6.9
		C373.2,317.3,374,317.1,374.4,317z"/>
	<g>
		<path class="st1" d="M384.4,327.9c0.5,0.1,1.1,0.1,1.5,0c0.1,0,0.1,0,0.2-0.1c0,0,1.1-0.7,2.1-0.9c1-0.2,2.4-0.2,2.4-0.2
			c0.1,0,0.2-0.1,0.3-0.2c0.6-0.7,3.4-4.2,3.9-5.2c0.2-0.3,1.8-3.3,0.2-5.7c0-0.1-0.1-0.1-0.1-0.1c-0.1,0-0.8-0.5-2.3-0.7
			c-0.6-0.1-1.3-0.1-2.1-0.1c-0.9,0-1.6,0.1-2.2,0.3c-0.4,0.1-0.9,0.2-1.3,0.4c-3,1.1-6.2,4.9-6.4,10.4c0,0.2,0.1,0.3,0.2,0.3
			c0.1,0.1,0.1,0.1,0.3,0.4c0,0.1,0,0.1,0.1,0.1C382.4,327.5,383.6,327.8,384.4,327.9L384.4,327.9z"/>
		<path d="M392.5,315.4c1.4,0.2,2.1,0.6,2.1,0.7c1.3,2,0.3,4.4-0.2,5.2c-0.5,0.9-3.2,4.3-3.9,5.1c0,0-1.4,0-2.5,0.2
			c-1.2,0.2-2.3,0.9-2.3,0.9c-0.3,0.1-0.8,0.1-1.4,0c-0.9-0.1-2-0.4-2.9-1.1c-0.2-0.3-0.3-0.4-0.4-0.5c0.1-5.2,3.3-8.8,6.1-9.9
			c0.3-0.2,0.8-0.3,1.2-0.4c0.6-0.1,1.3-0.2,2.1-0.3C391.3,315.3,392,315.4,392.5,315.4 M392.7,314.5c-0.6-0.1-1.4-0.1-2.2-0.2
			c-1,0-1.7,0.2-2.3,0.2c-0.4,0.1-1,0.3-1.4,0.4c-3.1,1.2-6.5,5.1-6.7,10.8c0,0.3,0.1,0.6,0.3,0.7c0,0.1,0.1,0.1,0.3,0.4
			c0,0.1,0.1,0.1,0.2,0.2c1.2,0.8,2.5,1.1,3.4,1.2c0.6,0.1,1.2,0.1,1.7,0.1c0.2,0,0.3,0,0.4-0.1c0,0,1-0.6,1.9-0.8
			c1-0.2,2.4-0.2,2.4-0.2c0.3,0,0.5-0.1,0.7-0.3c0.6-0.7,3.4-4.3,3.9-5.2c0.2-0.4,1.9-3.5,0.2-6.2c-0.1-0.1-0.2-0.2-0.3-0.3
			C395.1,315.2,394.3,314.7,392.7,314.5L392.7,314.5z"/>
	</g>
	<path class="st13" d="M388.2,326.6c-1.2,0.2-2.3,0.9-2.3,0.9c-0.4,0.1-1,0-1.8-0.1c-0.8-0.2-1.5-0.4-1.7-0.5c-0.2-2,0.8-5.2,3-7
		c3.7-2.9,6.1-1.5,7.1-0.6c0.8,0.7,1.2,2.4,0.9,3.6c-1,1.4-2.3,2.9-2.7,3.4C390.6,326.3,389.2,326.4,388.2,326.6z"/>
	<path class="st14" d="M388.2,326.6c-1.2,0.2-2.3,0.9-2.3,0.9c-0.4,0.1-1,0-1.8-0.1c-0.8-0.2-1.5-0.4-1.7-0.5c-0.2-2,0.8-5.2,3-7
		c3.7-2.9,6.1-1.5,7.1-0.6c0.8,0.7,1.2,2.4,0.9,3.6c-1,1.4-2.3,2.9-2.7,3.4C390.6,326.3,389.2,326.4,388.2,326.6z"/>
	<path d="M386.4,321.9c1.3-1.4,3.2-1.5,4.3-0.5c1.1,1.1,1,3.1-0.2,4.4c-0.2,0.2-0.4,0.3-0.6,0.5c-0.5,0-1.1,0.1-1.7,0.3
		c-0.4,0.1-0.8,0.2-1.1,0.3c-0.3-0.1-0.6-0.3-0.8-0.5C385.1,325.3,385.1,323.3,386.4,321.9z"/>
	<g>
		<path class="st1" d="M429.2,334.7c0.1,0,0.2,0,0.3-0.1c0.2-0.1,0.3-0.3,0.2-0.5l-0.1-0.3c-0.9-4-1.9-7.8-4-10.7
			c-1.1-1.5-2.8-2.9-4.6-4c-0.1,0-0.1,0-0.1,0c-0.8-0.3-1.6-0.5-2.4-0.6c-1.9-0.2-3.7,0.1-5.4,1.1c-2.1,1.2-4.1,5.6-3.6,10.7
			c0,0.2,0.2,0.4,0.4,0.4c0.2,0,0.8,0.3,1.3,0.6c0.9,0.5,2,1.1,3,1.3l0,0c0.1,0,0.2,0,0.3,0c0.9,0,2.1-0.1,3.4-0.1
			c2.1-0.2,4.6-0.3,6.2-0.1c0.3,0,0.5,0.1,0.7,0.1c2.7,0.7,4.2,2.1,4.2,2.1C429,334.7,429.1,334.7,429.2,334.7z"/>
		<path d="M418.5,319c0.7,0.1,1.5,0.2,2.3,0.6c1.9,1.1,3.4,2.5,4.5,3.9c2.1,2.8,3,6.7,4,10.9c0,0-1.6-1.4-4.4-2.2
			c-0.2-0.1-0.5-0.1-0.7-0.2c-2.6-0.3-7.2,0.4-9.6,0.3c-0.1,0-0.2,0-0.3,0c-1.5-0.2-3.5-1.8-4.2-1.9c-0.5-5.3,1.6-9.3,3.4-10.3
			C415,319.1,416.7,318.7,418.5,319 M418.7,318.1c-2.1-0.3-3.9,0.1-5.8,1.1c-1.1,0.7-2.2,2.2-2.9,4.1c-0.6,1.5-1.2,4-0.9,7.1
			c0.1,0.4,0.4,0.8,0.8,0.9c0.2,0.1,0.7,0.4,1.1,0.6c1,0.6,2.1,1.2,3.2,1.3c0.1,0,0.3,0,0.4,0c0.9,0,2.1-0.1,3.4-0.2
			c2.1-0.2,4.6-0.3,6.1-0.1c0.3,0,0.5,0.1,0.6,0.1c2.5,0.7,4,2,4,2c0.1,0.1,0.4,0.2,0.5,0.2c0.2,0,0.4-0.1,0.6-0.1
			c0.3-0.2,0.5-0.6,0.4-1l-0.1-0.3c-1-4.1-1.9-7.9-4.1-10.9c-1.2-1.6-2.9-3-4.8-4.1c-0.1,0-0.1-0.1-0.2-0.1
			C420.2,318.4,419.5,318.2,418.7,318.1L418.7,318.1z"/>
	</g>
	<path class="st13" d="M417.2,322.4c2.4-1.1,4.9-1.3,7.5,0.2c0.2,0.2,0.5,0.5,0.7,0.8c2.1,2.9,3,6.7,4,10.9c0,0-0.5-0.6-3.3-1.7
		c-1.9-0.8-4.6-1.1-7.9-0.5c-1.3,0.2-2.8,0.5-4.4,0C413.2,327.9,414.1,323.9,417.2,322.4z"/>
	<path class="st14" d="M417.2,322.4c2.4-1.1,4.9-1.3,7.5,0.2c0.2,0.2,0.5,0.5,0.7,0.8c2.1,2.9,3,6.7,4,10.9c0,0-0.5-0.6-3.3-1.7
		c-1.9-0.8-4.6-1.1-7.9-0.5c-1.3,0.2-2.8,0.5-4.4,0C413.2,327.9,414.1,323.9,417.2,322.4z"/>
	<path d="M419.1,325.8c1.4-1.4,3.7-1.5,5.1,0c1.5,1.4,1.6,3.8,0.2,5.3c-0.4,0.5-0.6,0.7-1.3,0.9c-0.9-0.2-1.9-0.1-3.1-0.2
		c-0.1-0.1-0.6-0.6-0.8-0.6C417.8,329.7,417.7,327.3,419.1,325.8z"/>
	<path class="st15" d="M385.9,327.5c-0.2,0-0.5,0-0.9,0c0.6-0.1,1.2-0.3,1.7-0.4C386.2,327.3,385.9,327.5,385.9,327.5z"/>
	<g>
		<g>
			<g>
				<path d="M388.6,310.6c0,0-0.1,0-0.3,0.1c-0.2,0-0.5,0.1-0.8,0.2c-0.7,0.2-1.6,0.5-2.7,0.9c-0.5,0.2-1,0.3-1.5,0.4
					c-0.5,0-0.9,0-1.2-0.3c-0.3-0.3-0.3-0.5-0.4-0.7s-0.1-0.3-0.1-0.3c0.1,0.5,0.2,0.8,0.4,1.1c0.2,0.2,0.5,0.3,0.7,0.4
					c0.5,0.1,1.1,0.1,2.1-0.3C387,311.3,386.9,311.2,388.6,310.6z"/>
			</g>
		</g>
	</g>
	<g>
		<g>
			<g>
				<path d="M382.6,310.2v-0.1l-0.1-0.2c-0.1-0.2-0.2-0.5-0.2-0.7c0-0.3,0.2-0.5,0.3-0.6c0.2-0.1,0.3-0.1,0.3-0.1
					c-0.2-0.1-0.3,0-0.4,0s-0.2,0.1-0.2,0.1c-0.2,0.1-0.3,0.2-0.3,0.7c0.1,0.4,0.1,0.6,0.2,0.7C382.3,309.9,382.4,310,382.6,310.2z"
					/>
			</g>
		</g>
	</g>
	<g>
		<g>
			<g>
				<path d="M452,326.5c0,0,0.1,0,0.3,0.1c0.2,0,0.4,0.1,0.7,0.2c0.6,0.1,1.5,0.2,2.5,0s1.8-0.6,2.3-0.9c0.2-0.2,0.5-0.4,0.6-0.5
					c0.2-0.1,0.2-0.1,0.2-0.1c-0.8,0.4-1.1,0.6-1.5,0.7s-0.8,0.3-1.7,0.5c-0.9,0.2-1.4,0.1-1.9,0.1
					C453.2,326.6,452.8,326.6,452,326.5z"/>
			</g>
		</g>
	</g>
	<g>
		<g>
			<path class="st16" d="M384.7,396.7c-5.7,4.2-12.9,8-12.9,8c-3-9-4.7-18.7-2.4-28.1c0,0,0,0,0.1,0l0,0c3.8-2.4,9.3-4.5,18-2.5
				c10.6,2.5,13.1,7.6,13.1,7.6C396.8,387.8,391.3,391.8,384.7,396.7z M398.9,382.3c0,0-2.3-3.8-12.4-6.8c-7.9-2.3-14.9,1-15.8,1.6
				c-0.7,2.8-1.3,9.4-1,12.7c0.3,3.9,2.8,12.9,2.8,12.9s4-2,11.2-6.5C392,390.9,398.9,382.3,398.9,382.3z"/>
			<path d="M373.3,377.2c-0.2,0.7-2.3,6.4-3,9.6c0,0,3.1-1.4,4.6-1.5c0.3-0.9,0.4-1.3,0.7-2.2c0,0-1.7,0.2-3,0.7
				c0.2-0.7,0.3-1,0.6-1.7c0,0,1.4-0.6,2.9-0.8c0.2-0.5,0.3-0.8,0.6-1.4c0,0-2.1,0.4-2.8,0.7c0.4-0.8,0.6-1.3,1-2.1
				c0,0,1.6-0.5,3.2-0.4c0,0,0.9-1.7,1.2-2.1c0,0-1.5,0-3.1,0.3C374.8,376.5,373.3,377.2,373.3,377.2z"/>
			<path d="M375.4,387c0.3-1,3-7.2,4.9-10c0,0,2-0.6,3.4-0.2c0,0-2.2,4.1-2.3,6.9c0,0,3.7-5.1,4.8-6.2c0,0,2,0.6,3.4,0.2
				c0,0-5,4.1-8.1,9.4c0,0-1.3-0.2-1.9-0.1c0,0-0.3-3.3-0.1-4.4c0,0-1.4,2.3-2.3,4.3c0,0-0.4-0.1-0.9,0
				C375.8,386.9,375.4,387,375.4,387z"/>
			<path d="M393,385.3c-2,1.6-5.4,3-7.7,3c-1.7,0-3.2-0.2-3.2-0.2c2.9-4,4.5-5.9,8.2-9.6c0,0,3.9-0.9,5.5,0.8
				C397.3,380.9,395,383.7,393,385.3z M391.2,384.3c0.7-0.7,1.2-1.7,1.1-2.4c-0.2-0.7-1.1-0.9-1.1-0.9c-0.8,0.6-4,3.6-6.1,6.1
				c0,0,1.5-0.1,2.8-0.7C389.3,385.9,390.5,385.1,391.2,384.3z"/>
			<path d="M370.9,397.2c0.1-0.4,0.9-3.8,2.4-8.9c0,0,1.7-0.2,2.9,0c0,0-0.7,5.3-0.8,6.1c0,0,1.3-2.1,2.9-5.4c0,0,1.1-0.1,2.6,0.2
				c0,0-3.5,5.5-5.4,7.7c0,0-1.2-0.1-1.6,0c0,0-0.3-2.7-0.4-3.5c0,0-0.9,2.7-1.4,3.6c0,0-0.3,0-0.7,0
				C371.4,397,370.9,397.2,370.9,397.2z"/>
			<path d="M376.5,397.3c0.6-0.7,2.2-3.1,5.7-7.8c0,0,2.2,0.2,5.4,1.5c0,0-0.4,0.9-1.5,2c0,0-2.4-1.2-2.8-1.2c0,0-1.4,1.5-1.7,1.8
				c0,0,0.7,0.1,2.6,0.8c-0.4,0.5-0.5,0.7-0.9,1.2c0,0-1.7-1-2.9-0.9c0,0-1.9,2.1-2.5,2.8c0,0-0.3-0.2-0.6-0.2
				C376.9,397.4,376.5,397.3,376.5,397.3z"/>
		</g>
	</g>
	<circle class="st17" cx="421.1" cy="326.7" r="1.2"/>
	<circle class="st17" cx="388.1" cy="322.4" r="1.2"/>
	<g>
		<path id="sleeve_back_3_" class="st5" d="M421.4,378.8c1.2-0.1,2.9,0,3.7,1.4c0.8,1.3,0.4,2.2,0.4,3c-0.1,0.8,0.6,8.8,2.3,12.9
			s5.9,11.7,7.4,13.7s2.3,2.9,2.2,4.1c0,1.2,0.5,7.4-4.3,16.8c-0.9,1.6-1.8,1-1.8,1l0.5-0.9c0,0-0.8-3.6-3-5.6
			c-2.2-1.9-4.7-3-6.3-2.7c0,0-0.3-0.3,0-0.7c0.4-0.5,0.3-0.2,1.1-0.4c1.1-0.3,3-2.1,3.4-2.4c0,0-0.6-0.8,0.2-1.1
			c0,0-0.4-0.8,0.2-1.1c0,0-1.1-4.1-2.1-5.9c-0.9-1.8-4.7-11.9-6.2-19.8s-2.1-5.3-2.4-5.3s-0.2-3.1,1-4.3
			C419,380.1,420.3,378.9,421.4,378.8z"/>
		<g>
			<g>
				<g>
					<path class="st6" d="M427.2,416.7c0,0,0.2-0.1,0.6-0.3c0.4-0.2,0.9-0.4,1.5-0.6s1.1-0.3,1.5-0.4c0.2-0.1,0.3-0.1,0.5-0.1
						c0.1-0.1,0.2,0,0.2,0c-0.6,0-0.8,0-1.1,0c-0.3,0.1-0.6,0-1.2,0.3c-0.7,0.2-0.9,0.3-1.1,0.4
						C427.8,416.2,427.6,416.3,427.2,416.7z"/>
				</g>
			</g>
		</g>
		<g>
			<g>
				<g>
					<path class="st6" d="M427.7,418c0,0,0.2,0,0.4,0c0.3-0.1,0.7,0,1.3,0.1c1,0.2,2.5,0.5,3.9,1.1l0.1-0.3l-0.1-0.1
						c-1.4-0.9-2.9-1.4-4-1.6c-0.6-0.1-1-0.1-1.3,0c-0.3,0-0.4,0-0.5,0c1.4,0,2.1,0.3,2.8,0.5c0.4,0.1,0.7,0.2,1.2,0.4
						c0.4,0.2,1,0.5,1.7,0.9c0.1,0,0.1,0.1,0.1,0.1l0.1-0.3c-1.5-0.5-2.3-0.7-3-0.8c-0.4-0.1-0.7-0.1-1.2-0.2
						C428.9,417.9,428.4,417.9,427.7,418z"/>
				</g>
			</g>
		</g>
		<path id="hand_back_3_" class="st18" d="M422.5,422.4c-1.5,1.1-9,5.9-11.6,6.9c0,0-2.2-1.8-3-1.9s-3.2,0.7-3.9,0.4
			c-0.8-0.3-2.7-0.6-3-0.9c-0.3-0.2-1.8,1-2.4,2.3c0,0-0.6,0-0.8-0.1c-0.2,0-2.2,1.1-2.6,1.3c-0.3,0.2-1.3,2.7-1.5,3.9
			c-0.3,1.3-0.9,2.5,0.3,4.1c-0.4,0.8-2.1,5.9,0.5,7.8c-0.3,1,0.3,4.5,1.6,6.2c0.6,0.9,1.8,1.4,1.8,1.4s0.9,2.1,2.8,3.3
			c1.3,0.7,1.9,0.7,3.4,0.5c1.6-0.2,2.6-1.1,4.5-1.2c2-0.1,5.1-2.7,7.7-4.6c0.7-0.5,3.7-2,4.6-4.6c0.9-2.5,1.7-4.4,3.3-6.2
			c1.6-1.8,7.3-9.6,8.1-11.1s-1-5.8-2.1-6.4c-1.2-0.6-3.4-1.3-4.5-1.6c-1-0.3-2.9,0.1-2.9,0.1L422.5,422.4z"/>
		<g>
			<g>
				<g>
					<path d="M410.4,429.1c0,0,0,0,0.1,0.1s0.2,0.2,0.3,0.3c0.2,0.3,0.6,0.6,1.1,0.8c0.5,0.3,1,0.3,1.3,0.3c0.2,0,0.3,0,0.4,0
						s0.2,0,0.2,0c-0.5-0.1-0.7-0.1-0.9-0.2c-0.2-0.1-0.5-0.1-0.9-0.3c-0.5-0.3-0.6-0.4-0.8-0.5C411,429.4,410.8,429.3,410.4,429.1z
						"/>
				</g>
			</g>
		</g>
		<g>
			<g>
				<g>
					<path d="M408.1,433.6c0,0-0.1,0.1-0.4,0.1c-0.3,0.1-0.6,0-1.1,0s-1-0.2-1.6-0.3c-0.2-0.1-0.5-0.3-0.8-0.5s-0.6-0.4-0.9-0.6
						c-1.2-0.8-2.4-1.4-3.2-1.9c-0.4-0.2-0.8-0.4-1-0.5s-0.4-0.2-0.3-0.1c1.1,0.6,1.5,1,2.1,1.4c0.5,0.3,1.1,0.7,2.3,1.5
						c0.6,0.4,1.1,0.6,1.4,0.9c0.5,0.3,0.8,0.3,1.1,0.3s0.6,0.1,1,0.1C407.2,433.8,407.6,433.8,408.1,433.6z"/>
				</g>
			</g>
		</g>
		<g>
			<g>
				<g>
					<path d="M402.8,430.1c0,0,0,0,0.1-0.1s0.2-0.1,0.3-0.2c0.3-0.2,0.7-0.5,1-0.8c0.4-0.3,0.8-0.5,1-0.8c0.3-0.2,0.4-0.3,0.4-0.3
						c-0.5,0.1-0.7,0.2-0.8,0.3c-0.2,0.1-0.4,0.2-0.8,0.5s-0.6,0.4-0.8,0.6C403.1,429.6,403,429.7,402.8,430.1z"/>
				</g>
			</g>
		</g>
		<g>
			<g>
				<g>
					<path d="M407.1,432.5c0,0-0.2,0.2-0.4,0.5c-0.1,0.1-0.1,0.3-0.2,0.4c0,0.1-0.1,0.1-0.1,0.1c0.2,0,0.3-0.1,0.3,0
						c0.1-0.1,0.2-0.1,0.2-0.3C407.3,432.9,407.2,432.9,407.1,432.5z"/>
				</g>
			</g>
		</g>
		<g>
			<g>
				<g>
					<path d="M400.2,431.9c0,0,0.2-0.1,0.5-0.4c0.2-0.2,0.3-0.5,0.3-0.5c-0.3,0.1-0.3,0-0.6,0.3
						C400.3,431.6,400.3,431.6,400.2,431.9z"/>
				</g>
			</g>
		</g>
		<g>
			<g>
				<g>
					<path d="M400.6,433.4c0,0,0-0.2,0-0.5c0-0.2,0-0.3,0-0.5s0-0.4-0.2-0.7c-0.1-0.2-0.3-0.2-0.5-0.2s-0.3,0-0.4,0
						c-0.2,0-0.4,0-0.6,0v0.1c0.1-0.1,0.2,0,0.1-0.1c-0.1,0-0.2,0-0.2,0h-0.1h0.1c0.3,0.1,0.5,0.1,0.6,0.1s0.2,0,0.3,0.1
						c0.1,0,0.2,0,0.3,0.1c0.1,0.1,0.1,0.2,0.1,0.4c0.1,0.1,0.1,0.2,0,0.3C400.4,432.9,400.4,433,400.6,433.4z"/>
				</g>
			</g>
		</g>
		<g>
			<g>
				<g>
					<path d="M400.7,441.4c0,0-0.1,0-0.2-0.2c-0.1-0.1-0.4-0.2-0.7-0.4c-0.6-0.3-1.4-0.7-2.4-1c-0.9-0.3-1.8-0.6-2.4-0.9
						c-0.3-0.1-0.6-0.2-0.7-0.2c-0.1-0.1-0.2-0.1-0.2-0.1c0.7,0.5,1.1,0.6,1.5,0.8c0.4,0.2,0.8,0.3,1.7,0.7c0.9,0.3,1.4,0.5,1.8,0.7
						C399.6,441,400,441.1,400.7,441.4z"/>
				</g>
			</g>
		</g>
		<g>
			<g>
				<g>
					<path d="M401,447.5c0,0-0.1,0-0.2,0c-0.2,0-0.5,0-0.7-0.1c-0.6-0.1-1.5-0.2-2.3-0.4c-0.9-0.2-1.7-0.3-2.3-0.4
						c-0.3-0.1-0.5-0.1-0.7-0.1s-0.3-0.1-0.2,0c0.8,0.3,1.2,0.4,1.5,0.5c0.4,0.1,0.9,0.2,1.8,0.4c0.9,0.2,1.4,0.2,1.8,0.2
						C399.8,447.6,400.2,447.6,401,447.5z"/>
				</g>
			</g>
		</g>
		<g>
			<g>
				<g>
					<path d="M403.5,454.2c0,0-0.1,0-0.2,0s-0.4,0-0.6,0c-0.5,0-1.3,0-2.1-0.1c-0.8-0.1-1.5-0.1-2.1-0.1c-0.2,0-0.5,0-0.6-0.1
						c-0.2,0-0.2,0-0.2,0c0.7,0.2,1,0.3,1.3,0.3s0.7,0.1,1.5,0.1c0.8,0.1,1.2,0,1.5,0C402.6,454.5,402.9,454.4,403.5,454.2z"/>
				</g>
			</g>
		</g>
		<g>
			<g>
				<g>
					<path d="M405.3,451c0,0-0.4-0.5-0.5-1.2c-0.2-0.7,0.1-1.3,0.1-1.3c-0.2,0.3-0.2,0.4-0.2,0.5c0,0.2,0,0.3,0,0.7
						c0.1,0.3,0.2,0.5,0.3,0.7C405,450.6,405.1,450.7,405.3,451z"/>
				</g>
			</g>
		</g>
		<g>
			<g>
				<g>
					<path d="M406.6,454.8C406.6,454.8,406.6,454.7,406.6,454.8c-0.1-0.1-0.2-0.2-0.3-0.2c-0.1-0.2-0.3-0.4-0.4-0.7
						c-0.2-0.3-0.4-0.5-0.4-0.7c-0.1-0.2-0.2-0.3-0.2-0.3c0.3,0.5,0.3,0.5,0.6,1c0.2,0.3,0.3,0.4,0.4,0.5
						C406.3,454.6,406.4,454.7,406.6,454.8z"/>
				</g>
			</g>
		</g>
		<g>
			<g>
				<g>
					<path d="M404.8,446.7c0,0-0.3-0.7-0.2-1.5c0.1-0.9,0.6-1.4,0.6-1.5c-0.2,0.3-0.4,0.4-0.4,0.6c-0.1,0.1-0.2,0.4-0.2,0.8
						c0,0.5,0,0.6,0,0.8C404.6,446.2,404.7,446.4,404.8,446.7z"/>
				</g>
			</g>
		</g>
		<g>
			<g>
				<g>
					<path d="M405.2,442.7c0,0-0.1-0.4-0.6-0.8c-0.2-0.3-0.5-0.5-0.7-0.9c-0.3-0.3,0-0.8,0.2-1.2c0.4-0.8,0.8-1.6,1.3-2
						c0.2-0.2,0.4-0.4,0.5-0.6c0.2-0.1,0.2-0.1,0.2-0.1c-0.3,0.2-0.6,0.5-0.7,0.6s-0.3,0.3-0.4,0.5c-0.3,0.4-0.5,0.7-0.9,1.5
						c-0.2,0.4-0.3,0.8-0.2,1.1c0.1,0.3,0.3,0.5,0.4,0.6C404.5,441.8,404.9,442,405.2,442.7z"/>
				</g>
			</g>
		</g>
	</g>
	<g>
		<g>
			<defs>
				<path id="SVGID_1_" d="M417.1,429.9c-22-4.6-45.9-8-60.2-10.6c-4.4-0.8-8.8-1.4-12.1-2.8l7.5-10.8c0,0,12.3-5.3,25.3-1.4
					S417.1,429.9,417.1,429.9z"/>
			</defs>
			<clipPath id="SVGID_2_">
				<use xlink:href="#SVGID_1_"  style="overflow:visible;"/>
			</clipPath>
			<g class="st19">
				<path id="belt_1_" class="st0" d="M362.1,406.9c-4.6,0.1-6.9,0.8-7.7,1.1c-0.7,0.2-1.5,0.9-1.5,2.3c-0.1,1.4,0.4,10.4,1.1,11.3
					c0.5,0.7,1.9,2,3.5,3.3c-0.4-1.5-0.7-3.4-0.8-4.3c0,0,2.4-0.2,3.7-0.2c1.2,0,2.6,0,4,0.3c2.9,0.4,16.1,2.9,24.5,7.4
					c8.3,4.5,12.7,8.8,13.4,10l-0.1,1.8c0,0,0.9-0.3,1.7-0.8c0.8-0.5,1.1-1.4,1.1-1.4s-0.3-1.5,1.5-7c0,0-0.6-2.1-5-5.9
					c-4.6-4-15.5-11.5-24.1-14.5C368.6,407.2,362.1,406.9,362.1,406.9z"/>
				<g>
					<g>
						<g>
							<path d="M355.4,422.6c0,0,0-0.1-0.1-0.2c-0.1-0.2-0.2-0.4-0.4-0.6c-0.1-0.2-0.3-0.6-0.4-1c-0.1-0.2-0.1-0.4-0.1-0.6
								c0-0.1,0-0.2,0-0.3c0.1-0.1,0.1-0.2,0.2-0.2c0.2-0.4,0.6-0.6,1-0.7s0.7-0.2,1.1-0.2c0.3-0.1,0.6-0.1,0.7-0.1
								c0.2,0,0.3,0,0.2,0c-0.9-0.1-1.2-0.1-1.6,0c-0.2,0-0.4,0.1-0.7,0.1c-0.2,0.1-0.6,0.3-1,0.7c-0.1,0.1-0.1,0.2-0.2,0.3
								c-0.1,0.2-0.1,0.2-0.1,0.3c0,0.2,0.1,0.4,0.1,0.6c0.1,0.3,0.2,0.5,0.3,0.7c0.1,0.2,0.2,0.4,0.4,0.6
								C354.9,422.1,355.1,422.3,355.4,422.6z"/>
						</g>
					</g>
				</g>
				<g>
					<g>
						<g>
							<path d="M387.6,425.6c0,0-0.2-0.1-0.4-0.2c-0.3-0.1-0.6-0.3-1.1-0.5c-0.9-0.4-2.2-0.9-3.7-1.5c-1.4-0.5-2.8-0.9-3.8-1.1
								c-0.5-0.1-0.9-0.3-1.2-0.3c-0.3-0.1-0.4-0.1-0.4-0.1c2.5,0.9,2.3,0.8,5.2,1.9c1.4,0.5,2.2,0.8,2.9,1
								C385.9,425,386.4,425.1,387.6,425.6z"/>
						</g>
					</g>
				</g>
				<path id="buckle_2_" class="st20" d="M363.2,405.2c-0.8,0.2-2,0-2,1.7c0,1.1-0.1,3.4,0.7,7.3c0.4,2.1,2.4,6.6,2.8,7.3
					c0.4,0.6,2.7,0,9,2c0.4,0.2,2.2-0.3,2.1-0.9c-0.1-0.3,1.1-4.9,1.9-7.9c0.8-2.9,1.5-4.6,2.1-5.4c0.4-0.5-0.6-0.9-1.6-1.5
					s-6.3-2.4-10.3-2.6C364.9,405,363.5,405.1,363.2,405.2z"/>
				<g>
					<g>
						<g>
							<path d="M372.7,421.4c0,0-0.1-0.1-0.3-0.1c-0.2-0.1-0.5-0.2-0.8-0.3c-0.7-0.2-1.7-0.5-2.7-0.7c-1.1-0.2-2.1-0.2-2.8-0.2
								c-0.4,0-0.7,0-0.9,0c-0.2,0-0.3,0.1-0.3,0.1c0.2-0.1,0.4-0.1,0.6,0c0.2,0,0.3,0,0.5,0.1c0.3,0,0.5,0.1,0.7,0.1
								c0.5,0.1,1,0.1,2,0.3c1.1,0.2,1.6,0.3,2.1,0.4C371.4,421.2,371.8,421.2,372.7,421.4z"/>
						</g>
					</g>
				</g>
				<g>
					<g>
						<g>
							<path d="M377.5,408.4c0,0-0.1,0.1-0.3,0.5c-0.2,0.4-0.4,0.8-0.7,1.5c-0.6,1.3-1.2,3.2-1.6,5.3c-0.4,2.1-0.6,4-0.7,5.4
								c0,0.2,0,0.3,0,0.5s0,0.3,0,0.5c0.1,0.3,0.2,0.5,0.2,0.7c0.2,0.3,0.3,0.5,0.3,0.5c-0.2-0.5-0.4-0.8-0.4-1.1
								c0-0.2-0.1-0.3,0-0.5c0-0.2,0-0.3,0.1-0.5c0.1-0.5,0.1-1,0.2-1.5c0.1-0.9,0.2-1.9,0.7-4s0.7-3.1,1.1-4
								C376.5,410.7,376.7,409.9,377.5,408.4z"/>
						</g>
					</g>
				</g>
			</g>
		</g>
	</g>
	<path d="M472.9,390.4c0.1,0-0.7,0.1-2.1,0.2s-3.5,0.4-6,0.6c-1.3,0.1-2.7,0.1-4.2,0.2c-0.8,0-1.5,0.1-2.3,0c-0.8,0-1.6,0-2.5,0
		c-3.4-0.1-7.2-0.5-11-1.4s-7.4-2.6-10.1-4.7c-2.8-2-5-4.1-7.1-5.6c-1.1-0.7-2-1.4-2.9-1.8c-0.9-0.5-1.6-0.9-2.3-1.1
		c-1.3-0.5-2-0.8-1.9-0.8c3.3,0.9,5.6,2,7.4,3c1.8,1.1,3.1,2,4.5,3c0.7,0.5,1.4,1,2.1,1.5c0.4,0.3,0.8,0.5,1.2,0.8
		c0.4,0.3,0.9,0.5,1.4,0.8c1.9,1.1,4.4,2.4,8.1,3.3c0.9,0.3,1.8,0.4,2.6,0.6c0.8,0.1,1.6,0.3,2.3,0.4c1.5,0.2,2.8,0.3,3.9,0.4
		c2.3,0.1,4.2,0.2,5.9,0.3c1.7,0,3.4,0.1,5.4,0.1C467.3,390.5,469.7,390.5,472.9,390.4z"/>
	<path class="st21" d="M737.1,387.9l61.6-3.3v163.6l-51.9-17.8C772.5,478.9,769.5,431.4,737.1,387.9z"/>
	<path class="st22" d="M124.4,496.6c-20.3-17-39.4-47.9-45.5-85.9c-5.5-34.2,0.3-62.3,11.5-87.1"/>
	<path class="st23" d="M127.8,475.4c-17.1-14.3-33.1-40.2-38.2-72.2c-4.6-28.7,0.2-52.4,9.7-73.2"/>
	<rect class="st24" width="800" height="800"/>
	<path class="st0" d="M462.2,209.5c-1.2-14.4-13.4-25.8-28.1-25.8c-2.7,0-5.5,0.5-8,1.2c-6.5-8.2-16.5-13.4-27.8-13.8
		c-7-24.1-29.3-41.9-55.7-41.9c-17.5,0-33.1,7.7-43.7,19.9c-6.5-2.7-13.7-4.2-21.2-4.2c-20,0-37.5,10.6-47,26.6
		c-1.8-0.3-3.8-0.5-5.8-0.5c-20.5,0-37,16.5-37,37c0,0.5,0,0.9,0,1.4h274.4L462.2,209.5L462.2,209.5z"/>
	<path class="st0" d="M547.9,254.2c0.8-9.2,8.5-16.4,17.9-16.4c1.7,0,3.5,0.3,5.1,0.8c4.2-5.2,10.5-8.5,17.7-8.8
		c4.4-15.3,18.6-26.6,35.5-26.6c11.1,0,21.1,4.9,27.8,12.6c4.2-1.7,8.7-2.7,13.5-2.7c12.8,0,23.9,6.8,29.9,16.9
		c1.2-0.2,2.4-0.3,3.7-0.3c13,0,23.6,10.5,23.6,23.5c0,0.3,0,0.6,0,0.9L547.9,254.2L547.9,254.2z"/>
	<path class="st0" d="M304.6,698.6c0.8-9.2,8.5-16.4,17.9-16.4c1.7,0,3.5,0.3,5.1,0.8c4.2-5.2,10.5-8.5,17.7-8.8
		c4.4-15.3,18.6-26.6,35.5-26.6c11.1,0,21.1,4.9,27.8,12.6c4.2-1.7,8.7-2.7,13.5-2.7c12.8,0,23.9,6.8,29.9,16.9
		c1.2-0.2,2.4-0.3,3.7-0.3c13,0,23.6,10.5,23.6,23.5c0,0.3,0,0.6,0,0.9L304.6,698.6L304.6,698.6z"/>
	<path class="st0" d="M557.6,149c-0.2-13.4-11-24.2-24.4-24.2c-0.8,0-1.6,0-2.4,0.1c-6.4-12.1-19.2-20.3-33.8-20.3
		c-10.4,0-19.9,4.2-26.8,10.9c-2.8-0.9-5.8-1.4-8.8-1.4c-16.2,0-29.3,13.1-29.3,29.3c0,1.9,0.2,3.7,0.5,5.5L557.6,149L557.6,149z"/>
	<path class="st0" d="M294.2,631.2c-0.2-13.4-11-24.2-24.4-24.2c-0.8,0-1.6,0-2.4,0.1c-6.4-12.1-19.2-20.3-33.8-20.3
		c-10.4,0-19.9,4.2-26.8,10.9c-2.8-0.9-5.8-1.4-8.8-1.4c-16.2,0-29.3,13.1-29.3,29.3c0,1.9,0.2,3.7,0.5,5.5h125V631.2z"/>
	<path class="st0" d="M80.7,144.8c0.1-10.6,8.8-19.2,19.4-19.2c0.6,0,1.3,0,1.9,0.1c5.1-9.6,15.2-16.2,26.9-16.2
		c8.3,0,15.8,3.3,21.3,8.7c2.2-0.7,4.6-1.1,7-1.1c12.8,0,23.3,10.4,23.3,23.3c0,1.5-0.1,3-0.4,4.4L80.7,144.8L80.7,144.8z"/>
</g>
</svg>
